<svg width="9" height="15" viewBox="0 0 9 15" fill="none" xmlns="http://www.w3.org/2000/svg">
<path d="M2.00005 13.9727L2.00005 14.9727L5.28256e-05 14.9727L5.28693e-05 13.9727L1.00005 13.9727L2.00005 13.9727ZM6.97526 6.64071C7.46011 6.37625 8.06755 6.55492 8.332 7.03978C8.59645 7.52463 8.41779 8.13206 7.93293 8.39652L7.4541 7.51861L6.97526 6.64071ZM7.82868 6.52591C8.34074 6.73282 8.58812 7.31566 8.38122 7.82772C8.17431 8.33978 7.59147 8.58717 7.07941 8.38026L7.45405 7.45309L7.82868 6.52591ZM5.67095e-07 0.999043L6.10806e-07 -0.000956579L2 -0.000956492L2 0.999044L1 0.999043L5.67095e-07 0.999043ZM1.00005 13.9727L5.28693e-05 13.9727C5.29166e-05 12.8918 0.579991 11.8966 1.23326 11.0948C1.90648 10.2686 2.77966 9.50014 3.61563 8.85417C4.4575 8.20364 5.29441 7.6524 5.91798 7.26504C6.23071 7.07078 6.49203 6.91634 6.67642 6.80978C6.76866 6.75648 6.84179 6.71507 6.89262 6.68657C6.91805 6.67232 6.93791 6.66129 6.95181 6.65361C6.95876 6.64976 6.96422 6.64676 6.96815 6.6446C6.97011 6.64353 6.97169 6.64266 6.97287 6.64201C6.97347 6.64169 6.97396 6.64142 6.97436 6.6412C6.97456 6.64109 6.97479 6.64097 6.97488 6.64091C6.97508 6.6408 6.97526 6.64071 7.4541 7.51861C7.93293 8.39652 7.93306 8.39645 7.93316 8.39639C7.93316 8.39639 7.93324 8.39635 7.93324 8.39635C7.93325 8.39635 7.93315 8.3964 7.93297 8.3965C7.93259 8.3967 7.93183 8.39712 7.93069 8.39775C7.92841 8.399 7.92462 8.40109 7.91936 8.40399C7.90883 8.40981 7.89245 8.4189 7.87061 8.43115C7.8269 8.45565 7.76137 8.49274 7.67713 8.54142C7.50856 8.63884 7.26566 8.78234 6.97332 8.96394C6.38676 9.32831 5.61016 9.84049 4.83852 10.4367C4.06098 11.0376 3.32065 11.6992 2.78374 12.3582C2.22687 13.0416 2.00005 13.5866 2.00005 13.9727L1.00005 13.9727ZM7.45405 7.45309C7.07941 8.38026 7.07915 8.38016 7.07887 8.38004C7.07875 8.37999 7.07844 8.37987 7.07819 8.37976C7.07768 8.37956 7.07707 8.37931 7.07637 8.37903C7.07496 8.37845 7.07316 8.37772 7.07097 8.37683C7.0666 8.37504 7.06068 8.37261 7.05327 8.36955C7.03845 8.36342 7.01765 8.35474 6.99126 8.34355C6.93849 8.32118 6.86332 8.28875 6.76892 8.24659C6.58027 8.16233 6.31405 8.03885 5.99597 7.87873C5.36232 7.55976 4.51058 7.08928 3.65245 6.48685C2.79948 5.88804 1.90523 5.13466 1.21628 4.24042C0.526222 3.34474 5.12369e-07 2.25102 5.67095e-07 0.999043L1 0.999043L2 0.999044C2 1.67017 2.28053 2.34476 2.80061 3.0198C3.32179 3.69628 4.04105 4.31602 4.8016 4.84995C5.55698 5.38024 6.31875 5.80211 6.89523 6.0923C7.18222 6.23677 7.42022 6.34707 7.58453 6.42045C7.66661 6.45711 7.73009 6.48447 7.77187 6.50217C7.79275 6.51103 7.80818 6.51746 7.81779 6.52143C7.82259 6.52342 7.82593 6.52479 7.82776 6.52554C7.82868 6.52591 7.82922 6.52613 7.82937 6.52619C7.82945 6.52623 7.82943 6.52622 7.82932 6.52617C7.82926 6.52615 7.8291 6.52608 7.82907 6.52607C7.82889 6.526 7.82868 6.52591 7.45405 7.45309Z" fill="#4A6D48"/>
</svg>
