<svg preserveAspectRatio="none" width="100%" height="100%" overflow="visible" style="display: block;" viewBox="0 0 53.561 165.082" fill="none" xmlns="http://www.w3.org/2000/svg">
<g id="Group">
<path id="Vector" d="M46.3516 0.656318C47.6784 0.693521 49.1413 0.69352 50.4731 0.733203C50.8419 2.1221 51.1142 3.52836 51.3766 4.94205C49.6042 7.62808 47.6437 10.1802 45.5644 12.6355C45.4407 11.2516 45.1659 9.88255 44.8367 8.53086C45.9679 6.08789 46.4853 3.3473 46.3541 0.653836L46.3516 0.656318ZM36.3363 21.3459C36.3363 21.3459 36.3264 21.3633 36.3215 21.3732C35.2719 20.7779 34.1159 19.9446 33.4822 19.1857C30.8509 16.1127 30.9227 11.6459 32.9872 8.29276C34.3065 6.04324 36.3586 4.30464 38.6434 3.07696C40.8538 1.95344 43.3391 0.879528 45.859 1.0457C46.0348 3.56059 45.6734 6.09533 44.8218 8.47381C44.6387 7.7248 44.4382 6.98323 44.2401 6.2491C40.7944 7.70496 37.0344 9.5626 35.3462 13.1589C33.8214 16.1351 34.7422 19.9347 37.3339 21.8866L36.3388 21.3459H36.3363ZM41.5742 21.9808C41.4356 22.2412 41.2969 22.5017 41.1608 22.7621C40.9776 22.8712 40.787 22.963 40.5816 23.0299C39.8414 23.2333 38.8191 23.1986 38.3265 22.5017C38.7424 23.3077 39.8241 23.4962 40.6608 23.3598C40.7326 23.3474 40.8019 23.3251 40.8712 23.3077C21.3926 60.173 9.57032 101.016 6.21869 142.515H1.11451C4.78546 100.364 17.1994 59.0197 37.4181 21.9511C37.7027 22.1569 38.0047 22.3429 38.3265 22.5017C36.9057 21.4922 35.9155 19.9843 35.5417 18.3573C34.8932 15.887 35.9551 13.3746 37.6656 11.6162C39.2671 9.94952 41.3068 8.888 43.4233 7.95546C44.6684 12.4446 45.4753 17.6455 42.4455 21.5518C42.2796 21.7651 42.0989 21.9734 41.9083 22.1644L41.5717 21.9808H41.5742ZM44.9555 22.7298C44.1782 22.8935 43.3614 22.9084 42.5668 22.7472C42.599 22.6877 42.6311 22.6306 42.6609 22.5711L42.3985 22.4297C42.5742 22.276 42.7401 22.1147 42.8985 21.9486C44.7327 20.0041 45.5595 17.2809 45.6239 14.647C45.6437 14.0244 45.6239 13.4044 45.5719 12.7868C47.8393 10.7109 49.8839 8.39197 51.7107 5.91428C51.9707 6.61616 52.1712 7.34038 52.3147 8.07451C52.9063 11.0061 52.5177 14.1187 51.2899 16.8419C50.0473 19.5007 47.9408 22.0875 44.9506 22.7323L44.9555 22.7298Z" fill="var(--fill-0, #054A31)" fill-opacity="0.8"/>
<path id="Vector_2" d="M52.2126 4.86039L51.8884 4.17587C51.8884 4.17587 51.772 4.34948 51.6631 4.51317C51.6804 4.01466 51.6631 3.51366 51.626 3.01515C51.5443 1.9958 51.3314 0.98637 51.0368 0.00422262C49.46 -0.0280196 47.8634 0.120788 46.3485 0.574659C44.9103 0.329122 43.435 0.530016 42.0711 0.931804C38.1873 2.07268 34.4346 4.33956 32.3727 7.93085C30.2389 11.4998 30.2736 16.3114 33.2663 19.3843C34.2044 20.3664 35.4198 21.0237 36.6922 21.4379C35.4842 20.9071 34.3332 20.2027 33.4841 19.1834C30.8528 16.1105 30.9246 11.6437 32.989 8.29047C34.3084 6.04096 36.3605 4.30236 38.6452 3.07468C40.8557 1.95116 43.341 0.877243 45.8609 1.04341C46.0366 3.55831 45.6752 6.09304 44.8237 8.47152C44.6405 7.72251 44.44 6.98094 44.242 6.24681C40.7963 7.70267 37.0362 9.56031 35.3481 13.1566C33.8232 16.1328 34.7441 19.9324 37.3358 21.8843L36.3407 21.3436C12.8867 65.2079 0.311895 114.789 0 164.447C0.722803 114.796 13.7036 65.4311 37.4199 21.9488C37.7046 22.1546 38.0066 22.3406 38.3284 22.4994C36.9075 21.4899 35.9174 19.982 35.5436 18.355C34.8951 15.8848 35.957 13.3723 37.6675 11.6139C39.269 9.94723 41.3087 8.88571 43.4251 7.95317C44.6702 12.4423 45.4772 17.6432 42.4474 21.5495C42.2815 21.7628 42.1008 21.9711 41.9102 22.1621L41.5736 21.9785C41.435 22.2389 41.2963 22.4994 41.1602 22.7598C40.977 22.8689 40.7864 22.9607 40.581 23.0277C39.8408 23.231 38.8185 23.1963 38.3259 22.4994C38.7418 23.3054 39.8235 23.4939 40.6602 23.3575C40.732 23.3451 40.8013 23.3228 40.8706 23.3054C17.8696 66.8423 5.54232 115.922 5.2329 165.082C5.95571 115.523 18.8894 66.2471 42.5241 22.8218C44.3138 23.4542 46.4129 23.0326 47.9946 22.0133C53.4132 18.4294 54.9974 10.5772 52.2102 4.85792L52.2126 4.86039ZM46.351 0.656509C47.6778 0.693711 49.1407 0.693711 50.4725 0.733393C50.8413 2.12229 51.1136 3.52855 51.376 4.94224C49.6036 7.62827 47.6431 10.1804 45.5638 12.6357C45.4401 11.2518 45.1653 9.88274 44.8361 8.53105C45.9673 6.08808 46.4847 3.34749 46.3535 0.654026L46.351 0.656509ZM44.9549 22.73C44.1776 22.8937 43.3608 22.9086 42.5662 22.7474C42.5984 22.6879 42.6305 22.6308 42.6602 22.5713L42.3979 22.4299C42.5736 22.2762 42.7395 22.1149 42.8979 21.9488C44.7321 20.0043 45.5589 17.2811 45.6232 14.6471C45.6431 14.0246 45.6232 13.4046 45.5713 12.787C47.8387 10.7111 49.8833 8.39216 51.7101 5.91447C51.9701 6.61635 52.1706 7.34057 52.3141 8.0747C52.9057 11.0063 52.5171 14.1189 51.2893 16.8421C50.0467 19.5009 47.9402 22.0877 44.95 22.7325L44.9549 22.73Z" fill="var(--fill-0, #F8FFCF)"/>
<g id="Group_2">
<path id="Vector_3" d="M43.5089 7.41244C43.5089 7.41244 43.499 7.4298 43.4916 7.43972H43.405C43.4074 7.48436 43.4099 7.52901 43.4124 7.57117C43.3579 7.66046 43.3059 7.74726 43.2515 7.83655C39.9197 10.0513 37.1002 13.6997 37.4121 17.8713C37.3527 14.2651 39.6276 11.1997 42.4841 9.18576C40.5212 12.8415 39.2959 16.8718 38.9023 20.9616C39.5484 16.6288 41.1227 12.467 43.4619 8.82366C43.5238 12.3182 42.999 15.8425 41.8975 19.1982C43.3777 15.4854 44.1525 11.465 44.15 7.41988L43.551 7.43972L43.5114 7.41492L43.5089 7.41244Z" fill="var(--fill-0, #F8FFCF)"/>
<path id="Vector_4" d="M51.9605 6.30636C51.9902 6.16499 52.0174 6.02113 52.0347 5.8748L51.2946 5.82024C51.2154 7.43979 50.2005 8.9279 49.3911 10.3143C48.6163 11.5693 47.7449 12.7821 46.8068 13.923L46.6038 14.1685C46.5642 14.2082 46.4899 14.3396 46.4355 14.2677C46.4305 14.2479 46.4578 14.2032 46.4776 14.233C46.4602 14.2007 46.4256 14.2454 46.4305 14.2702C46.485 14.357 46.5766 14.228 46.6236 14.1859C47.7351 13.0425 48.7697 11.8148 49.703 10.5226C50.3812 9.53058 51.1288 8.55587 51.6016 7.44971C51.5124 12.1248 49.4381 16.8024 45.8983 20.0068C49.8861 16.7305 52.3417 11.5792 52.3318 6.29643L51.9654 6.30636H51.9605Z" fill="var(--fill-0, #F8FFCF)"/>
<path id="Vector_5" d="M46.2809 1.25672L46.1126 1.16247C46.0804 0.9963 45.9789 0.48539 45.9789 0.48539C39.3474 1.91397 33.9215 7.68532 32.9264 14.3719C34.0279 8.43433 38.6915 3.34999 44.4145 1.62379C41.8995 3.38967 39.6643 5.52757 37.8078 7.9383C39.9415 5.53005 42.454 3.4864 45.2041 1.88917C44.7957 2.8986 44.4591 3.93035 44.1892 4.97202C44.7808 3.66497 45.4814 2.41992 46.2784 1.25424L46.2809 1.25672Z" fill="var(--fill-0, #F8FFCF)"/>
<path id="Vector_6" d="M50.2334 1.9263C50.2829 3.16391 50.1839 4.42136 49.9339 5.65648C50.5007 4.09398 50.8299 2.42482 50.8869 0.72342L50.2358 0.748223L49.9611 0.368757C48.961 1.24922 48.159 2.31073 47.5971 3.46401C48.2085 2.65299 48.9388 1.95359 49.7457 1.39059C49.0328 3.46897 48.2358 5.52255 47.3471 7.54141C48.3843 5.71352 49.3422 3.83603 50.2334 1.92382V1.9263Z" fill="var(--fill-0, #F8FFCF)"/>
</g>
</g>
</svg>
