<svg preserveAspectRatio="none" width="100%" height="100%" overflow="visible" style="display: block;" viewBox="0 0 198.428 195.01" fill="none" xmlns="http://www.w3.org/2000/svg">
<g id="Group">
<path id="Vector" d="M137.545 40.513C137.654 45.7511 133.718 49.7368 130.881 53.7422C128.628 56.9739 126.569 61.029 127.695 65.0568C129.398 70.7612 136.131 72.227 141.357 72.5023C145.577 72.7403 150.1 72.6461 153.87 74.7865C154.464 75.1511 155.043 75.5479 155.545 76.0266C156.347 76.7161 156.969 77.6908 157.828 78.3802C159.994 80.1585 163.051 79.3153 165.472 78.8217C166.016 78.7126 166.563 78.6183 167.113 78.534C166.249 78.8887 165.405 79.3178 164.573 79.6898C163.236 80.2627 161.917 81.0365 160.452 80.6967C159.464 80.5207 158.496 80.2503 157.481 80.1313C155.949 79.918 154.342 80.3446 152.887 80.7265C151.469 81.101 150.102 81.4458 148.664 81.2771C147.169 81.0489 145.936 80.29 144.337 80.0568C141.3 79.5881 138.206 81.2151 135.347 81.3416C134.398 81.4011 133.445 81.3738 132.502 81.2473C125.616 80.357 120.499 74.2905 121.002 67.3013C121.173 64.3995 122.524 61.7185 124.215 59.4069C127.173 55.3891 130.978 51.9491 133.428 47.5368C135.302 44.2258 137.255 40.384 136.455 36.4951C137.104 37.7352 137.495 39.1043 137.54 40.5105L137.545 40.513ZM88.2133 0.726107C90.6614 1.44784 92.0971 3.63783 93.9116 5.28218C94.8423 6.13536 96.0453 6.68843 97.2929 6.86205C98.5034 7.07782 99.7658 7.09271 100.909 7.55154C102.526 8.1567 102.88 9.69193 103.417 11.1528C103.721 11.867 104.13 12.5714 104.652 13.1493C106.434 15.1681 109.13 16.061 111.712 16.4702C116.561 17.2217 121.809 15.9841 126.319 18.3676C126.633 18.5313 126.93 18.7148 127.215 18.9132C125.564 17.8666 123.549 17.3681 121.586 17.435C120.14 17.5119 118.821 17.9608 117.564 18.0997C116.326 18.2584 115.051 18.0823 113.695 17.9063C112.321 17.7227 110.833 17.6781 109.447 17.9459C106.764 18.4172 104.291 19.625 101.645 19.9053C97.486 20.4311 94.5354 17.2441 93.2185 13.5982C92.2877 11.0982 92.2927 8.12941 90.7926 5.80549C89.2455 3.41213 86.4385 2.08523 83.6587 1.98602C81.3541 1.90418 79.1015 2.6011 77.1089 3.71966C80.1956 1.15268 84.2998 -0.476776 88.2084 0.726107H88.2133ZM60.1478 180.811H52.942C49.6721 153.79 55.6377 125.687 69.8313 102.5C71.371 102.661 72.98 102.619 74.6607 102.364L74.5716 101.788C75.193 102.651 75.8984 103.455 76.6633 104.196C63.2172 126.925 57.3135 154.489 60.1478 180.814V180.811ZM197.28 102.351C197.109 106.495 194.394 110.389 190.663 112.133C188.096 113.353 185.188 113.363 182.368 113.762C181.465 113.894 180.512 114.067 179.623 114.328C178.658 114.625 177.665 114.963 176.94 115.747C176.069 116.689 175.97 117.998 175.819 119.179C175.638 120.623 175.472 122.046 175.197 123.43C174.92 124.764 174.551 126.126 173.868 127.312C171.717 131.27 166.974 131.176 163.427 129.226C160.924 127.882 158.857 125.871 156.597 124.105C154.273 122.282 151.728 120.754 149.09 119.462C135.809 113.041 120.685 113.299 106.306 112.465C95.6097 111.781 81.7625 110.568 74.6063 101.585C74.6063 101.585 74.5766 101.607 74.5469 101.629L74.433 100.895C72.1681 101.238 69.8511 101.21 67.6555 100.645C64.3187 99.7891 61.4201 97.7082 59.1502 95.1437C53.697 88.8912 50.8676 80.9323 47.8799 73.2761C44.4763 64.3698 41.1593 55.3866 36.6245 46.9664C31.0524 36.3364 22.6461 27.1945 12.1952 21.2421C10.2075 20.0913 7.74699 18.7842 5.91522 17.941C4.80627 17.1548 3.73444 16.3065 2.82846 15.3194C-0.75338 11.5148 0.843223 8.14431 5.18747 6.22962C8.91288 4.63983 13.2051 4.3149 17.1484 5.21024C18.547 5.54259 19.8935 6.06592 21.0941 6.83477L21.2921 6.68348C25.223 3.68992 30.847 0.356573 35.5922 3.43446C38.2582 5.19539 39.7434 8.23358 40.8499 11.1428C42.0232 13.3651 43.3871 15.56 45.3922 17.1424C47.4987 18.8661 50.4023 19.0967 52.5682 17.3284C54.5807 15.7386 55.6129 13.3328 56.8902 11.2172C58.4026 8.70731 60.9943 6.08823 64.1256 7.38536C65.8683 8.03764 67.3461 9.35462 69.2249 9.68448C70.5244 9.93498 71.8537 9.38189 72.7721 8.46423C73.7028 7.58873 74.3711 6.51731 75.1731 5.59965C75.5568 5.16562 75.9702 4.74397 76.4083 4.3397C77.4455 3.73702 78.5495 3.24595 79.6931 2.9136C83.4111 1.72312 88.0648 2.71768 90.1589 6.20976C91.5328 8.50888 91.4288 11.4156 92.3051 13.9305C93.6863 18.1369 97.0355 21.6538 101.744 21.2347C104.845 21.0362 107.64 19.6696 110.655 19.3522C112.303 19.1811 113.92 19.4936 115.598 19.5456C116.301 19.568 117.039 19.5456 117.754 19.4117C119.17 19.1488 120.425 18.6627 121.68 18.4916C122.93 18.3328 124.254 18.4643 125.512 18.8214C126.769 19.1786 127.987 19.7664 128.982 20.6667C128.982 20.6667 128.995 20.6568 129.01 20.6419C131.302 23.5735 131.784 27.9633 129.859 31.2074C129.851 31.2074 129.841 31.2024 129.834 31.2024L129.819 31.2744L129.804 31.3463C131.208 31.6389 132.537 32.2664 133.668 33.1469C134.787 34.0298 135.73 35.1509 136.406 36.4133C136.817 39.2853 135.708 42.1276 134.337 44.6103C132.906 47.2219 131.19 49.6772 129.215 51.8995C126.906 54.526 124.294 56.9962 122.319 59.9303C120.878 62.1029 119.801 64.5806 119.601 67.2071C119.259 71.4184 120.846 75.7513 123.893 78.6952C126.935 81.6144 131.26 83.1075 135.45 82.7602C137.468 82.6238 139.448 81.8674 141.386 81.473C142.307 81.287 143.243 81.1878 144.164 81.3069C145.934 81.5301 147.837 82.6486 149.746 82.413C151.926 82.2816 153.887 81.2672 155.996 80.972C157.669 80.7116 159.432 81.3689 161.145 81.4185C162.462 81.3416 163.62 80.662 164.754 80.0717C165.801 79.5311 166.836 78.8912 167.927 78.4324C172.769 77.8098 177.744 78.1992 182.425 79.5831C186.473 80.6347 192.589 84.1863 191.557 89.1119C191.349 89.8957 191.012 90.8406 191.668 91.6194C191.955 91.9914 192.287 92.227 192.577 92.4478C193.131 92.8694 193.651 93.3134 194.121 93.8292C196.243 96.0986 197.426 99.2633 197.275 102.361L197.28 102.351Z" fill="var(--fill-0, #07543B)"/>
<path id="Vector_2" d="M194.905 93.0849C194.519 92.6682 194.098 92.2813 193.652 91.9341C193.296 91.6266 192.751 91.3017 192.506 90.9718C192.105 90.4485 192.469 89.9822 192.573 89.3274C193.135 86.9936 192.031 84.5953 190.412 82.9584C188.313 80.7932 185.561 79.4564 182.694 78.6702C177.068 77.0456 171.04 76.815 165.307 78.0129C162.973 78.4668 160.347 79.3448 158.317 77.7723C157.478 77.0977 156.908 76.19 156.057 75.4658C155.51 74.9499 154.883 74.5258 154.242 74.1414C149 71.1999 142.789 72.4871 137.123 71.3909C133.34 70.6741 129.355 68.8933 128.167 64.9151C127.664 63.2212 127.788 61.3933 128.303 59.6944C130.249 52.7226 137.962 48.1814 137.804 40.5003C137.618 36.1005 134.187 32.0454 129.865 31.1947C131.816 27.9482 131.343 23.5434 129.058 20.5895C129.08 20.5697 129.1 20.5523 129.1 20.5523C128.85 20.2522 128.578 19.9769 128.291 19.719C127.724 19.1584 127.08 18.6773 126.36 18.3003C121.857 15.8846 116.587 17.0925 111.741 16.3187C109.05 15.8846 106.225 14.8951 104.508 12.6703C103.953 11.9362 103.577 11.0805 103.297 10.205C102.653 7.97536 101.361 7.16682 99.1731 6.8816C97.9652 6.69559 96.7052 6.62864 95.5938 6.09789C95.0467 5.83747 94.5467 5.48281 94.0888 5.07854C93.1679 4.26752 92.3931 3.29528 91.4896 2.42474C90.596 1.54924 89.5143 0.825022 88.3113 0.433155C83.3878 -1.11199 78.1524 1.70053 74.8998 5.33646C74.0681 6.28388 73.3998 7.33548 72.5111 8.15889C71.667 8.98975 70.4887 9.49572 69.3006 9.2601C67.4738 8.91784 66.0207 7.60086 64.2904 6.95353C60.919 5.55472 58.1169 8.25068 56.4807 10.9417C55.2034 13.025 54.1935 15.3712 52.2503 16.8965C50.275 18.4962 47.6635 18.2705 45.7451 16.6808C43.8663 15.215 42.4405 12.8663 41.4132 10.8995C40.277 7.85632 38.7374 4.72883 35.9551 2.87366C31.0786 -0.370398 25.1576 2.83397 21.051 5.93419C19.89 5.24966 18.6226 4.77596 17.3305 4.4585C13.2066 3.50363 8.7732 3.8186 4.86215 5.46295C-0.145496 7.62318 -1.70497 11.7229 2.18134 15.9045C3.16653 16.9809 4.29034 17.8936 5.46613 18.7095C13.9789 22.7621 21.853 28.35 27.8508 35.6814C36.9254 46.738 41.6781 60.4905 46.6981 73.7148C49.6784 81.4827 52.5696 89.6722 58.1169 96.0661C61.0131 99.3573 64.3944 101.475 68.2609 102.252C52.6538 129 47.7229 161.773 54.8247 191.887C48.1883 161.615 53.686 128.871 69.8352 102.49C71.3749 102.651 72.9839 102.609 74.6647 102.353L74.5755 101.778C75.1969 102.641 75.9023 103.445 76.6672 104.186C60.7754 131.049 55.4163 164.668 62.5726 195.01C55.9163 164.648 61.4661 131.545 77.7267 105.124C85.6775 111.525 96.423 112.653 106.24 113.492C120.476 114.578 135.326 114.442 148.433 120.818C150.982 122.078 153.423 123.556 155.651 125.315C157.936 127.113 160.097 129.164 162.723 130.555C166.985 132.884 172.602 132.706 175.124 128.011C175.874 126.684 176.28 125.178 176.575 123.695C176.852 122.232 177.008 120.774 177.177 119.34C177.34 118.04 177.362 116.736 178.615 116.131C179.823 115.518 181.221 115.263 182.56 115.042C185.429 114.615 188.489 114.561 191.194 113.236C195.304 111.27 198.254 106.979 198.418 102.395C198.556 98.9753 197.247 95.5527 194.91 93.0799L194.905 93.0849ZM137.544 40.5127C137.653 45.7509 133.717 49.7365 130.88 53.742C128.627 56.9736 126.568 61.0287 127.694 65.0565C129.397 70.7609 136.13 72.2267 141.356 72.502C145.576 72.7401 150.099 72.6458 153.869 74.7862C154.463 75.1508 155.042 75.5476 155.544 76.0263C156.346 76.7158 156.968 77.6905 157.827 78.38C159.993 80.1583 163.05 79.315 165.471 78.8214C166.015 78.7123 166.562 78.6181 167.112 78.5337C166.248 78.8884 165.404 79.3175 164.572 79.6895C163.235 80.2624 161.916 81.0363 160.451 80.6965C159.463 80.5204 158.495 80.25 157.48 80.131C155.948 79.9177 154.341 80.3443 152.886 80.7262C151.467 81.1007 150.101 81.4455 148.663 81.2768C147.168 81.0486 145.935 80.2897 144.336 80.0566C141.299 79.5878 138.205 81.2148 135.346 81.3413C134.397 81.4008 133.444 81.3735 132.501 81.2471C125.615 80.3567 120.498 74.2902 121.001 67.3011C121.172 64.3993 122.523 61.7182 124.214 59.4067C127.172 55.3888 130.977 51.9488 133.427 47.5366C135.301 44.2255 137.254 40.3838 136.454 36.4948C137.103 37.7349 137.494 39.104 137.539 40.5103L137.544 40.5127ZM88.2123 0.725828C90.6604 1.44756 92.0961 3.63755 93.9105 5.2819C94.8413 6.13508 96.0443 6.68816 97.2919 6.86177C98.5023 7.07754 99.7647 7.09243 100.908 7.55126C102.525 8.15642 102.879 9.69165 103.416 11.1525C103.72 11.8668 104.129 12.5711 104.651 13.149C106.433 15.1679 109.129 16.0607 111.711 16.4699C116.56 17.2214 121.808 15.9838 126.318 18.3673C126.632 18.531 126.929 18.7145 127.214 18.9129C125.563 17.8663 123.548 17.3678 121.585 17.4347C120.139 17.5116 118.82 17.9605 117.563 18.0994C116.325 18.2582 115.05 18.0821 113.694 17.906C112.32 17.7224 110.832 17.6778 109.446 17.9457C106.763 18.4169 104.29 19.6247 101.644 19.905C97.4849 20.4308 94.5343 17.2438 93.2174 13.5979C92.2867 11.0979 92.2917 8.12913 90.7916 5.80521C89.2445 3.41185 86.4374 2.08495 83.6576 1.98574C81.3531 1.9039 79.1005 2.60082 77.1078 3.71938C80.1946 1.1524 84.2987 -0.477054 88.2073 0.725828H88.2123ZM197.279 102.351C197.108 106.495 194.393 110.389 190.662 112.133C188.095 113.353 185.187 113.363 182.367 113.762C181.464 113.894 180.511 114.067 179.622 114.328C178.657 114.625 177.664 114.962 176.939 115.746C176.068 116.689 175.969 117.998 175.818 119.179C175.637 120.622 175.471 122.046 175.196 123.43C174.919 124.764 174.55 126.126 173.867 127.311C171.716 131.27 166.973 131.175 163.426 129.226C160.923 127.882 158.856 125.87 156.596 124.104C154.272 122.281 151.727 120.754 149.089 119.462C135.808 113.04 120.684 113.298 106.305 112.465C95.6086 111.78 81.7615 110.568 74.6052 101.584C74.6052 101.584 74.5755 101.607 74.5458 101.629L74.432 100.895C72.167 101.237 69.8501 101.21 67.6545 100.644C64.3177 99.7888 61.419 97.708 59.1491 95.1435C53.6959 88.891 50.8666 80.9321 47.8788 73.2758C44.4752 64.3695 41.1583 55.3863 36.6234 46.9661C31.0514 36.3361 22.6451 27.1942 12.1941 21.2418C10.2064 20.091 7.74593 18.784 5.91417 17.9407C4.80521 17.1545 3.73338 16.3063 2.8274 15.3191C-0.754434 11.5146 0.84217 8.14403 5.18642 6.22934C8.91182 4.63955 13.2041 4.31462 17.1473 5.20997C18.5459 5.54231 19.8925 6.06564 21.093 6.83449L21.2911 6.6832C25.2219 3.68964 30.8459 0.356294 35.5912 3.43419C38.2571 5.19511 39.7424 8.2333 40.8488 11.1425C42.0222 13.3648 43.3861 15.5597 45.3911 17.1421C47.4976 18.8658 50.4012 19.0965 52.5672 17.3281C54.5796 15.7383 55.6119 13.3325 56.8891 11.217C58.4016 8.70703 60.9933 6.08795 64.1246 7.38508C65.8672 8.03737 67.345 9.35434 69.2238 9.6842C70.5234 9.9347 71.8527 9.38161 72.771 8.46395C73.7017 7.58845 74.3701 6.51703 75.1721 5.59937C75.5558 5.16534 75.9692 4.74369 76.4073 4.33942C77.4445 3.73674 78.5485 3.24567 79.6921 2.91333C83.4101 1.72284 88.0638 2.7174 90.1579 6.20948C91.5317 8.5086 91.4278 11.4154 92.304 13.9303C93.6853 18.1366 97.0344 21.6535 101.743 21.2344C104.844 21.036 107.639 19.6694 110.654 19.3519C112.302 19.1808 113.919 19.4933 115.597 19.5454C116.3 19.5677 117.038 19.5454 117.753 19.4114C119.169 19.1485 120.424 18.6624 121.679 18.4913C122.929 18.3326 124.253 18.464 125.511 18.8211C126.768 19.1783 127.986 19.7661 128.981 20.6664C128.981 20.6664 128.994 20.6565 129.009 20.6416C131.301 23.5732 131.783 27.9631 129.858 31.2071C129.85 31.2071 129.84 31.2022 129.833 31.2022L129.818 31.2741L129.803 31.346C131.207 31.6387 132.536 32.2662 133.667 33.1466C134.786 34.0296 135.729 35.1506 136.405 36.413C136.816 39.285 135.707 42.1273 134.336 44.61C132.905 47.2216 131.189 49.6769 129.214 51.8992C126.905 54.5257 124.293 56.9959 122.318 59.93C120.877 62.1026 119.8 64.5803 119.6 67.2068C119.258 71.4181 120.845 75.751 123.892 78.695C126.934 81.6141 131.259 83.1072 135.449 82.76C137.467 82.6235 139.447 81.8671 141.385 81.4727C142.306 81.2867 143.242 81.1875 144.163 81.3066C145.933 81.5298 147.836 82.6483 149.745 82.4127C151.925 82.2813 153.886 81.2669 155.995 80.9718C157.668 80.7113 159.431 81.3686 161.144 81.4182C162.461 81.3413 163.619 80.6617 164.753 80.0715C165.8 79.5308 166.834 78.8909 167.926 78.4321C172.768 77.8096 177.743 78.1989 182.424 79.5828C186.471 80.6344 192.588 84.1861 191.556 89.1117C191.348 89.8954 191.011 90.8403 191.667 91.6191C191.954 91.9911 192.286 92.2268 192.576 92.4475C193.13 92.8691 193.65 93.3131 194.12 93.829C196.242 96.0983 197.425 99.263 197.274 102.361L197.279 102.351Z" fill="var(--fill-0, #F8FFCF)"/>
</g>
</svg>
