<svg preserveAspectRatio="none" width="100%" height="100%" overflow="visible" style="display: block;" viewBox="0 0 192.993 338.005" fill="none" xmlns="http://www.w3.org/2000/svg">
<g id="Group">
<path id="Vector" d="M183.501 6.57978C184.847 8.13485 186.231 9.76432 186.823 11.7435C186.573 13.301 185.808 14.7867 185.343 16.3244C184.404 19.3576 184.471 22.5843 184.798 25.7019C184.981 27.7232 185.471 29.8115 184.714 31.7535C184.35 32.6712 183.696 33.5268 182.756 33.9435C183.011 32.1751 182.736 30.2952 182.305 28.5789C181.823 26.6915 181.038 24.9008 180.214 23.1498C179.07 20.7391 177.907 18.3432 176.738 15.9474C177.431 13.0406 179.248 10.553 181.37 8.49944C182.055 7.83723 182.768 7.19982 183.498 6.57978H183.501ZM175.679 41.193C175.649 41.2054 175.622 41.2154 175.622 41.2178C175.622 41.2178 175.622 41.2203 175.622 41.2228C173.877 42.2397 171.275 41.2749 170.015 39.8786C168.644 38.3012 168.042 36.2153 167.802 34.1667C167.067 27.257 171.072 20.9921 175.887 16.3591C176.652 17.8844 177.431 19.4047 178.204 20.9301C180.315 25.1166 182.927 29.4817 182.471 34.3403C182.362 35.1811 182.107 35.9996 181.729 36.7585C179.127 37.1008 176.459 38.569 175.619 41.1732L175.679 41.193ZM178.983 2.02371C179.209 1.76329 179.402 1.46319 179.53 1.13829C181.226 2.27172 182.501 3.95576 183.253 5.85557C181.84 6.98405 180.436 8.2787 179.285 9.73704C178.709 7.76034 177.59 5.97214 176.154 4.49892C176.921 3.49445 178.157 3.0133 178.981 2.02371H178.983ZM166.696 20.749C166.73 19.5486 166.995 18.1671 167.208 16.9742C167.072 17.1552 166.938 17.3363 166.802 17.5173C167.277 15.873 168.317 14.4469 169.322 13.0704C170.802 11.0565 172.399 9.13188 174.109 7.31391C174.751 6.62939 175.505 5.93494 175.83 5.02968C177.275 6.36401 178.424 8.0034 179.241 9.79656C177.872 11.5476 176.869 13.5317 176.647 15.7515C176.582 15.62 176.52 15.4886 176.456 15.3571L176.171 14.7817C173.901 16.8675 171.77 19.1443 170.122 21.7956C169.065 23.4598 168.218 25.2852 167.664 27.1875C166.951 25.1215 166.609 22.9315 166.698 20.749H166.696ZM174.936 41.7139C174.857 57.2224 165.317 68.1351 153.933 77.4035C142.719 86.5628 130.608 94.735 120.147 104.839C114.879 109.864 109.995 115.31 105.686 121.186C83.1698 151.95 64.3324 185.321 48.2822 219.879C39.1853 239.602 31.0067 259.942 23.9519 280.487C18.1918 297.325 13.1346 314.481 8.86961 331.77H1.72573C13.1495 293.667 25.5287 255.648 42.272 219.527C44.037 215.571 48.0322 207.493 49.9308 203.543C51.9804 199.577 54.7701 194.205 56.8271 190.224C59.1391 186.05 62.1145 180.663 64.419 176.509C66.533 172.965 71.0035 165.286 73.1026 161.848C77.578 154.656 83.051 145.99 87.8582 138.929C91.2741 133.669 96.6259 126.223 100.284 121.01C108.488 109.006 118.993 98.8173 130.662 90.2211C148.678 76.6049 169.483 67.2572 172.26 42.0636C172.26 42.0636 171.877 42.0165 171.498 41.9718C171.637 41.8801 171.77 41.7784 171.894 41.6618C171.736 41.7784 171.565 41.8776 171.391 41.9594C171.07 41.9197 170.785 41.8875 170.785 41.885C170.775 41.9842 170.763 42.0834 170.75 42.1826C169.963 42.3686 169.107 42.2769 168.362 41.9793C166.084 40.9872 164.824 38.5442 163.973 36.322C161.95 30.8879 163.176 24.8016 166.089 19.9057C166.03 21.7411 166.287 23.5888 166.862 25.3299C167.077 25.9896 167.342 26.627 167.649 27.2446C166.993 29.5189 166.755 31.9023 167.092 34.261C167.409 36.4063 168.159 38.5988 169.696 40.1836C171.117 41.5923 173.874 42.448 175.627 41.2302C175.684 41.4014 175.751 41.5675 175.82 41.7337C175.409 41.7263 174.936 41.7164 174.936 41.7164V41.7139ZM189.838 36.9867C189.61 39.4941 189.038 42.0115 187.187 43.7625C185.734 45.0968 183.682 45.7888 181.716 45.5333C180.139 45.2828 178.746 44.39 177.538 43.3483C177.132 42.9837 176.751 42.5894 176.409 42.1603C176.411 42.0214 176.419 41.885 176.421 41.7461C176.421 41.7461 176.283 41.7436 176.095 41.7387C175.973 41.5626 175.857 41.3815 175.748 41.193C176.778 38.5889 179.634 37.3215 182.288 37.2471C183.667 37.1727 185.006 37.3934 186.39 37.4802C187.536 37.5546 188.776 37.5001 189.838 36.9916V36.9867ZM186.64 36.7659C185.182 36.7635 183.699 36.5328 182.248 36.7039C182.087 36.7163 181.924 36.7337 181.763 36.7535C182.303 35.8855 182.617 34.9356 182.761 33.9509C183.751 33.6112 184.503 32.7902 184.949 31.8577C185.875 29.9256 185.501 27.7009 185.402 25.6573C185.229 22.629 185.248 19.4816 186.199 16.6022C186.692 15.124 187.437 13.6706 187.744 12.1081C189.942 15.9523 192.028 19.9702 192.175 24.4544C192.254 26.8825 191.922 29.4073 190.915 31.6345C190.385 32.7406 189.687 33.7749 188.892 34.7248C188.229 35.4887 187.499 36.2228 186.642 36.7684L186.64 36.7659Z" fill="var(--fill-0, #054A31)" fill-opacity="0.8"/>
<path id="Vector_2" d="M191.377 31.8677C193.1 28.4302 193.382 24.3379 192.521 20.6177C191.503 16.2451 189.033 12.3835 186.808 8.57395L186.907 10.5407C186.914 10.7416 186.907 10.94 186.897 11.1384C186.399 9.05014 184.924 7.22722 183.595 5.58783C183.505 5.65727 183.416 5.72672 183.33 5.79864C183.028 3.30111 181.28 1.09872 179.045 0L178.966 0.513397C178.651 2.16271 176.716 2.9142 176.072 4.40726C175.869 4.20141 175.661 4.00299 175.446 3.81202L175.349 4.4023C175.25 5.01243 174.827 5.5531 174.347 6.04914C172.824 7.56948 171.359 9.20888 170.079 10.9475C168.646 13.011 166.891 15.2258 166.609 17.7903C165.735 18.9758 164.871 20.2208 164.237 21.5229C161.881 26.0393 161.24 31.5701 163.104 36.3717C162.92 36.3494 162.73 36.2973 162.547 36.208C161 35.4441 160.784 33.4377 160.331 31.8702L159.727 32.7159C157.4 35.8608 156.796 40.6971 159.633 43.7155C160.707 44.8886 162.185 45.7195 163.784 45.8484C166.067 46.0419 168.468 44.7472 169.287 42.5622C168.903 43.4352 168.267 44.1818 167.482 44.6976C162.98 47.5424 157.895 43.1996 158.467 38.2914C158.601 36.8355 159.121 35.4292 159.895 34.1941C160.076 34.8588 160.316 35.5086 160.72 36.0939C161.371 37.024 162.455 37.7184 163.643 37.587C164.346 39.0304 165.255 40.3871 166.507 41.404C167.636 42.3564 169.339 42.8152 170.743 42.344C168.396 62.4879 154.153 72.0837 138.798 82.8427C123.8 93.1304 109.653 105.174 99.4647 120.41C95.8581 125.598 90.4841 133.138 87.0978 138.406C82.3303 145.467 76.8597 154.217 72.419 161.419C70.1466 165.214 65.7009 172.836 63.4582 176.734C60.3887 182.382 56.6361 188.999 53.7523 194.76C52.626 196.953 50.4948 201.124 49.3957 203.265C47.5045 207.233 43.5341 215.366 41.7964 219.299C24.355 257.343 11.7431 297.467 0 337.569C11.9089 297.526 24.6842 257.479 42.2815 219.522C44.0464 215.567 48.0417 207.489 49.9403 203.538C51.9899 199.572 54.7796 194.2 56.8366 190.219C59.1486 186.045 62.124 180.658 64.4285 176.504C66.5425 172.96 71.013 165.281 73.1121 161.844C77.5875 154.651 83.0605 145.985 87.8676 138.924C91.2836 133.664 96.6354 126.218 100.294 121.005C108.497 109.001 119.003 98.8125 130.671 90.2162C148.687 76.6001 169.492 67.2523 172.27 42.0587C172.27 42.0587 171.886 42.0116 171.507 41.967C171.646 41.8752 171.78 41.7735 171.903 41.657C171.745 41.7735 171.574 41.8727 171.401 41.9546C171.079 41.9149 170.794 41.8827 170.794 41.8802C170.785 41.9794 170.772 42.0786 170.76 42.1778C169.973 42.3638 169.116 42.272 168.371 41.9744C166.094 40.9823 164.834 38.5394 163.982 36.3171C161.96 30.8831 163.185 24.7967 166.099 19.9009C166.039 21.7362 166.297 23.584 166.871 25.325C167.086 25.9848 167.351 26.6222 167.658 27.2397C167.002 29.514 166.765 31.8975 167.101 34.2561C167.418 36.4015 168.168 38.5939 169.705 40.1788C171.126 41.5875 173.884 42.4432 175.636 41.2254C175.693 41.3965 175.76 41.5627 175.829 41.7289C175.418 41.7214 174.946 41.7115 174.946 41.7115C174.866 57.22 165.326 68.1328 153.942 77.4012C142.729 86.5604 130.617 94.7326 120.156 104.837C114.889 109.862 110.005 115.308 105.695 121.184C83.1793 151.948 64.3419 185.318 48.2917 219.877C39.1948 239.599 31.0162 259.939 23.9614 280.485C17.5107 299.344 11.9362 318.605 7.37655 338.005C12.0203 318.625 17.674 299.399 24.204 280.569C30.1572 263.503 36.8803 246.499 44.2643 230.006C61.3195 191.988 81.7783 155.346 106.517 121.794C119.354 104.003 137.808 91.8631 154.769 78.4081C166.274 69.1323 175.819 58.2121 176.401 42.8226C177.414 44.4422 179.015 45.7443 180.77 46.4238C183.268 47.2919 186.209 46.523 188.063 44.6555C190.238 42.4332 190.714 39.1569 190.783 36.1882L190.808 35.2234C190.102 35.836 189.377 36.461 188.404 36.6197C187.862 36.7264 187.313 36.7636 186.761 36.7685C188.731 35.6996 190.293 33.7923 191.389 31.8727L191.377 31.8677ZM184.805 25.7045C184.988 27.7258 185.478 29.8141 184.721 31.7561C184.357 32.6738 183.703 33.5294 182.763 33.9461C183.018 32.1777 182.743 30.2978 182.312 28.5815C181.83 26.6941 181.045 24.9034 180.221 23.1524C179.077 20.7417 177.914 18.3458 176.745 15.95C177.438 13.0432 179.255 10.5556 181.377 8.50203C182.062 7.83982 182.775 7.20242 183.505 6.58238C184.852 8.13744 186.236 9.76692 186.827 11.7461C186.577 13.3036 185.812 14.7893 185.347 16.327C184.409 19.3602 184.476 22.5869 184.803 25.7045H184.805ZM178.985 2.02382C179.211 1.7634 179.404 1.4633 179.532 1.1384C181.228 2.27184 182.503 3.95587 183.255 5.85568C181.842 6.98416 180.438 8.27881 179.287 9.73715C178.711 7.76045 177.592 5.97225 176.156 4.49903C176.923 3.49456 178.159 3.01341 178.983 2.02382H178.985ZM166.698 20.7491C166.732 19.5487 166.997 18.1673 167.21 16.9743C167.074 17.1553 166.94 17.3364 166.804 17.5174C167.279 15.8731 168.319 14.447 169.324 13.0705C170.804 11.0566 172.401 9.13199 174.111 7.31403C174.753 6.6295 175.508 5.93505 175.832 5.02979C177.277 6.36412 178.426 8.00351 179.243 9.79668C177.874 11.5477 176.871 13.5318 176.649 15.7516C176.584 15.6201 176.522 15.4887 176.458 15.3572L176.173 14.7818C173.904 16.8676 171.772 19.1444 170.124 21.7957C169.067 23.4599 168.22 25.2853 167.666 27.1876C166.953 25.1217 166.611 22.9317 166.7 20.7491H166.698ZM170.02 39.8787C168.648 38.3013 168.047 36.2155 167.807 34.1668C167.072 27.2571 171.077 20.9922 175.891 16.3592C176.656 17.8845 177.436 19.4049 178.208 20.9302C180.32 25.1167 182.931 29.4818 182.476 34.3404C182.367 35.1812 182.112 35.9997 181.733 36.7586C179.131 37.1009 176.463 38.5691 175.624 41.1733L175.683 41.1932C175.654 41.2056 175.626 41.2155 175.626 41.218C175.626 41.218 175.626 41.2204 175.626 41.2229C173.881 42.2398 171.28 41.275 170.02 39.8787ZM189.84 36.9868C189.612 39.4942 189.04 42.0116 187.189 43.7626C185.736 45.097 183.684 45.7889 181.718 45.5335C180.141 45.283 178.748 44.3901 177.54 43.3484C177.134 42.9838 176.753 42.5895 176.411 42.1604C176.414 42.0215 176.421 41.8851 176.423 41.7462C176.423 41.7462 176.285 41.7438 176.097 41.7388C175.975 41.5627 175.859 41.3817 175.75 41.1932C176.78 38.589 179.636 37.3216 182.29 37.2472C183.669 37.1728 185.008 37.3935 186.392 37.4803C187.538 37.5547 188.778 37.5002 189.84 36.9917V36.9868ZM186.642 36.7661C185.184 36.7636 183.701 36.5329 182.25 36.704C182.09 36.7164 181.926 36.7338 181.765 36.7537C182.305 35.8856 182.619 34.9357 182.763 33.9511C183.753 33.6113 184.505 32.7903 184.951 31.8578C185.877 29.9257 185.503 27.701 185.404 25.6574C185.231 22.6291 185.251 19.4817 186.201 16.6023C186.694 15.1241 187.439 13.6707 187.746 12.1082C189.944 15.9525 192.031 19.9703 192.177 24.4545C192.256 26.8826 191.924 29.4074 190.917 31.6346C190.387 32.7407 189.689 33.775 188.894 34.7249C188.231 35.4888 187.501 36.2229 186.644 36.7685L186.642 36.7661Z" fill="var(--fill-0, #F8FFCF)"/>
<g id="Group_2">
<path id="Vector_3" d="M176.47 16.0911C176.497 16.0564 176.525 16.0217 176.549 15.987L175.953 15.543C172.435 20.4017 169.472 26.2003 169.938 32.366C170.081 34.3824 170.599 36.3789 171.544 38.1547C170.653 36.3492 170.202 34.3502 170.121 32.3536C169.896 27.2668 172.007 22.5297 174.814 18.3779C172.406 24.8288 171.806 31.9146 173.111 38.6136C172.012 31.7658 172.896 24.6502 175.567 18.3233C176.015 24.9106 175.777 31.555 174.851 38.1151C176.015 31.5153 176.482 24.7792 176.242 18.0579C176.824 20.1437 177.606 22.9265 177.931 24.2633C179.032 28.6755 179.77 33.4672 178.099 37.8348C180.945 30.8854 177.987 23.0356 176.468 16.0887L176.47 16.0911Z" fill="var(--fill-0, #F8FFCF)"/>
<path id="Vector_4" d="M165.667 19.3874C163.638 25.5357 163.846 32.3364 166.19 38.2739C164.511 33.4872 164.227 28.2639 165.281 23.3631C165.18 26.1037 165.469 28.8443 166.138 31.4782C165.479 27.8869 165.526 24.194 166.257 20.6671L166.019 20.6275C166.128 20.2951 166.242 19.9628 166.366 19.6354L165.665 19.3874H165.667Z" fill="var(--fill-0, #F8FFCF)"/>
<path id="Vector_5" d="M161.655 42.5074C159.814 40.6349 159.539 38.435 159.863 36.1383C160.252 37.49 160.955 38.7599 162.002 39.6924C162.534 40.1612 163.155 40.5233 163.821 40.7266C161.863 39.933 160.757 37.9191 160.376 35.9275C160.239 35.2678 160.18 34.5932 160.393 34.0476L160.296 34.0153C160.321 33.9136 160.348 33.8144 160.376 33.7127L159.65 33.554C159.455 34.6031 159.272 35.6721 159.23 36.7609C159.086 38.9608 159.871 41.1656 161.527 42.6413C162.292 43.3531 163.329 43.9906 164.408 43.7946C163.329 43.9261 162.366 43.2515 161.655 42.5099V42.5074Z" fill="var(--fill-0, #F8FFCF)"/>
<path id="Vector_6" d="M189.937 36.1484C189.803 36.3939 189.667 36.6642 189.528 36.9495L189.32 36.7535C189.32 36.7535 189.308 36.7659 189.303 36.7734L189.243 36.6742C188.461 37.195 187.58 37.5794 186.657 37.7977C185.731 38.0184 184.751 38.0631 183.765 38.1647C181.827 38.3706 179.745 38.7947 178.275 40.1638C180.696 38.1846 183.879 38.7327 186.768 38.3458C187.201 38.2714 187.627 38.1623 188.045 38.0209C186.065 39.7198 183.535 40.8284 180.874 41.0839C183.785 41.0244 186.699 39.9381 189.003 38.0358C188.446 39.1742 187.823 40.3597 187.1 41.0963C186.451 41.7783 185.659 42.3265 184.808 42.763C183.956 43.202 183.05 43.5393 182.129 43.827C184.008 43.3657 185.904 42.7035 187.36 41.3592C188.662 40.1836 189.669 37.9713 190.595 36.4981L189.941 36.1434L189.937 36.1484Z" fill="var(--fill-0, #F8FFCF)"/>
<path id="Vector_7" d="M187.456 23.3729C187.29 20.5802 188.092 17.8396 188.162 15.0717C188.899 18.0926 189.696 21.3987 189.954 23.9805C190.412 28.1968 189.516 32.9711 186.077 35.7737C189.622 33.0555 190.672 28.2167 190.325 23.9483C190.05 20.1338 188.713 14.913 187.986 11.1184L187.26 11.2796C187.362 11.7384 187.476 12.222 187.595 12.723L187.27 12.7925C187.458 13.6258 187.525 14.4939 187.515 15.3669C187.439 18.0281 186.862 20.7067 187.09 23.3828C187.231 26.0465 187.602 28.74 186.862 31.3417C186.619 32.1973 186.275 33.0232 185.832 33.7995C187.86 30.672 187.577 26.917 187.461 23.3704L187.456 23.3729Z" fill="var(--fill-0, #F8FFCF)"/>
<path id="Vector_8" d="M182.891 7.55188C181.26 12.1055 180.552 16.9616 180.807 21.7459C180.789 17.2121 181.641 12.6982 183.272 8.51419C183.762 12.7206 183.757 16.9964 183.25 21.2275C183.985 16.9567 184.205 12.5866 183.908 8.23641C183.99 8.3877 184.069 8.54147 184.141 8.70268C184.428 9.30784 184.673 9.93533 184.861 10.5827C185.245 11.8773 185.423 13.2389 185.389 14.608C185.629 12.5618 185.376 10.4289 184.653 8.48691C184.423 7.8247 184.052 7.20218 184.032 6.65406C184.032 6.65406 183.98 6.65902 183.903 6.66646L183.431 6.09602C180.255 8.90358 178.46 13.0951 178.574 17.2221C178.693 13.5589 180.317 10.0271 182.891 7.55437V7.55188Z" fill="var(--fill-0, #F8FFCF)"/>
<path id="Vector_9" d="M173.012 16.7733C174.933 13.8318 176.114 10.3794 176.406 6.82281C176.995 8.15466 177.364 9.59813 177.465 11.0788C177.554 9.04257 177.141 6.9617 176.262 5.06189C176.267 5.03957 176.272 5.01725 176.277 4.99245C176.277 4.99245 176.233 4.98749 176.228 4.98501C176.168 4.85852 176.114 4.72955 176.049 4.60554L175.552 4.89572H175.542C175.542 4.89572 175.542 4.90068 175.542 4.90316L175.408 4.98005C175.443 5.03213 175.473 5.0867 175.505 5.1363C175.294 6.55248 174.638 7.90169 173.834 9.13929C172.98 10.4563 171.955 11.6815 171.057 13.0108C169.252 15.6572 168.2 18.807 168.044 21.999C168.856 13.6358 173.851 11.617 175.74 6.85258C175.666 10.2876 174.732 13.7326 173.012 16.7708V16.7733Z" fill="var(--fill-0, #F8FFCF)"/>
<path id="Vector_10" d="M179.707 7.99341C180.021 6.24489 180.199 4.46164 180.239 2.66848C181.004 3.83664 181.4 5.2925 181.276 6.75084C181.66 5.00728 181.301 3.06531 180.246 1.50528C180.246 1.49288 180.246 1.48048 180.246 1.46808H180.222C180.187 1.41847 180.152 1.36639 180.118 1.31679L179.917 1.48296C179.917 1.48296 179.925 1.46808 179.927 1.46064L179.217 1.24486C178.954 2.55687 178.288 3.8168 177.627 5.04697C178.343 4.1417 179.053 3.23148 179.585 2.20221C179.791 4.11442 179.833 6.05639 179.709 7.99341H179.707Z" fill="var(--fill-0, #F8FFCF)"/>
</g>
</g>
</svg>
