<svg preserveAspectRatio="none" width="100%" height="100%" overflow="visible" style="display: block;" viewBox="0 0 310.047 363.028" fill="none" xmlns="http://www.w3.org/2000/svg">
<g id="Group">
<path id="Vector" d="M230.253 23.9964C231.573 23.4682 232.848 22.7836 234.001 21.928C235.165 21.0798 236.172 20.0679 237.236 19.1675C237.764 18.7137 238.35 18.2325 238.761 17.5505C239.172 16.8585 239.284 16.107 239.472 15.4547C239.816 14.1229 240.38 12.8506 241.083 11.6601C243.004 8.41601 245.799 5.8664 248.593 3.35398C247.549 4.6784 246.816 6.27314 246.479 7.90262C245.732 10.9607 247.026 14.2171 245.982 17.1859C245.519 18.4508 244.591 19.4949 243.591 20.4275C241.558 22.2578 239.442 24.1229 236.952 25.2886C232.417 27.3744 230.489 25.0158 227.825 24.8347C228.644 24.5917 229.456 24.3189 230.253 24.0014V23.9964ZM114.59 68.3717C113.387 68.1261 112.1 68.1435 110.902 68.4659C111.1 68.2204 111.288 67.9723 111.471 67.7367C112.075 66.8339 113.387 65.7972 114.444 66.0006C115.375 66.2263 115.347 67.4341 115.714 68.1881C115.813 68.4485 115.924 68.704 116.041 68.957C115.62 68.6445 115.063 68.4709 114.593 68.3717H114.59ZM140.029 80.5319C137.626 81.6852 134.868 82.3226 132.229 81.7447C129.571 81.1743 127.346 79.4407 125.254 77.7417C121.585 74.7432 117.664 71.5835 116.288 66.8935C115.645 64.262 113.011 64.7208 111.419 66.2982C110.446 67.258 109.855 68.5527 108.667 69.2124C107.117 70.073 105.931 68.2824 104.981 67.3077C103.203 65.259 101.82 62.8632 100.946 60.2937C100.327 58.4907 99.9186 56.5884 100.738 54.8547C102.354 51.7421 106.26 51.0005 109.469 51.7223C110.788 51.9827 112.087 52.4068 113.385 52.8681C116.14 53.942 119.726 54.9366 121.526 51.7123C122.848 49.2148 122.219 46.1617 123.86 43.8304C125.368 41.5908 128.185 40.254 130.838 40.6607L131.034 40.3432C132.819 37.4514 135.249 33.7807 139.037 34.1379C141.205 34.3859 142.935 35.7971 144.576 37.2306L157.973 49.562C157.973 49.562 158.56 50.1027 158.671 50.2044C158.718 50.2813 158.763 50.3607 158.812 50.4351C160.911 53.5303 165.154 53.2252 168.1 54.7679C171.367 56.5264 173.8 60.7625 177.962 60.4673C176.986 60.5194 176.023 60.2516 175.164 59.82C174.301 59.3885 173.521 58.8056 172.798 58.1657C171.352 56.886 170.078 55.3681 168.345 54.3364C167.481 53.823 166.53 53.4857 165.595 53.198C163.137 52.4787 159.842 51.6553 159.166 48.8527C161.075 43.2426 167.652 39.6562 173.385 41.1419C173.427 41.6503 173.511 42.1662 173.677 42.6349C174.395 44.8051 176.169 46.4097 177.811 47.8358C178.897 48.7907 179.989 49.7406 180.813 50.9162C181.727 52.0546 181.858 53.6345 182.798 54.753C181.922 53.5749 181.887 52 181.021 50.7798C178.892 47.3373 174.112 45.1027 174.33 40.6037C178.679 35.3159 186.591 33.6914 192.93 35.9757C195.096 36.7495 197.089 37.9995 198.656 39.6612L199.022 40.0506C203.166 37.8432 208.109 37.1661 212.683 38.2004C212.409 39.2073 212.25 40.244 212.22 41.2857C212.126 43.3269 212.344 45.5342 212.495 47.568C212.532 48.2451 212.604 48.9296 212.56 49.6042C212.453 50.9063 211.735 52.1315 210.671 52.883C209.876 53.4485 208.899 53.756 207.926 53.7188C207.651 53.7188 207.171 53.6791 206.886 53.6742C205.48 53.632 204.079 53.7114 202.693 53.8254C198.673 54.19 194.244 54.5893 190.244 54.9787C186.786 55.3706 183.031 56.0626 180.467 58.6419C179.472 59.6191 178.813 60.9287 177.927 61.9703C177.781 62.1439 177.627 62.3052 177.466 62.4515C175.729 63.3915 173.466 63.0194 171.632 62.33C169.29 61.4123 166.793 60.5542 164.253 60.3037C159.139 59.6886 154.01 60.7228 149.116 62.0993C146.661 62.764 144.297 63.7015 141.844 64.0561C136.903 64.7779 131.707 62.7392 128.477 58.9272C126.808 57.0869 125.152 54.8646 122.6 54.2595L122.578 54.3562C125.086 55.0259 126.635 57.2506 128.254 59.1256C132.603 64.4257 139.259 65.9783 145.678 63.885C151.654 62.0919 157.938 60.703 164.147 61.2908C165.379 61.3974 166.61 61.6057 167.808 61.9083C169.627 62.32 171.417 63.1558 173.308 63.4262C174.283 63.5775 175.353 63.5403 176.32 63.2451C174.008 64.4282 170.969 63.8999 168.389 64.0264C167.733 64.0487 166.951 64.1182 166.275 64.205C161.382 64.9068 156.847 67.2556 152.953 70.2293C148.624 73.4535 144.94 78.1832 140.032 80.5344L140.029 80.5319ZM206.228 117.05C198.237 136.899 185.808 154.448 173.617 171.919C149.351 207.249 116.528 235.369 85.0714 264.042C70.5683 277.195 56.0553 290.392 42.5993 304.638C40.0225 307.386 37.4828 310.173 35.0024 313.016V307.658H28.0665C28.3462 307.316 28.6111 306.996 28.8438 306.711C63.0111 266.279 108.993 238.154 144.336 198.863C145.48 197.566 148.344 194.31 149.485 193.013C151.3 190.8 153.508 188.241 155.268 185.994C157.075 183.692 159.919 180.069 161.567 177.725C179.434 152.492 199.099 126.737 205.443 95.7726C205.443 95.7726 205.208 95.7254 204.928 95.6709C206.334 95.6312 208.354 95.6362 210.012 95.4873C209.913 95.6238 209.844 95.723 209.844 95.723C210.609 96.2537 211.426 96.6753 212.275 97.0127C210.909 103.86 208.829 110.562 206.225 117.05H206.228ZM305.405 65.9336C304.284 66.5214 303.328 65.9262 302.435 65.2491C302.205 65.0755 301.979 64.8969 301.757 64.7308C301.118 64.2397 300.254 63.5924 299.798 63.4411C299.41 63.3121 298.687 63.1782 298.066 63.1782C298.061 63.1782 298.058 63.1782 298.056 63.1782C279.431 60.636 262.807 66.1197 249.512 79.7804C246.974 82.2705 243.952 84.5969 241.214 86.896C237.38 90.3658 232.848 93.032 228.097 95.031C224.337 96.6257 220.253 97.3847 216.213 96.6257C214.275 96.281 212.31 95.6585 210.718 94.5151C210.718 94.5151 210.5 94.8177 210.285 95.1203C210.22 95.2096 210.156 95.2989 210.097 95.3832C208.495 95.4551 205.698 95.5667 204.319 95.5518C204.131 95.5146 203.992 95.4873 203.992 95.4873C203.987 95.5072 203.985 95.527 203.98 95.5494C200.557 95.4774 197.146 94.9194 193.883 93.8827C184.952 91.0875 180.222 86.1073 173.852 79.706C172.867 78.6718 171.538 77.6351 170.016 77.5805C168.929 77.4912 167.904 77.6078 166.855 77.5904C161.218 77.5458 155.602 75.9907 150.755 73.1212C153.671 70.512 156.909 68.2179 160.5 66.6653C162.684 65.7327 165.038 65.073 167.404 64.8548C170.491 64.5299 173.877 65.3558 176.778 63.8528C178.085 63.1831 178.952 61.9058 179.729 60.7327C181.165 58.379 183.64 57.0025 186.271 56.3627C187.593 56.0278 188.955 55.8195 190.326 55.6633C194.304 55.2639 198.742 54.8448 202.752 54.4728C204.129 54.3562 205.505 54.2744 206.876 54.3091C207.188 54.3041 207.601 54.3636 207.916 54.3488C209.022 54.386 210.136 54.0338 211.035 53.3865C212.238 52.5333 213.05 51.1369 213.166 49.6588C213.213 48.947 213.136 48.2376 213.097 47.5283C212.946 45.5318 212.718 43.2971 212.805 41.3155C212.881 38.5674 213.837 35.9211 215.557 33.7782C218.119 30.5689 221.674 28.1854 225.139 26.0178C229.439 23.5872 230.917 28.5748 237.162 25.7152C239.717 24.5074 241.836 22.6299 243.907 20.7499C244.932 19.7851 245.91 18.6839 246.4 17.3297C246.9 15.9656 246.888 14.5048 246.801 13.1209C246.643 11.04 246.484 8.98149 247.148 6.98991C248.103 3.76073 250.762 0.836611 254.22 0.432344C256.958 0.0627982 259.968 1.18632 261.423 3.61688C263.436 1.73443 266.852 2.31231 268.646 4.22948C269.275 4.88921 269.703 5.73495 269.822 6.63525H269.951C272.359 6.68237 274.778 7.02712 277.055 7.81333C281.721 9.33864 285.516 13.1333 285.575 18.2573C285.644 20.6383 284.773 23.1358 282.879 24.6462L282.82 24.6934L282.842 24.7628C283.434 26.432 285.226 27.9697 287.026 28.0019C288.823 27.9325 290.635 27.2727 292.405 27.8233C294.474 28.4831 295.915 30.5193 296.199 32.6349C296.462 34.4256 296.036 36.2658 295.286 37.9003C294.996 38.565 294.526 39.1999 294.541 39.9663C294.585 41.1592 295.853 41.8636 296.915 41.9554C298.385 42.067 299.786 41.437 301.249 41.6999C303.4 42.0422 305.229 43.7064 305.905 45.7674C306.373 47.1389 306.408 48.6444 306.071 50.0531C305.908 50.7575 305.598 51.4321 305.512 52.1662C305.259 53.88 306.861 54.629 308.128 55.2937C308.757 55.6409 309.393 56.0502 309.742 56.6925C310.096 57.3324 310.061 58.1037 309.918 58.8056C309.259 61.5462 308.106 64.634 305.413 65.9336H305.405Z" fill="var(--fill-0, #054A31)" fill-opacity="0.8"/>
<path id="Vector_2" d="M308.149 55.2365C306.927 54.5867 305.308 53.8402 305.577 52.1735C305.667 51.4543 305.974 50.7821 306.142 50.0703C307.105 46.3972 305.149 42.2553 301.26 41.5832C299.81 41.3104 298.364 41.9354 296.919 41.8238C295.919 41.732 294.713 41.0772 294.674 39.9587C294.656 39.232 295.136 38.607 295.411 37.9597C296.176 36.3004 296.614 34.4428 296.352 32.6099C296.065 30.4299 294.584 28.3316 292.448 27.6471C291.02 27.1932 289.522 27.5206 288.084 27.7042C287.381 27.7934 286.653 27.8926 285.978 27.6124C284.695 27.1213 283.542 26.0623 283.062 24.7627C286.955 21.5037 286.423 15.0826 283.24 11.4913C279.963 7.78838 274.848 6.45653 270.066 6.33252C269.903 5.4595 269.465 4.65097 268.861 4.01108C267.031 2.05919 263.665 1.40939 261.479 3.11078C259.9 0.774462 256.897 -0.289531 254.157 0.0676134C252.085 0.30323 250.305 1.38706 248.964 2.90245C244.632 6.08451 240.208 9.88165 238.748 15.2611C238.557 15.963 238.451 16.6426 238.132 17.1758C237.817 17.719 237.297 18.1605 236.768 18.6317C235.706 19.5866 234.723 20.5935 233.641 21.4616C231.805 22.9497 229.621 23.9541 227.386 24.8172C226.638 24.8371 225.827 25.038 224.878 25.5613C221.319 27.7736 217.777 30.1223 215.106 33.4333C214.289 34.4403 213.633 35.5762 213.15 36.7816C208.531 35.7225 203.588 36.2682 199.313 38.2945C192.305 31.4442 179.498 32.1387 173.292 39.7355C167.161 38.3862 160.376 42.1015 158.113 47.9423C155.316 45.3828 145.39 36.3029 145.39 36.3029C143.093 34.2047 139.957 32.1139 136.669 33.1704C133.681 34.1253 131.783 36.8857 130.209 39.4254C127.34 39.2965 124.493 40.797 122.899 43.1829C121.617 44.9736 121.537 47.2876 121.136 49.3536C120.79 51.3005 119.743 52.8853 117.592 52.7985C116.285 52.7638 114.99 52.2752 113.743 51.8288C111.074 50.8888 108.22 50.0381 105.331 50.5292C103.158 50.921 101.012 52.1437 99.9177 54.1403C98.1651 57.2926 100.155 61.6428 101.732 64.5024C102.445 65.7326 103.279 66.8933 104.212 67.9672C105.225 69.0461 106.269 70.4821 107.918 70.4301C108.515 70.3953 109.032 70.1746 109.492 69.8546C111.183 69.8422 112.799 69.6711 114.505 69.5372C115.134 69.4801 115.671 69.3735 116.285 69.4876C116.884 70.6632 117.641 71.7594 118.48 72.7565C120.324 74.9241 122.513 76.7049 124.671 78.4509C125.755 79.3239 126.864 80.197 128.075 80.946C131.966 83.4906 136.333 83.3046 140.395 81.3081C143.818 79.6836 146.855 76.7098 149.648 74.1131C149.625 74.1503 149.61 74.1751 149.61 74.1751C154.819 77.1984 160.836 78.7634 166.846 78.6766C167.824 78.6692 168.99 78.5353 169.921 78.5948C171.282 78.6369 172.24 79.4529 173.198 80.3731C176.23 83.2104 179.171 86.2387 182.538 88.7164C185.911 91.199 189.748 93.069 193.763 94.2347C197.058 95.202 200.501 95.6881 203.939 95.6856C202.613 102.357 200.608 108.893 198.103 115.227C188.761 138.508 173.572 158.823 159.183 179.193C157.831 181.07 155.061 184.553 153.668 186.38C152.162 188.211 150.237 190.547 148.732 192.375C147.581 193.697 144.786 196.901 143.625 198.228C108.477 237.646 62.6215 265.984 28.6522 306.557C28.0136 307.348 25.3105 310.664 24.5629 311.592C23.0158 313.596 21.397 315.749 19.8474 317.785C18.8201 319.248 16.4463 322.594 15.3645 324.149C14.4759 325.538 11.9312 329.377 11.1267 330.677C9.84943 332.817 8.39393 335.235 7.14635 337.366L4.66604 341.924C3.1635 344.608 1.40848 348.365 0 351.193C1.45551 348.323 3.09667 344.791 4.70812 341.947L7.20823 337.401C8.42115 335.332 10.0029 332.768 11.2183 330.731C11.6738 329.997 12.1639 329.283 12.6342 328.559L15.4833 324.226C16.674 322.557 18.7483 319.618 19.991 317.887C21.548 315.873 23.1594 313.72 24.7288 311.718C25.7783 310.441 27.6745 308.12 28.8379 306.706C63.0052 266.274 108.987 238.149 144.33 198.858C145.474 197.561 148.338 194.305 149.479 193.008C151.294 190.795 153.502 188.236 155.262 185.989C157.069 183.687 159.913 180.064 161.561 177.72C179.429 152.486 199.093 126.732 205.437 95.7675C205.437 95.7675 205.202 95.7203 204.922 95.6658C206.328 95.6261 208.348 95.6311 210.007 95.4823C209.908 95.6187 209.838 95.7179 209.838 95.7179C210.603 96.2486 211.42 96.6703 212.269 97.0076C210.903 103.855 208.823 110.557 206.219 117.045C198.229 136.894 185.8 154.443 173.609 171.914C149.343 207.244 116.52 235.364 85.0631 264.037C70.56 277.189 56.047 290.386 42.5909 304.633C33.7688 314.045 25.3377 323.928 18.4315 334.856C16.8522 337.356 15.1195 340.344 13.7753 342.969C10.5128 349.298 7.90133 356.012 6.57454 363.028C8.26768 354.266 11.9659 346.004 16.4463 338.341C23.7337 326.086 33.046 315.168 42.8112 304.841C81.3575 264.727 127.156 231.874 162.495 188.618C165.515 184.868 168.641 180.837 171.428 176.916C188.647 152.437 207.464 127.414 213.685 97.4862C214.437 97.702 215.205 97.8682 215.975 97.9947C222.443 99.1703 228.733 96.4594 234.201 93.26C236.961 91.7124 239.491 89.7655 241.835 87.635C244.558 85.2788 247.558 82.9004 250.087 80.3383C263.313 66.3477 280.044 60.7673 298.968 63.3169C299.243 63.369 299.545 63.4384 299.82 63.5302C300.389 63.7187 301.926 65.0506 302.387 65.2267C303.288 65.9161 304.268 66.5411 305.407 65.9459C307.432 65.0109 308.617 62.935 309.333 60.9062C310.192 58.4409 310.746 56.5411 308.142 55.2316L308.149 55.2365ZM230.252 23.9963C231.572 23.468 232.847 22.7835 234 21.9278C235.164 21.0796 236.171 20.0677 237.235 19.1674C237.763 18.7135 238.349 18.2324 238.76 17.5503C239.171 16.8584 239.283 16.1069 239.471 15.4546C239.815 14.1227 240.379 12.8504 241.082 11.6599C243.003 8.41587 245.798 5.86625 248.592 3.35384C247.548 4.67825 246.815 6.273 246.478 7.90247C245.731 10.9605 247.025 14.217 245.981 17.1858C245.518 18.4506 244.59 19.4948 243.59 20.4273C241.557 22.2577 239.441 24.1228 236.951 25.2885C232.416 27.3743 230.488 25.0156 227.824 24.8346C228.643 24.5915 229.455 24.3187 230.252 24.0013V23.9963ZM114.589 68.3715C113.386 68.126 112.099 68.1433 110.901 68.4658C111.099 68.2202 111.287 67.9722 111.47 67.7366C112.074 66.8338 113.386 65.7971 114.443 66.0005C115.374 66.2262 115.347 67.434 115.713 68.188C115.812 68.4484 115.923 68.7039 116.04 68.9568C115.619 68.6443 115.062 68.4707 114.592 68.3715H114.589ZM140.028 80.5318C137.625 81.6851 134.867 82.3225 132.228 81.7446C129.57 81.1741 127.345 79.4405 125.253 77.7416C121.584 74.7431 117.663 71.5833 116.287 66.8933C115.644 64.2619 113.01 64.7207 111.418 66.2981C110.445 67.2579 109.854 68.5526 108.666 69.2123C107.116 70.0729 105.93 68.2822 104.98 67.3075C103.202 65.2589 101.819 62.863 100.945 60.2936C100.326 58.4905 99.9177 56.5882 100.737 54.8546C102.353 51.742 106.26 51.0004 109.468 51.7221C110.787 51.9825 112.086 52.4066 113.384 52.868C116.139 53.9419 119.725 54.9364 121.525 51.7122C122.847 49.2147 122.218 46.1616 123.859 43.8302C125.367 41.5906 128.184 40.2538 130.837 40.6606L131.033 40.3431C132.818 37.4512 135.248 33.7806 139.036 34.1377C141.204 34.3857 142.934 35.7969 144.576 37.2305L157.972 49.5619C157.972 49.5619 158.559 50.1026 158.67 50.2043C158.717 50.2811 158.762 50.3605 158.811 50.4349C160.91 53.5302 165.153 53.2251 168.099 54.7678C171.366 56.5262 173.8 60.7623 177.961 60.4672C176.985 60.5193 176.022 60.2514 175.163 59.8199C174.3 59.3883 173.52 58.8055 172.797 58.1656C171.351 56.8858 170.077 55.368 168.344 54.3362C167.48 53.8228 166.529 53.4855 165.594 53.1978C163.136 52.4786 159.841 51.6552 159.165 48.8526C161.074 43.2424 167.651 39.6561 173.384 41.1417C173.426 41.6502 173.51 42.166 173.676 42.6348C174.394 44.8049 176.168 46.4096 177.81 47.8357C178.896 48.7906 179.988 49.7405 180.812 50.9161C181.726 52.0545 181.857 53.6343 182.797 54.7529C181.921 53.5748 181.887 51.9999 181.02 50.7797C178.891 47.3372 174.111 45.1025 174.329 40.6035C178.678 35.3158 186.59 33.6913 192.929 35.9755C195.095 36.7493 197.088 37.9993 198.655 39.6611L199.021 40.0504C203.165 37.8431 208.108 37.166 212.682 38.2002C212.408 39.2072 212.249 40.2439 212.22 41.2856C212.125 43.3267 212.343 45.5341 212.494 47.5678C212.531 48.2449 212.603 48.9294 212.559 49.6041C212.452 50.9061 211.734 52.1313 210.67 52.8828C209.875 53.4483 208.898 53.7559 207.925 53.7187C207.65 53.7187 207.17 53.679 206.885 53.674C205.479 53.6319 204.078 53.7112 202.692 53.8253C198.672 54.1899 194.244 54.5892 190.243 54.9786C186.785 55.3705 183.03 56.0624 180.466 58.6418C179.471 59.619 178.812 60.9285 177.926 61.9702C177.78 62.1438 177.626 62.305 177.466 62.4513C175.728 63.3913 173.465 63.0193 171.631 62.3298C169.289 61.4121 166.792 60.554 164.252 60.3035C159.138 59.6884 154.009 60.7227 149.115 62.0992C146.66 62.7638 144.296 63.7013 141.843 64.056C136.902 64.7777 131.706 62.739 128.476 58.927C126.807 57.0867 125.151 54.8645 122.599 54.2593L122.577 54.3561C125.085 55.0257 126.634 57.2504 128.253 59.1254C132.602 64.4256 139.258 65.9781 145.677 63.8849C151.653 62.0917 157.937 60.7028 164.146 61.2906C165.378 61.3973 166.609 61.6056 167.807 61.9082C169.626 62.3199 171.416 63.1557 173.307 63.426C174.282 63.5773 175.352 63.5401 176.319 63.245C174.007 64.428 170.968 63.8998 168.388 64.0262C167.732 64.0486 166.95 64.118 166.274 64.2048C161.381 64.9067 156.846 67.2554 152.952 70.2292C148.623 73.4534 144.939 78.1831 140.031 80.5343L140.028 80.5318ZM305.404 65.9335C304.283 66.5213 303.327 65.9261 302.434 65.249C302.204 65.0754 301.978 64.8968 301.756 64.7306C301.117 64.2395 300.253 63.5922 299.798 63.4409C299.409 63.312 298.686 63.178 298.065 63.178C298.06 63.178 298.057 63.178 298.055 63.178C279.43 60.6359 262.806 66.1195 249.511 79.7803C246.973 82.2704 243.951 84.5968 241.213 86.8959C237.379 90.3657 232.847 93.0318 228.096 95.0309C224.336 96.6256 220.252 97.3845 216.212 96.6256C214.274 96.2809 212.309 95.6583 210.717 94.515C210.717 94.515 210.499 94.8176 210.284 95.1201C210.219 95.2094 210.155 95.2987 210.096 95.383C208.494 95.455 205.697 95.5666 204.318 95.5517C204.13 95.5145 203.991 95.4872 203.991 95.4872C203.986 95.5071 203.984 95.5269 203.979 95.5492C200.556 95.4773 197.145 94.9193 193.882 93.8825C184.951 91.0874 180.221 86.1072 173.852 79.7059C172.866 78.6717 171.537 77.6349 170.015 77.5804C168.928 77.4911 167.903 77.6077 166.854 77.5903C161.217 77.5457 155.601 75.9906 150.754 73.121C153.67 70.5119 156.908 68.2177 160.499 66.6652C162.683 65.7326 165.037 65.0729 167.403 64.8546C170.49 64.5297 173.876 65.3556 176.777 63.8526C178.084 63.183 178.951 61.9057 179.728 60.7326C181.164 58.3789 183.639 57.0024 186.27 56.3625C187.592 56.0277 188.954 55.8194 190.325 55.6631C194.303 55.2638 198.741 54.8447 202.751 54.4726C204.128 54.3561 205.504 54.2742 206.875 54.3089C207.187 54.304 207.601 54.3635 207.915 54.3486C209.021 54.3858 210.135 54.0336 211.034 53.3863C212.237 52.5331 213.049 51.1368 213.165 49.6586C213.212 48.9468 213.135 48.2375 213.096 47.5282C212.945 45.5316 212.717 43.297 212.804 41.3153C212.88 38.5673 213.836 35.921 215.556 33.7781C218.118 30.5687 221.673 28.1853 225.138 26.0176C229.438 23.5871 230.916 28.5747 237.161 25.7151C239.716 24.5072 241.835 22.6297 243.907 20.7498C244.931 19.785 245.909 18.6838 246.399 17.3296C246.899 15.9655 246.887 14.5047 246.8 13.1208C246.642 11.0399 246.483 8.98135 247.147 6.98977C248.102 3.76059 250.761 0.836466 254.219 0.432198C256.957 0.0626531 259.967 1.18617 261.422 3.61674C263.435 1.73429 266.851 2.31217 268.645 4.22934C269.274 4.88906 269.702 5.7348 269.821 6.6351H269.95C272.358 6.68223 274.777 7.02697 277.054 7.81319C281.72 9.33849 285.515 13.1332 285.574 18.2572C285.643 20.6381 284.772 23.1357 282.879 24.6461L282.819 24.6932L282.841 24.7627C283.433 26.4318 285.225 27.9695 287.025 28.0018C288.822 27.9323 290.634 27.2726 292.404 27.8232C294.473 28.4829 295.914 30.5191 296.198 32.6347C296.461 34.4254 296.035 36.2657 295.285 37.9001C294.995 38.5648 294.525 39.1997 294.54 39.9661C294.584 41.1591 295.852 41.8634 296.914 41.9552C298.384 42.0668 299.785 41.4369 301.248 41.6998C303.399 42.042 305.228 43.7062 305.904 45.7672C306.372 47.1388 306.407 48.6442 306.07 50.053C305.907 50.7573 305.597 51.4319 305.511 52.1661C305.258 53.8799 306.86 54.6289 308.127 55.2936C308.756 55.6408 309.392 56.05 309.741 56.6924C310.095 57.3323 310.06 58.1036 309.917 58.8055C309.258 61.5461 308.105 64.6339 305.412 65.9335H305.404Z" fill="var(--fill-0, #F8FFCF)"/>
<g id="Group_2">
<path id="Vector_3" d="M152.507 53.7931C152.977 51.8883 153.017 49.8794 152.792 47.9448C152.678 46.4419 152.366 44.9166 151.69 43.5574C151.462 43.1085 151.19 42.6745 150.824 42.3297C151.168 42.6968 151.408 43.1408 151.606 43.5971C152.19 44.981 152.4 46.4741 152.423 47.9696C152.522 49.8422 152.381 51.6899 151.844 53.4781C147.502 53.927 143.041 53.0912 139.138 51.1294C135.259 49.1626 129.528 44.8918 130.407 39.9513C129.833 42.3521 131.046 44.7677 132.556 46.5783C137.249 52.0272 144.576 54.986 151.725 54.5793C153.737 57.2876 156.272 59.6165 159.166 61.3948L159.918 60.1126C157.084 58.5178 154.549 56.3576 152.509 53.7906L152.507 53.7931Z" fill="var(--fill-0, #F8FFCF)"/>
<path id="Vector_4" d="M128.327 59.8993L129.092 58.6245C127.678 57.8433 126.06 57.5953 124.54 57.7515C121.507 58.0268 118.859 59.9415 117.24 62.4266C116.428 63.6419 115.821 64.9688 115.381 66.3379C116.47 63.7387 118.23 61.2907 120.703 59.9142C123.01 58.6245 126.116 58.4112 128.327 59.8969V59.8993Z" fill="var(--fill-0, #F8FFCF)"/>
<path id="Vector_5" d="M142.43 65.2739C140.7 66.6008 139.385 67.9823 138.303 69.4456L138.296 69.4233C135.588 70.5096 132.885 71.5934 130.068 72.3102C127.278 73.0319 124.236 73.518 121.912 75.3558C124.32 73.6172 127.323 73.2799 130.152 72.6723C132.697 72.1391 135.165 71.3107 137.603 70.455C135.907 73.0493 134.796 75.9089 133.358 79.1753C132.88 80.1327 132.476 81.3082 131.402 81.7348C131.939 81.5711 132.36 81.152 132.679 80.7006C133.59 79.3018 134.274 77.7715 135.029 76.2884C137.858 70.0557 142.229 65.4178 148.866 63.389L148.4 61.9753C146.244 62.7591 144.227 63.8826 142.43 65.2715V65.2739Z" fill="var(--fill-0, #F8FFCF)"/>
<path id="Vector_6" d="M201.244 47.3571C201.219 47.0396 201.19 46.7221 201.15 46.4072C200.816 43.6765 199.989 41.0723 199.014 38.5599C200.472 43.5847 201.296 49.2246 198.915 54.061L200.274 54.6587C201.105 52.5109 201.385 50.2093 201.279 47.9349L201.41 48.1358C205.19 45.5118 207.729 41.2906 208.304 36.8287C207.502 41.1566 204.853 45.0431 201.241 47.3571H201.244Z" fill="var(--fill-0, #F8FFCF)"/>
<path id="Vector_7" d="M185.822 47.3001C184.453 46.1071 182.74 45.492 181.201 44.6165C178.686 43.2549 176.901 40.7177 176.475 37.8581C176.703 40.7624 178.423 43.5451 180.911 45.0927C182.48 46.127 184.31 46.8859 185.537 48.2996C187.27 50.2689 187.396 53.5476 185.864 55.5963L187.087 56.442C188.76 53.7932 188.466 50.2465 186.463 47.9425L186.537 47.9375C186.446 46.8487 186.807 45.7277 187.33 44.7009C187.852 43.6666 188.54 42.6895 189.109 41.6329C190.28 39.5148 190.577 37.0892 190.845 34.7306C190.461 37.0421 190.043 39.4355 188.788 41.4469C187.664 43.2673 186.055 45.0803 185.827 47.3001H185.822Z" fill="var(--fill-0, #F8FFCF)"/>
</g>
</g>
</svg>
