<svg width="628" height="230" viewBox="0 0 628 230" fill="none" xmlns="http://www.w3.org/2000/svg">
<path d="M0.014327 22.1981C0.825131 51.7701 23.9616 74.4997 54.3913 71.0638C55.7049 70.9132 57.0272 70.7626 56.8001 68.9698C43.3933 61.9962 30.0746 49.8052 21.2023 37.506C20.2638 36.2076 16.3547 30.5327 15.9746 29.5518C15.6291 28.6673 16.1125 28.2677 17.0038 28.5345C24.8931 37.9794 33.3448 46.9553 43.0198 54.6176C48.9992 59.3505 56.1165 62.35 60.8532 68.7546C69.3881 80.2917 70.1227 104.261 73.9874 118.588C96.8486 203.424 172.553 225.095 252.336 212.648C295.893 205.853 338.746 194.676 382.804 189.335C456.74 180.363 553.921 176.501 616.797 221.792C619.073 223.429 624.227 228.586 625.939 229.338C628.672 230.532 625.381 225.48 624.885 224.849C591.873 182.49 513.913 172.117 463.515 171.605C398.336 170.938 333.946 183.613 269.334 190.046C193.103 197.634 122.478 197.376 85.6398 119.522C80.1508 107.922 73.3627 90.2497 70.5735 77.8156C66.689 60.5426 67.795 49.6756 54.9075 35.3105C43.3514 22.4381 29.4816 20.4266 16.5333 11.0868C13.7518 9.07978 5.91013 0.596538 4.64396 0.048147C3.24678 -0.553358 2.21385 4.60674 1.95449 5.68919C1.1765 8.91904 0.156055 15.0581 0.0443929 18.0554C-0.0064118 19.4274 -0.0137286 20.852 0.0230262 22.2156L0.014327 22.1981ZM13.22 25.727C13.0633 25.5689 12.4613 23.4944 12.5341 22.9528C13.8713 23.3006 14.0928 24.4904 13.8939 25.7305C13.6665 25.6943 13.3157 25.8236 13.2112 25.7269L13.22 25.727ZM14.4206 27.1141C14.423 26.6421 14.81 26.2596 15.2826 26.262C15.7552 26.2644 16.1383 26.651 16.1359 27.1229C16.1335 27.5949 15.7464 27.9775 15.2738 27.975C14.8012 27.9726 14.4182 27.5861 14.4206 27.1141Z" fill="#A6C09E"/>
</svg>
