<svg width="89" height="175" viewBox="0 0 89 175" fill="none" xmlns="http://www.w3.org/2000/svg">
<path d="M59.5191 22.5389C52.6509 30.6931 44.33 35.4225 36.4365 42.1381C7.0072 67.1847 -8.47064 97.1014 4.78899 136.133C5.8322 139.197 7.74319 143.708 9.79672 146.018C11.8178 115.455 24.2921 85.8725 45.3402 63.6496C46.4402 62.484 54.9404 53.4991 56.1682 54.7028L41.1693 78.2766C25.4569 107.86 14.944 140.651 14.5252 174.474L25.1732 156.279C47.5296 121.293 84.3855 103.766 88.1372 56.5888C89.6808 37.2199 86.0119 15.4294 73.8388 0.00170187C70.219 7.85797 65.0753 15.9249 59.5015 22.5388L59.5191 22.5389ZM57.5827 51.9395C58.5655 51.4463 59.4358 52.386 58.9619 52.6283C57.9792 53.1214 57.1089 52.1818 57.5827 51.9395Z" fill="#A6C09E"/>
</svg>
