<svg width="19" height="19" viewBox="0 0 19 19" fill="none" xmlns="http://www.w3.org/2000/svg">
<g clip-path="url(#clip0_3167_104847)">
<path d="M2.89761 11.4067C2.8786 11.3809 2.85373 11.3599 2.82505 11.3456C2.79636 11.3313 2.76468 11.3239 2.73261 11.3242C2.70016 11.3255 2.66859 11.3351 2.64098 11.3522C2.61337 11.3693 2.59067 11.3932 2.57511 11.4217L0.775108 14.5267C0.707306 14.648 0.674502 14.7856 0.680353 14.9244C0.686204 15.0632 0.73048 15.1976 0.808246 15.3127C0.886012 15.4278 0.994211 15.519 1.12079 15.5763C1.24736 15.6335 1.38733 15.6544 1.52511 15.6367L3.31761 15.3367L3.94011 17.0542C3.98933 17.1874 4.07533 17.3038 4.18809 17.39C4.30086 17.4762 4.43577 17.5286 4.57716 17.5412C4.71854 17.5537 4.86058 17.5259 4.98679 17.461C5.11299 17.396 5.21817 17.2966 5.29011 17.1742L6.79011 14.6692C6.80324 14.6451 6.81011 14.618 6.81011 14.5905C6.81011 14.563 6.80324 14.5359 6.79011 14.5117C6.78075 14.4859 6.76582 14.4624 6.74638 14.443C6.72694 14.4235 6.70346 14.4086 6.67761 14.3992C5.12854 13.8343 3.80294 12.7848 2.89761 11.4067Z" fill="#5B378F"/>
<path d="M17.8322 14.5282L16.0547 11.4007C16.0388 11.373 16.0158 11.3502 15.9881 11.3344C15.9604 11.3185 15.9291 11.3104 15.8972 11.3107C15.866 11.3096 15.8352 11.3166 15.8075 11.3311C15.7799 11.3456 15.7566 11.3669 15.7397 11.3932C14.8266 12.7749 13.4935 13.8266 11.9372 14.3932C11.8864 14.4144 11.846 14.4548 11.8247 14.5057C11.8116 14.5298 11.8047 14.5569 11.8047 14.5844C11.8047 14.6119 11.8116 14.639 11.8247 14.6632L13.3247 17.1832C13.3972 17.3053 13.503 17.4043 13.6296 17.4687C13.7563 17.5331 13.8986 17.5602 14.0401 17.5469C14.1815 17.5335 14.3163 17.4802 14.4286 17.3933C14.541 17.3063 14.6263 17.1892 14.6747 17.0557L15.2972 15.3382L17.0897 15.6382C17.231 15.6641 17.3769 15.649 17.5098 15.5945C17.6428 15.5399 17.7573 15.4484 17.8397 15.3307C17.9146 15.2099 17.9536 15.0704 17.9523 14.9283C17.951 14.7862 17.9093 14.6475 17.8322 14.5282Z" fill="#5B378F"/>
<path d="M15.8516 7.16991C15.8516 5.87133 15.4663 4.60194 14.7445 3.52242C14.0228 2.4429 12.997 1.60178 11.7969 1.10553C10.5969 0.60927 9.27667 0.48019 8.00326 0.734623C6.72985 0.989057 5.56055 1.61557 4.64337 2.53485C3.72619 3.45413 3.10236 4.62486 2.85084 5.89885C2.59932 7.17283 2.73142 8.4928 3.23042 9.69168C3.72942 10.8906 4.57289 11.9144 5.65406 12.6337C6.73523 13.353 8.00549 13.7354 9.30407 13.7324C11.0419 13.7284 12.7073 13.0353 13.9348 11.805C15.1622 10.5747 15.8516 8.9078 15.8516 7.16991ZM11.9141 9.73491C11.9522 9.82132 11.9617 9.91767 11.9411 10.0099C11.9205 10.102 11.871 10.1852 11.7998 10.2472C11.7285 10.3093 11.6393 10.3469 11.5452 10.3545C11.451 10.3622 11.3569 10.3396 11.2766 10.2899L9.38657 9.22491C9.35745 9.21038 9.32536 9.20282 9.29282 9.20282C9.26028 9.20282 9.22818 9.21038 9.19907 9.22491L7.30907 10.2899C7.22872 10.3396 7.1346 10.3622 7.04046 10.3545C6.94632 10.3469 6.85711 10.3093 6.78587 10.2472C6.71464 10.1852 6.66511 10.102 6.64455 10.0099C6.62398 9.91767 6.63345 9.82132 6.67157 9.73491L7.42157 7.96491C7.43648 7.92951 7.44016 7.89039 7.43211 7.85283C7.42406 7.81527 7.40467 7.78109 7.37657 7.75491L6.01157 6.38991C5.94019 6.33434 5.88865 6.25722 5.86463 6.17C5.84062 6.08279 5.8454 5.99016 5.87826 5.90588C5.91113 5.82161 5.97033 5.7502 6.04705 5.70227C6.12377 5.65435 6.21391 5.63248 6.30407 5.63991H7.89407C7.92984 5.64069 7.96509 5.63122 7.99566 5.61262C8.02623 5.59401 8.05083 5.56705 8.06657 5.53491L8.89157 3.82491C8.93098 3.75294 8.98903 3.6929 9.05963 3.65108C9.13022 3.60926 9.21076 3.58719 9.29282 3.58719C9.37487 3.58719 9.45541 3.60926 9.52601 3.65108C9.5966 3.6929 9.65465 3.75294 9.69407 3.82491L10.5191 5.52741C10.5335 5.55895 10.5568 5.58564 10.5861 5.60427C10.6153 5.6229 10.6494 5.63267 10.6841 5.63241H12.3041C12.3949 5.62306 12.4863 5.64355 12.5644 5.69079C12.6425 5.73803 12.7031 5.80944 12.7371 5.89421C12.771 5.97898 12.7763 6.07249 12.7523 6.16058C12.7283 6.24867 12.6763 6.32655 12.6041 6.38241L11.1791 7.75491C11.1531 7.78249 11.1357 7.81703 11.1291 7.85433C11.1224 7.89162 11.1267 7.93005 11.1416 7.96491L11.9141 9.73491Z" fill="url(#paint0_linear_3167_104847)"/>
</g>
<defs>
<linearGradient id="paint0_linear_3167_104847" x1="9.28906" y1="0.607422" x2="9.28906" y2="16.0891" gradientUnits="userSpaceOnUse">
<stop stop-color="#5B378F"/>
<stop offset="1" stop-color="white"/>
</linearGradient>
<clipPath id="clip0_3167_104847">
<rect width="18" height="18" fill="white" transform="translate(0.304688 0.0742188)"/>
</clipPath>
</defs>
</svg>
