<svg width="136" height="141" viewBox="0 0 136 141" fill="none" xmlns="http://www.w3.org/2000/svg">
<g clip-path="url(#clip0_3167_104876)">
<g filter="url(#filter0_d_3167_104876)">
<path d="M117.648 89.577C109.014 117.42 79.3348 133.049 51.4855 124.412C23.6362 115.776 8.01391 86.0991 16.6483 58.256C22.0238 40.9218 36.0942 27.5696 53.3848 22.8697C54.6978 22.5128 55.5766 21.2504 55.3825 19.9036L55.0469 17.5757C54.8419 16.154 55.8273 14.835 57.2488 14.6285L58.5354 14.4416C67.4117 13.1475 76.2888 13.8497 84.9339 16.5307C93.5789 19.2116 101.302 23.6572 107.889 29.7465L108.843 30.628C109.898 31.6028 109.964 33.2484 108.99 34.3046L107.402 36.0272C106.479 37.028 106.489 38.5671 107.37 39.6046C118.979 53.2669 123.023 72.2429 117.648 89.577Z" fill="white"/>
</g>
<path d="M73.1075 54.7368C62.5358 51.4584 51.2525 57.3949 47.9741 67.9665C44.6958 78.5382 50.6322 89.8215 61.2101 93.1018C71.788 96.3822 83.0651 90.4438 86.3454 79.8659C89.6257 69.288 83.6854 58.0171 73.1075 54.7368ZM63.3475 86.2094C56.5794 84.1106 52.7701 76.8864 54.8708 70.1121C56.9716 63.3378 64.1939 59.5346 70.9682 61.6354C77.7425 63.7362 81.5457 70.9584 79.4449 77.7327C77.3441 84.5071 70.1219 88.3102 63.3475 86.2094Z" fill="#2CBDBE"/>
<path d="M77.3821 40.9255C59.1659 35.2765 39.8074 45.4602 34.1545 63.6887C28.5017 81.9172 38.6954 101.265 56.9177 106.916C75.14 112.567 94.4923 102.382 100.145 84.1531C105.798 65.9245 95.6044 46.5765 77.3821 40.9255ZM59.0377 100.08C44.5941 95.6006 36.5119 80.2524 40.991 65.8087C45.4701 51.3651 60.8184 43.2829 75.262 47.762C89.7056 52.2411 97.7878 67.5894 93.3087 82.033C88.8296 96.4766 73.4814 104.559 59.0377 100.08Z" fill="#2CBDBE"/>
<path d="M100.366 37.9216L95.4707 43.2296C106.927 53.8061 111.95 70.4063 107.026 86.2855C100.197 108.305 76.8063 120.617 54.7866 113.789C32.767 106.96 20.4528 83.5757 27.2813 61.556C32.2076 45.6705 45.7507 34.8416 61.1702 32.5927L60.1369 25.446C42.0374 28.0765 26.1527 40.7884 20.3765 59.4147C12.3646 85.2504 26.8116 112.676 52.6411 120.686C78.4705 128.696 105.902 114.25 113.912 88.421C119.692 69.7823 113.783 50.3255 100.348 37.9158" fill="#2CBDBE"/>
<path d="M60.1366 25.448C67.1355 24.4301 74.4583 24.916 81.6552 27.1479C88.8522 29.3797 95.1775 33.1262 100.36 37.9216L105.248 32.6178C99.2969 27.1141 92.0442 22.8212 83.7845 20.2597C75.5248 17.6983 67.1281 17.1382 59.1075 18.3094L60.1366 25.448Z" fill="#2CBDBE"/>
</g>
<defs>
<filter id="filter0_d_3167_104876" x="11.9921" y="12.5111" width="110.279" height="117.533" filterUnits="userSpaceOnUse" color-interpolation-filters="sRGB">
<feFlood flood-opacity="0" result="BackgroundImageFix"/>
<feColorMatrix in="SourceAlpha" type="matrix" values="0 0 0 0 0 0 0 0 0 0 0 0 0 0 0 0 0 0 127 0" result="hardAlpha"/>
<feOffset dy="0.976045"/>
<feGaussianBlur stdDeviation="1.13872"/>
<feComposite in2="hardAlpha" operator="out"/>
<feColorMatrix type="matrix" values="0 0 0 0 0 0 0 0 0 0 0 0 0 0 0 0 0 0 0.08 0"/>
<feBlend mode="normal" in2="BackgroundImageFix" result="effect1_dropShadow_3167_104876"/>
<feBlend mode="normal" in="SourceGraphic" in2="effect1_dropShadow_3167_104876" result="shape"/>
</filter>
<clipPath id="clip0_3167_104876">
<rect width="105.745" height="112.948" fill="white" transform="translate(34.4434 0.873047) rotate(17.2292)"/>
</clipPath>
</defs>
</svg>
