<svg preserveAspectRatio="none" width="100%" height="100%" overflow="visible" style="display: block;" viewBox="0 0 247.419 275.854" fill="none" xmlns="http://www.w3.org/2000/svg">
<g id="Group">
<path id="Vector" d="M76.9963 250.733H69.0727C70.4391 212.553 74.5902 173.688 94.8906 140.767C95.3758 140.93 95.8684 141.069 96.3684 141.178C98.0417 141.555 99.7968 141.573 101.482 141.258C101.94 141.171 102.388 141.064 102.829 140.958C83.2342 174.058 78.3651 212.664 76.9938 250.733H76.9963ZM194.977 130.799C193.412 131.34 191.979 132.136 190.489 132.738C187.454 134.078 184.11 133.73 180.909 133.254C177.671 132.781 174.466 132.064 171.334 131.114C166.609 129.695 161.973 127.575 156.953 127.461C150.514 127.285 147.536 131.198 142.712 134.474C142.071 134.859 141.294 135.4 140.638 135.759C140.212 135.985 139.477 136.412 139.036 136.645C138.177 137.054 137.16 137.585 136.271 137.929L135.145 138.401L133.996 138.812C126.719 141.397 118.699 141.831 111.201 139.951C109.612 139.571 107.938 139.15 106.183 139.256C104.438 139.36 102.844 139.916 101.282 140.201C99.7324 140.481 98.1383 140.454 96.6036 140.102C91.7642 139.038 87.5735 135.01 86.7219 130.087C82.8282 132.237 78.0235 130.075 75.516 126.759C72.8773 123.272 72.0159 118.827 71.1247 114.593L70.6024 114.554C68.0107 114.375 65.5923 113.148 63.7012 111.377C57.4954 105.645 57.2529 96.8528 56.9583 88.9311C56.8593 86.8651 56.7256 84.7793 56.4682 82.7158C56.0028 79.2808 55.1488 75.8234 53.9433 72.5843C50.7773 64.1145 45.1088 56.5599 37.804 51.2375L36.1282 50.0445C33.2073 47.8372 31.9126 44.4517 29.9348 41.4036C31.0982 42.8272 32.2617 44.2781 34.0142 44.9577C34.8756 45.2727 35.7643 45.3744 36.6529 45.5505C38.4104 45.8654 40.1704 46.1457 41.9007 46.5351C47.5024 47.7057 51.5026 50.4339 53.9433 55.6795C56.2058 60.5233 56.8172 65.873 57.6415 71.1334C58.2504 76.188 59.4213 77.7505 64.4066 78.8542C71.1817 80.1935 76.6571 86.4262 77.073 93.326L77.1027 93.8245C79.182 94.2958 81.2564 94.8141 83.2713 95.4664C88.5512 97.1728 94.4302 100.067 96.0862 105.784L96.2174 106.235L96.6877 106.297C101.369 106.912 106.129 107.532 110.448 109.459C114.825 111.406 118.795 114.995 119.916 119.775C125.803 117.758 132.514 118.264 138.004 121.233C139.063 121.803 140.123 122.463 141.286 123.014C142.442 123.574 143.742 123.944 145.014 124.122C146.281 124.306 147.536 124.358 148.757 124.43C153.636 124.713 158.522 125.484 163.5 125.697C165.983 125.804 168.5 125.747 170.978 125.434C177.1 124.698 183.023 122.818 189.194 122.699C194.051 122.639 198.977 123.636 203.806 124.303C205.705 124.566 207.995 124.891 210.158 125.509C204.965 124.99 198.885 127.555 194.972 130.806L194.977 130.799ZM213.762 143.926C213.334 142.766 213.195 141.545 212.873 140.345C211.069 133.582 203.546 129.102 196.754 130.34C201.784 128.289 207.319 126.109 212.653 126.392C215.487 127.659 217.646 129.718 217.611 133.249C217.676 137.463 213.747 143.611 216.537 147.265C215.289 146.471 214.265 145.333 213.76 143.929L213.762 143.926ZM235.352 144.241C232.374 146.426 228.906 147.972 225.25 148.624C224.441 148.745 223.624 148.817 222.807 148.825C221.178 148.822 219.53 148.597 218.01 148.001C217.505 147.808 217.015 147.562 216.554 147.272C215.101 145.318 215.663 142.681 216.27 140.486C216.928 138.103 217.861 135.764 217.978 133.257C218.22 128.969 214.817 126.434 211.185 125.184C207.851 123.988 203.727 123.569 200.274 122.957C196.623 122.364 192.917 121.707 189.187 121.717C185.454 121.729 181.741 122.404 178.102 123.083C173.283 124.028 168.471 124.76 163.557 124.43C158.678 124.192 153.804 123.388 148.841 123.068C147.603 122.989 146.39 122.927 145.22 122.748C144.049 122.572 142.955 122.26 141.89 121.736C140.826 121.225 139.791 120.573 138.68 119.973C133.293 117.056 126.8 116.327 120.892 117.947C119.295 113.388 115.352 110.023 111.047 108.108C106.703 106.178 101.975 105.519 97.3313 104.921C95.3758 99.0106 89.2617 95.8806 83.6896 94.1544C81.9297 93.5988 80.1474 93.1474 78.3602 92.7407C77.6671 85.9351 72.5728 79.8612 65.9958 78.0506C63.0699 77.2843 59.8965 77.0933 59.1514 73.5566C57.936 67.4628 57.4633 61.0118 54.676 55.3223C52.0695 49.918 47.8267 47.1303 42.0096 46.0391C40.2496 45.6794 38.4798 45.4364 36.7223 45.1586C35.8608 45.0048 34.9598 44.918 34.1355 44.6353C31.8508 43.792 30.5487 41.5872 28.8878 39.9056C27.6575 38.3108 25.8951 36.9071 23.8158 36.659C20.3874 36.2622 16.9021 36.4507 13.4886 36.4234C6.71106 36.3267 -2.72252 36.4408 1.40885 26.7905C1.93857 25.5355 2.58216 24.3227 3.28021 23.1471L3.21586 23.1074L3.28764 23.1248C3.54508 22.1575 3.94856 21.2299 4.42383 20.3445C9.86218 10.7041 21.6894 5.13855 32.5711 6.84243C39.8536 8.2338 40.9601 13.8489 44.2572 13.3479C45.8192 12.9585 46.8539 11.5895 47.844 10.4585C48.953 9.10435 50.1981 7.86922 51.6511 6.90443C53.9483 5.42129 56.639 4.60531 59.3371 4.22337C64.7878 3.46443 70.3945 3.9208 75.719 5.26009C79.4593 6.27448 83.5089 7.71546 85.967 10.838L86.2764 11.2447L86.5487 10.8157C88.024 8.4843 90.383 6.77547 92.9871 5.90989C95.7421 4.97983 98.8289 5.00958 101.515 6.1455C101.715 3.85382 103.27 2.42525 105.347 1.66384C109.203 0.255105 113.404 0.952029 117.359 1.58199C125.229 3.03537 133.635 5.5329 139.076 11.7184C140.427 13.3132 141.452 15.1659 142.093 17.1451C143.281 17.5543 144.393 18.1694 145.375 18.963C152.282 24.784 151.663 34.4319 154.953 42.3064C155.854 44.5038 157.171 46.5673 158.851 48.2563C163.604 52.8967 170.958 54.6403 177.246 52.4627C180.719 51.235 183.632 48.6879 186.59 46.7037C187.966 45.7886 189.429 44.9949 190.937 44.3153C196.034 42.0881 201.767 41.3168 207.262 42.1948C211.933 42.9364 216.601 44.8858 219.807 48.4275C222.896 51.8228 224.302 57.0709 222.458 61.3665L221.99 62.4429L223.161 62.4503C225.602 62.4677 228.033 63.2291 230.112 64.5411C236.778 68.5689 238.236 77.7604 233.607 83.8939L233.332 84.256L233.528 84.6578C234.169 85.9549 234.006 87.6613 233.164 88.8443C229.82 88.5343 226.399 89.5338 223.76 91.6048L222.201 92.83C229.097 92.6564 236.743 92.9341 242.209 97.6539C245.667 100.712 247.325 106.002 245.815 110.427C245.266 112.012 244.209 113.383 242.828 114.323C242.828 114.323 242.991 114.67 242.989 114.67C247.781 124.814 244.548 137.736 235.357 144.244L235.352 144.241Z" fill="var(--fill-0, #07543B)"/>
<path id="Vector_2" d="M246.031 100.839C242.484 93.6337 233.952 91.714 226.444 91.4834C228.687 90.3524 231.288 89.9333 233.759 90.3375C235.264 88.7974 235.764 86.4437 235.011 84.4372C239.932 77.644 238.167 67.6539 230.924 63.2466C228.927 61.9793 226.627 61.1658 224.256 60.955C224.545 60.0423 224.721 59.0948 224.785 58.1474C225.313 48.254 216.399 41.999 207.483 40.7689C201.564 39.8636 195.388 40.749 189.965 43.2837C186.274 44.8934 183.162 47.753 179.823 49.814C173.499 53.8542 164.503 52.4802 159.359 47.0983C156.154 43.8021 154.909 39.2708 153.864 34.8809C152.503 28.8814 151.022 22.237 146.01 18.1621C145.069 17.4106 144.012 16.7955 142.881 16.364C142.188 14.4319 141.143 12.6313 139.819 11.0837C134.183 4.71709 125.581 2.17243 117.504 0.721526C113.402 0.0816417 109.065 -0.592959 105.058 0.897623C103.156 1.56479 101.379 3.05289 100.896 5.07671C99.6513 4.66748 98.3419 4.46907 97.0398 4.47403C95.5794 4.47899 94.1263 4.72701 92.7476 5.19328C91.3688 5.65955 90.0618 6.34408 88.9009 7.22702C87.8662 8.01324 86.9503 8.96067 86.2126 10.0346C82.4278 5.72404 75.284 4.25082 69.8852 3.56629C66.1152 3.13722 62.2487 3.17442 58.5011 3.79943C55.2534 4.39715 52.0181 5.62482 49.565 7.91402C48.0501 9.24339 46.9956 11.0589 45.4238 12.289C44.0128 13.3902 42.9212 13.0157 41.6637 11.8649C38.9259 9.21115 36.5447 7.18734 32.6361 6.48546C24.606 5.25529 16.1428 7.97107 10.0287 13.2514C7.02854 15.9076 4.2809 19.1542 3.14719 23.0679C2.41201 24.2236 1.7288 25.4191 1.15205 26.6716C-2.36791 34.3576 2.69667 36.5253 9.3529 37.0089C14.1229 37.3983 18.9399 36.9965 23.6728 37.5967C27.0938 38.1374 28.7745 41.5228 30.3563 44.2932C31.7177 46.7113 33.1212 49.3155 35.4134 51.0169C45.4733 57.8721 52.5676 68.8841 54.6543 80.8931C56.4861 91.6768 53.7657 104.1 62.7364 112.421C64.7266 114.261 67.2811 115.576 69.9966 115.871C70.8828 119.933 71.8952 124.145 74.4993 127.528C77.0786 130.871 81.7619 133.158 85.9057 131.714C87.032 135.487 89.9405 138.569 93.4927 140.204C69.1426 180.794 68.8901 229.897 68.4272 275.852C69.3877 230.003 70.103 180.953 94.8863 140.759C95.3715 140.923 95.864 141.062 96.3641 141.171C98.0374 141.548 99.7924 141.565 101.478 141.25C101.936 141.164 102.384 141.057 102.825 140.95C78.8955 181.377 76.9251 230.011 76.4696 275.854C77.4251 229.733 79.8856 180.737 104.817 140.504C104.817 140.504 104.81 140.499 104.8 140.494C105.283 140.4 105.763 140.325 106.241 140.296C107.788 140.191 109.362 140.561 110.959 140.938C118.434 142.776 126.425 142.342 133.702 139.854C134.096 139.703 135.049 139.375 135.46 139.214C136.118 138.934 137.118 138.522 137.747 138.222C138.094 138.061 139.104 137.548 139.425 137.399C140.264 136.933 141.324 136.357 142.119 135.831C144.213 134.552 146.186 132.892 148.094 131.412C150.706 129.348 153.574 128.106 156.936 128.197C161.864 128.279 166.471 130.353 171.147 131.714C174.315 132.649 177.553 133.346 180.823 133.8C182.457 134.023 184.105 134.224 185.776 134.197C187.445 134.184 189.133 133.845 190.665 133.18C192.202 132.543 193.638 131.732 195.168 131.196C196.693 130.668 198.326 130.464 199.94 130.558C205.584 130.913 211.067 134.852 212.594 140.41C213.023 141.992 213.181 143.711 214.072 145.134C216.384 148.785 221.337 149.398 225.268 148.763C228.961 148.197 232.513 146.724 235.575 144.557C245.088 138.096 248.544 125.092 243.982 114.616C248.059 111.412 248.197 105.221 246.022 100.831L246.031 100.839ZM190.492 132.739C187.457 134.078 184.113 133.731 180.912 133.254C177.675 132.781 174.469 132.064 171.338 131.114C166.612 129.695 161.976 127.575 156.956 127.461C150.517 127.285 147.54 131.198 142.715 134.475C142.074 134.859 141.297 135.4 140.641 135.759C140.215 135.985 139.48 136.412 139.039 136.645C138.18 137.054 137.163 137.585 136.274 137.93L135.148 138.401L133.999 138.812C126.722 141.397 118.702 141.831 111.204 139.951C109.615 139.571 107.941 139.15 106.186 139.256C104.441 139.361 102.847 139.916 101.285 140.201C99.7355 140.482 98.1414 140.454 96.6067 140.102C91.7673 139.038 87.5766 135.01 86.725 130.087C82.8313 132.238 78.0267 130.075 75.5191 126.759C72.8804 123.272 72.019 118.827 71.1278 114.594L70.6055 114.554C68.0138 114.375 65.5954 113.148 63.7043 111.377C57.4985 105.645 57.2559 96.8529 56.9614 88.9313C56.8624 86.8653 56.7287 84.7795 56.4713 82.716C56.0059 79.2809 55.1519 75.8236 53.9464 72.5845C50.7804 64.1147 45.1119 56.5601 37.8071 51.2376L36.1313 50.0447C33.2104 47.8373 31.9157 44.4519 29.9379 41.4038C31.1014 42.8274 32.2648 44.2783 34.0173 44.9579C34.8787 45.2728 35.7674 45.3745 36.6561 45.5506C38.4136 45.8656 40.1735 46.1459 41.9038 46.5352C47.5055 47.7059 51.5057 50.4341 53.9464 55.6796C56.2089 60.5234 56.8203 65.8731 57.6446 71.1336C58.2535 76.1882 59.4244 77.7507 64.4097 78.8544C71.1848 80.1936 76.6602 86.4263 77.0761 93.3262L77.1058 93.8247C79.1851 94.2959 81.2595 94.8143 83.2744 95.4665C88.5543 97.1729 94.4333 100.067 96.0893 105.784L96.2205 106.235L96.6908 106.297C101.372 106.913 106.132 107.533 110.451 109.46C114.828 111.407 118.798 114.995 119.92 119.775C125.806 117.758 132.517 118.264 138.007 121.233C139.066 121.803 140.126 122.463 141.289 123.014C142.445 123.574 143.745 123.944 145.017 124.122C146.285 124.306 147.54 124.358 148.76 124.43C153.639 124.713 158.525 125.484 163.503 125.697C165.986 125.804 168.503 125.747 170.981 125.434C177.103 124.698 183.026 122.818 189.197 122.699C194.054 122.639 198.98 123.636 203.809 124.303C205.708 124.566 207.998 124.891 210.161 125.509C204.968 124.991 198.888 127.555 194.975 130.807C193.41 131.347 191.977 132.143 190.487 132.746L190.492 132.739ZM213.763 143.927C213.334 142.766 213.196 141.546 212.874 140.345C211.07 133.582 203.547 129.103 196.755 130.34C201.784 128.289 207.319 126.109 212.654 126.392C215.488 127.659 217.647 129.718 217.612 133.249C217.676 137.463 213.748 143.612 216.538 147.265C215.29 146.471 214.265 145.333 213.76 143.929L213.763 143.927ZM235.353 144.242C232.375 146.427 228.907 147.972 225.251 148.624C224.441 148.746 223.624 148.817 222.808 148.825C221.179 148.822 219.53 148.597 218.01 148.002C217.505 147.808 217.015 147.563 216.555 147.272C215.102 145.318 215.664 142.682 216.27 140.487C216.929 138.103 217.862 135.764 217.978 133.257C218.221 128.969 214.817 126.434 211.186 125.184C207.852 123.989 203.728 123.569 200.274 122.957C196.623 122.364 192.918 121.707 189.187 121.717C185.455 121.729 181.742 122.404 178.103 123.083C173.283 124.028 168.471 124.76 163.558 124.43C158.679 124.192 153.805 123.388 148.842 123.068C147.604 122.989 146.391 122.927 145.22 122.748C144.049 122.572 142.955 122.26 141.891 121.736C140.826 121.226 139.792 120.573 138.68 119.973C133.294 117.056 126.801 116.327 120.892 117.947C119.296 113.388 115.353 110.023 111.048 108.108C106.704 106.178 101.976 105.519 97.3319 104.921C95.3764 99.0107 89.2623 95.8807 83.6903 94.1545C81.9303 93.599 80.148 93.1476 78.3608 92.7408C77.6677 85.9353 72.5734 79.8613 65.9964 78.0508C63.0706 77.2844 59.8972 77.0934 59.1521 73.5567C57.9367 67.4629 57.4639 61.012 54.6766 55.3225C52.0701 49.9182 47.8273 47.1305 42.0102 46.0392C40.2503 45.6796 38.4804 45.4365 36.7229 45.1588C35.8615 45.005 34.9604 44.9182 34.1361 44.6354C31.8514 43.7922 30.5494 41.5873 28.8884 39.9058C27.6581 38.311 25.8957 36.9072 23.8164 36.6592C20.388 36.2624 16.9027 36.4509 13.4892 36.4236C6.7117 36.3269 -2.72188 36.441 1.40948 26.7906C1.93921 25.5356 2.5828 24.3228 3.28085 23.1472L3.2165 23.1076L3.28828 23.1249C3.54571 22.1576 3.9492 21.2301 4.42446 20.3446C9.86282 10.7042 21.6901 5.13871 32.5717 6.84259C39.8542 8.23396 40.9607 13.8491 44.2579 13.3481C45.8198 12.9587 46.8545 11.5896 47.8447 10.4587C48.9536 9.10451 50.1987 7.86938 51.6518 6.90459C53.9489 5.42145 56.6396 4.60547 59.3377 4.22353C64.7885 3.46459 70.3951 3.92096 75.7196 5.26025C79.4599 6.27464 83.5095 7.71562 85.9676 10.8382L86.277 11.2449L86.5493 10.8158C88.0246 8.48446 90.3836 6.77563 92.9877 5.91005C95.7428 4.97999 98.8295 5.00974 101.515 6.14566C101.716 3.85398 103.27 2.42542 105.347 1.664C109.204 0.255266 113.404 0.95219 117.36 1.58215C125.229 3.03553 133.635 5.53306 139.076 11.7186C140.428 13.3134 141.453 15.166 142.094 17.1452C143.282 17.5545 144.393 18.1695 145.376 18.9632C152.282 24.7842 151.663 34.432 154.953 42.3066C155.854 44.504 157.171 46.5675 158.852 48.2565C163.605 52.8969 170.959 54.6404 177.246 52.4628C180.719 51.2352 183.633 48.688 186.591 46.7039C187.967 45.7887 189.43 44.9951 190.937 44.3155C196.034 42.0883 201.767 41.317 207.262 42.1949C211.933 42.9365 216.602 44.8859 219.808 48.4276C222.897 51.823 224.303 57.071 222.459 61.3667L221.991 62.4431L223.162 62.4505C225.602 62.4679 228.033 63.2293 230.112 64.5413C236.779 68.5691 238.237 77.7606 233.608 83.8941L233.333 84.2562L233.528 84.6579C234.169 85.9551 234.006 87.6614 233.165 88.8445C229.82 88.5345 226.399 89.534 223.761 91.6049L222.201 92.8301C229.097 92.6565 236.744 92.9343 242.209 97.654C245.668 100.712 247.326 106.002 245.816 110.427C245.267 112.012 244.21 113.383 242.828 114.323C242.828 114.323 242.992 114.67 242.989 114.67C247.781 124.814 244.549 137.736 235.358 144.244L235.353 144.242Z" fill="var(--fill-0, #F8FFCF)"/>
<g id="Group_2">
<path id="Vector_3" d="M243.548 115.032C228.981 108.08 210.99 105.047 196.252 113.14C195.051 113.797 193.881 114.539 192.767 115.32C191.663 116.089 190.539 116.766 189.234 117.108C187.009 117.691 183.563 118.373 181.291 118.892C161.629 123.123 150.544 123.157 131.487 116.255C127.828 115.199 124.942 112.763 122.167 110.213C133.026 111.682 144.054 113.18 155.003 111.746C166.773 110.045 178.37 105.789 187.722 98.3061C188.13 97.9763 188.534 97.634 188.922 97.2768C200.661 94.7818 212.547 92.9514 224.506 91.7982C212.896 92.6786 201.326 94.1965 189.868 96.3443C190.123 96.0715 190.37 95.7888 190.606 95.4936C191.45 94.4296 192.121 93.2689 192.767 92.1206C200.329 78.2143 213.706 68.115 228.456 62.8397C213.542 67.9042 199.94 77.877 192.111 91.7461C191.45 92.8795 190.779 93.9931 189.969 94.9802C189.162 95.9648 188.195 96.818 187.172 97.6191C185.115 99.2163 182.935 100.662 180.672 101.954C172.743 106.483 163.837 109.152 154.81 110.313C145.411 111.396 135.987 110.288 126.638 108.921C144.213 104.586 160.842 95.2729 172.466 81.2773C173.298 80.3447 173.971 79.2758 174.88 78.554C175.778 77.8249 176.976 77.5347 178.164 77.1726C194.784 72.3015 210.762 63.8665 222.374 50.7935C210.611 63.7003 194.621 71.8948 177.984 76.5476C176.655 76.8824 175.776 77.1949 175.078 77.5967C176.751 73.1423 181.915 59.4022 182.887 56.7856C184.457 52.4602 186.152 48.0529 189.281 44.5931C186.081 47.9934 184.284 52.3858 182.628 56.6839C181.496 59.551 175.352 74.9479 174.068 78.1721C174.068 78.1721 174.122 78.1919 174.197 78.2217C173.501 78.8219 172.882 79.6205 171.894 80.8011C160.325 94.3825 143.923 103.358 126.652 107.458C128.019 106.503 129.313 105.449 130.563 104.365C133.229 102.031 135.811 99.6231 138.311 97.1231C145.18 90.258 151.391 82.7455 156.876 74.7371C157.847 73.3184 158.807 71.8501 160.216 70.863C160.904 70.3819 161.689 70.0198 162.488 69.6552C164.09 68.9062 165.666 68.0803 167.142 67.0981C173.055 63.234 177.647 57.3635 179.833 50.6348C178.642 53.9458 176.929 57.0683 174.704 59.7767C171.409 63.8665 167.058 67.0386 162.238 69.0897C161.02 69.556 160.092 70.0843 159.292 70.7167C158.275 63.4672 157.273 55.7613 160.429 48.8986C156.988 55.7638 157.807 63.7301 158.599 71.1036C158.599 71.1036 158.726 71.0887 158.874 71.0689C157.921 71.9221 157.136 72.9588 156.22 74.2733C148.549 84.938 139.534 94.6429 129.447 103.038C127.142 104.941 124.707 106.744 121.991 107.944C126.982 99.1271 131.677 90.1464 136.064 81.0119C137.173 78.7128 138.368 76.1458 139.443 73.8169C140.185 72.1974 140.97 70.5555 141.287 68.7698C141.306 68.6557 141.319 68.5416 141.336 68.4275C142.75 65.3943 145.661 63.3382 147.784 60.8059C151.755 56.3292 154.968 51.1829 157.248 45.6496C154.834 51.1035 151.507 56.1407 147.443 60.4934C145.527 62.6487 143.086 64.4146 141.455 66.8005C141.462 65.6696 141.356 64.5361 141.319 63.4126C141.143 59.0301 141.547 54.6179 142.591 50.3446C144.23 43.4919 147.386 37.0087 151.802 31.5102C143.807 41.034 139.925 53.6928 140.799 66.0738C140.806 66.7509 140.782 67.4255 140.695 68.0828C140.596 68.2812 140.502 68.4821 140.415 68.6904C140.415 68.6904 140.485 68.7177 140.579 68.7549C140.232 70.4116 139.465 71.9494 138.732 73.4796C133.569 84.2312 127.972 94.7843 121.971 105.092C125.385 86.121 127.905 66.989 129.489 47.7801C129.578 46.8947 129.648 46.1357 129.653 45.4314C130.509 42.9363 131.554 40.4983 132.685 38.105C133.848 35.657 135.106 33.2463 136.517 30.9298C139.425 26.4184 142.264 21.3415 142.012 15.8032C142.136 21.3365 139.2 26.2993 136.202 30.7314C133.591 34.8832 131.326 39.2433 129.499 43.7994C129.316 42.9363 128.945 42.0757 128.261 41.0638C125.224 36.3589 122.929 31.1505 121.588 25.709C120.766 22.4575 120.251 19.0696 120.093 15.7214C119.833 11.2249 120.246 6.69854 121.179 2.2888C119.1 11.0711 119.414 20.4189 122.031 29.097C123.259 33.157 125.004 37.0955 127.19 40.7339C127.883 41.8723 128.697 43.1199 128.803 44.4145C128.907 45.4587 128.727 46.5797 128.625 47.7032C126.64 67.3536 123.675 86.9023 119.773 106.26C116.922 101.243 115.736 95.4043 114.206 89.8611C111.914 81.2376 106.218 59.7916 103.926 51.168C103.926 51.168 103.174 48.3356 103.107 48.0827C103.119 48.0827 103.174 48.0703 103.174 48.0703C102.795 46.1308 102.785 44.1293 103.122 42.1724C103.441 40.2106 104.107 38.3083 104.656 36.354C106.307 30.5305 107.951 24.6575 108.723 18.6356C108.986 16.6961 109.144 14.5483 109.176 12.5865C109.176 9.56066 109.028 6.49765 108.312 3.55121C108.038 2.57899 107.528 1.6638 106.783 0.976794C107.515 1.6762 108.008 2.59138 108.268 3.56361C109.716 10.4833 108.882 17.7055 107.325 24.5359C106.434 28.467 105.28 32.3336 104.122 36.2002C103.107 39.3202 102.122 42.4254 102.179 45.6819C101.988 45.3867 101.765 45.1114 101.488 44.8758C100.782 44.3029 100.005 44.0648 99.2576 43.6382C94.1089 40.9001 90.6533 35.7339 88.7869 30.3122C86.6234 23.9754 86.4229 17.2045 86.2224 10.5676C86.3511 18.2983 86.4749 26.3613 89.7424 33.5241C91.2474 36.8326 93.391 39.9031 96.2179 42.2096C97.0546 42.9041 98.0521 43.5861 99.0101 44.102C101.109 45.161 101.731 45.4314 102.317 47.4775C102.352 47.723 102.391 47.9686 102.441 48.2141C102.441 48.2141 102.498 48.2042 102.508 48.2017C105.129 58.6432 110.417 79.7346 113.035 90.1712C114.533 95.9276 115.682 101.942 118.612 107.17C114.592 104.849 110.709 102.314 107.27 99.2535C99.6215 92.2223 93.8688 83.1944 88.4824 74.3353C82.8089 64.7122 78.2221 53.7672 70.1103 45.9175C68.64 42.7106 68.937 39.0995 69.4717 35.6769C69.9742 32.537 70.2836 29.3251 70.093 26.1356C69.8108 18.4074 68.291 10.7239 65.5928 3.48176C68.3108 11.1827 69.7044 19.3425 69.7143 27.5072C69.7663 30.2329 69.3727 32.904 68.9197 35.5925C68.3875 38.6084 68.0608 41.8351 68.9271 44.8163C67.9345 43.9309 66.8949 43.0901 65.7933 42.3039C63.6546 40.7439 61.256 39.5484 58.8351 38.5167C55.8894 37.222 52.7705 35.8281 50.8991 33.0925C49.7852 31.4705 49.1243 29.6079 48.4064 27.78L42.6909 13.0651L48.1762 27.8668C48.8669 29.712 49.5129 31.6243 50.6169 33.2835C52.4809 36.1109 55.6567 37.6089 58.6321 38.968C62.8774 40.7042 66.4072 43.2315 69.4569 46.2647C69.4915 46.3391 69.5187 46.416 69.5559 46.4904C69.5559 46.4904 69.5905 46.473 69.6425 46.4507C77.4126 54.2806 82.0391 65.3918 87.4131 74.9553C92.7697 84.0774 98.364 93.1871 106.109 100.541C109.374 103.539 113.016 106.052 116.756 108.333C114.689 107.79 112.652 107.098 110.671 106.282C103.896 103.49 99.7973 100.251 95.057 94.7297C88.5245 87.2297 81.9277 79.6428 73.9991 73.5639C68.7637 69.4394 62.7981 66.426 56.7632 63.678C62.7338 66.5351 68.6276 69.6502 73.7664 73.864C81.5514 80.0719 87.9651 87.7456 94.3416 95.3522C95.9605 97.257 97.6388 99.1444 99.4854 100.843C105.181 105.878 112.384 108.968 119.773 110.523C119.773 110.523 119.818 110.278 119.85 110.107C121.615 111.724 123.425 113.333 125.415 114.752C126.553 115.556 127.749 116.305 129.083 116.863C130.115 117.272 131.982 117.82 133.007 118.172C153.656 125.395 166.728 123.229 187.417 118.257C188.618 117.974 189.865 117.701 190.989 117.148L190.969 117.217C195.16 118.271 199.111 120.395 202.344 123.358C199.43 120.367 195.782 118.061 191.779 116.702C193.39 115.714 194.853 114.534 196.519 113.646C211.052 105.447 229.003 108.309 243.541 115.045L243.548 115.032Z" fill="var(--fill-0, #F8FFCF)"/>
<path id="Vector_4" d="M119.806 118.522C120.672 127.222 115.472 136.032 107.417 139.564C115.883 136.402 121.685 127.542 121.289 118.433L119.806 118.522Z" fill="var(--fill-0, #F8FFCF)"/>
<path id="Vector_5" d="M143.148 122.232L141.947 123.108C142.195 123.438 142.398 123.807 142.541 124.207C143.254 126.394 142.309 128.844 140.789 130.491C138.794 132.691 136.081 133.986 133.726 135.811C132.155 137.029 130.689 138.517 129.974 140.407C130.793 138.587 132.32 137.215 133.944 136.111C136.402 134.442 139.279 133.267 141.457 131.136C141.967 130.657 142.425 130.099 142.811 129.487V129.978L150.631 129.288L143.326 128.542C144.274 126.526 144.432 124.149 143.143 122.232H143.148Z" fill="var(--fill-0, #F8FFCF)"/>
<path id="Vector_6" d="M182.03 123.8C180.755 123.21 179.329 123.227 177.995 123.249L178.094 124.735C179.344 124.589 180.552 124.467 181.607 124.834C183.636 125.64 185.54 128.237 185.332 130.486C185.228 131.717 184.545 132.947 183.399 133.497C183.998 133.277 184.53 132.862 184.919 132.337C186.179 130.7 185.916 128.373 184.896 126.679C184.183 125.504 183.317 124.417 182.03 123.8Z" fill="var(--fill-0, #F8FFCF)"/>
<path id="Vector_7" d="M90.5049 109.728C89.5841 110.66 88.7301 111.655 87.9429 112.699C86.5889 112.28 85.2201 111.865 83.8165 111.55C80.7223 110.819 77.3212 110.729 74.3557 112.004C72.8854 112.614 71.5338 113.487 70.3952 114.569C71.618 113.582 73.0141 112.833 74.4844 112.354C78.7297 110.906 83.0789 112.304 87.084 113.912C85.1433 116.784 83.7027 119.99 82.8734 123.351C82.2471 125.893 81.9749 128.517 82.1011 131.117C82.1011 128.515 82.4947 125.926 83.2323 123.448C85.4032 116.104 90.6733 109.571 97.5275 106.24L96.8443 104.918C94.5001 106.203 92.3664 107.84 90.5049 109.728Z" fill="var(--fill-0, #F8FFCF)"/>
<path id="Vector_8" d="M78.4784 92.7035C70.9063 90.4937 62.3217 92.4331 56.5047 97.6787C62.4752 92.9391 70.9137 91.5353 78.018 94.1172L78.4784 92.701V92.7035Z" fill="var(--fill-0, #F8FFCF)"/>
<path id="Vector_9" d="M60.5354 77.5025L61.3473 76.2575C60.278 75.63 59.3126 74.7768 58.4264 73.8244C57.1442 72.443 55.8496 70.6994 54.649 69.2039C53.8198 68.1573 52.9757 67.0511 51.8469 66.2996C51.2825 65.9301 50.639 65.6721 49.9657 65.6151C50.2949 65.6771 50.6093 65.7813 50.9088 65.9201C52.4088 66.6791 53.2975 68.1647 54.196 69.5288C56.0798 72.3339 57.7209 75.4514 60.5329 77.5025H60.5354Z" fill="var(--fill-0, #F8FFCF)"/>
<path id="Vector_10" d="M25.0332 17.1772C23.595 15.9569 22.2014 14.6796 20.9662 13.2535C19.7335 11.8299 18.6666 10.2451 17.9265 8.49905C18.6097 10.2699 19.6295 11.8994 20.8227 13.3726C24.407 17.7774 29.3701 20.9073 33.0682 25.1509C37.9472 30.7363 40.5562 38.3504 39.8309 45.7363L41.3112 45.8579C41.5661 41.964 40.9448 38.0503 39.6131 34.4292C36.7738 26.4431 31.3182 22.2392 25.0332 17.1772Z" fill="var(--fill-0, #F8FFCF)"/>
</g>
</g>
</svg>
