<svg preserveAspectRatio="none" width="100%" height="100%" overflow="visible" style="display: block;" viewBox="0 0 82.276 287.96" fill="none" xmlns="http://www.w3.org/2000/svg">
<g id="Group">
<path id="Vector" d="M73.5303 75.6799C74.4734 77.483 75.0006 79.5192 74.9338 81.5529C74.9412 82.6938 74.5155 83.6859 74.8125 84.8788C75.1665 86.0594 76.0551 86.729 76.721 87.6467C79.2855 90.9503 80.8276 95.0475 81.0677 99.2365C81.0826 99.4721 81.095 99.7078 81.1049 99.9459C80.3028 96.2306 78.4612 92.7112 76.0378 89.8044C75.4759 89.1298 74.8868 88.4825 74.2679 87.86C73.4733 87.0043 72.347 86.357 72.5797 85.0376C73.1738 79.2042 70.8445 72.8822 66.129 69.3356C69.2999 70.3227 71.9881 72.7384 73.5328 75.6799H73.5303ZM24.0727 26.0963C24.6247 26.6419 25.2411 27.0412 25.8104 27.4281C28.0828 28.8493 29.5061 31.2154 31.3874 33.3706C32.3255 34.457 33.4518 35.4242 34.6424 36.2228C38.1253 38.5691 42.3309 39.7496 45.9028 41.7437C50.7149 44.3875 54.0393 48.9337 56.9726 53.4997C57.7845 54.7869 58.6138 56.0791 59.4084 57.3911C57.5816 55.5235 55.23 54.1197 52.5987 53.8643C51.1333 53.7105 49.6382 53.8296 48.2767 53.3335C47.3014 52.9888 46.4276 52.3687 45.7815 51.5552C45.4375 51.1138 44.9746 50.5012 44.3557 50.2879C43.7616 50.0523 43.0537 50.1911 42.5042 50.2085C39.1327 50.3821 35.8034 48.8444 33.63 46.1882C33.1869 42.7482 32.3082 39.3454 30.2091 36.5403C29.3601 35.3796 28.308 34.4644 27.3798 33.4004C25.5629 31.3195 24.3772 28.7278 23.9663 25.9921C24.0009 26.0268 24.0356 26.064 24.0727 26.0988V26.0963ZM24.449 83.9835C16.8298 100.769 14.8223 119.385 13.6985 137.58C12.3148 162.592 10.0399 207.786 8.70569 233.272C8.51757 237.127 8.30222 241.405 8.07448 245.896H1.81926C3.46784 212.439 5.34911 176.462 6.92591 146.221C7.52495 134.733 8.08933 123.267 10.0498 111.94C12.6885 96.3967 17.6343 81.1685 26.7708 68.2071C28.11 69.7002 29.5457 71.094 31.0458 72.4135C28.4986 76.0593 26.298 79.9408 24.449 83.9835ZM75.664 109.108C73.9263 108.609 72.2282 107.977 70.592 107.205C66.6191 105.353 63.0669 102.681 60.1535 99.4225C59.1881 98.3337 58.2598 97.1532 57.0717 96.1661C55.8785 95.169 54.5196 94.5242 53.3561 93.7082C49.752 91.2603 47.1281 87.6765 44.836 84.0157C44.0389 82.7558 43.3532 81.4785 42.5166 80.226C41.6947 78.9487 40.4991 77.7979 39.259 76.9423C33.9196 73.2146 28.7511 69.0008 25.0034 63.6163C24.3029 62.6441 23.5974 61.4536 23.0182 60.4045C22.6345 59.658 22.189 58.7577 21.8672 57.9714C21.4265 56.9794 21.0775 55.8509 20.5329 54.8613C19.8968 53.6907 18.9809 52.6986 18.2408 51.6445C16.2506 48.8618 14.7134 45.7591 13.7282 42.4753C13.3123 41.0939 12.998 39.6827 12.7777 38.2566C12.3346 35.3721 12.3469 32.2025 11.0548 29.4842C10.4434 28.0978 9.72802 26.8205 9.10918 25.5011C5.37139 17.6662 3.3416 9.03272 3.09159 0.35212C3.1114 0.329798 3.1411 0.252916 3.18814 0.0768243C3.20299 0.0222606 3.37627 0.13139 3.453 0.0941873C8.06459 1.25491 12.2628 3.90868 15.3793 7.47765C18.6096 11.1756 20.726 16.007 20.5255 20.9549L20.8671 21.0963C21.4117 21.317 21.7632 21.756 22.038 22.2892C22.6098 23.4152 22.9563 24.8785 23.8549 25.8756C24.0727 28.7228 25.1594 31.5229 26.9515 33.7526C28.4417 35.5135 30.0606 37.1777 30.9195 39.3479C32.375 42.7333 32.6523 46.4808 32.8082 50.1416C32.8355 50.6946 32.8156 51.2775 33.1869 51.8132C33.5483 52.334 34.1177 52.5399 34.5954 52.7681C38.6154 54.6059 41.3779 58.9288 41.4324 63.3113L41.4373 63.7428L41.8185 63.9412C47.8856 67.1183 51.3585 74.6109 49.8411 81.3024C54.1334 82.9716 56.9553 87.54 56.6013 92.1408C60.302 91.4438 64.2304 93.1675 66.1983 96.4017C66.8122 97.3937 67.1736 98.557 67.6018 99.7251C68.0102 100.903 68.6092 102.061 69.3568 103.071C71.5921 106.089 74.9561 107.959 78.179 109.698C77.226 109.544 76.3051 109.234 75.6591 109.103L75.664 109.108ZM81.7187 108.47C81.6915 108.517 81.6668 108.562 81.6371 108.607C81.6272 108.622 81.6173 108.634 81.6074 108.649C80.8128 109.829 79.4761 109.909 78.1914 109.705C74.159 107.183 69.7232 104.304 68.337 99.4746C67.9558 98.3213 67.6315 97.0912 66.9854 95.9503C66.3542 94.8169 65.4804 93.8273 64.468 93.0212C62.5941 91.5579 60.2277 90.7345 57.8415 90.8039C57.7573 86.5505 55.2077 82.4458 51.4427 80.4815C52.5393 73.594 48.9574 66.2255 42.8507 62.8698C42.6973 60.0498 41.5734 57.3167 39.7565 55.1664C38.5015 53.6559 36.9049 52.4233 35.1053 51.6321C34.1251 51.2278 34.0236 51.1857 33.984 50.087C33.9073 48.8891 33.8083 47.6713 33.6597 46.4535C35.5509 49.3132 39.056 51.1683 42.5314 51.0741C43.2171 51.0865 43.8532 50.8955 44.3607 51.3643C44.8409 51.8281 45.2964 52.582 45.8608 53.0309C46.4697 53.5667 47.1752 53.9858 47.9376 54.2661C49.4253 54.7968 51.0045 54.6778 52.5071 54.7993C55.4453 55.0151 58.0098 56.7016 60.0099 58.8048C60.2104 59.0082 60.401 59.2215 60.5916 59.4348C60.8045 59.8192 61.0124 60.2036 61.2129 60.593C62.4308 62.9789 63.3714 65.5509 63.4259 68.2369L63.4383 68.842L64.0323 68.904C64.5769 68.9586 65.1091 69.0578 65.6314 69.1942C69.4336 72.4953 71.5426 77.4284 71.6836 82.4259C71.6935 83.0336 71.6911 83.7082 71.6416 84.3183C71.4832 85.7717 71.5203 86.6149 72.6466 87.6492C76.7977 91.4538 79.9984 96.357 81.1692 101.893C81.2262 103.143 81.3326 104.398 81.6643 105.625C81.8004 106.139 82.0381 106.608 82.0306 107.143C82.0554 107.62 81.9316 108.073 81.7064 108.47H81.7187Z" fill="var(--fill-0, #054A31)" fill-opacity="0.8"/>
<path id="Vector_2" d="M82.2733 107.141C82.3031 106.593 82.0753 106.072 81.954 105.551C81.4738 103.493 81.6396 101.357 81.5852 99.2143C81.5035 94.8789 80.0282 90.5858 77.4489 87.0937C76.9093 86.2926 76.0181 85.5237 75.778 84.6234C75.6765 84.2216 75.7236 83.7504 75.8052 83.2395C76.3251 80.5014 75.8325 77.6095 74.5849 75.1393C72.6863 71.3223 69.0104 68.3262 64.7726 67.6367C64.6365 64.9333 63.7131 62.3242 62.4977 59.9432C61.213 57.4234 59.6956 55.0945 58.2055 52.7061C55.9529 49.162 53.4404 45.6153 50.1556 42.8995C46.9352 40.1267 42.7197 38.6832 38.9695 37.0116C36.5016 35.9005 34.1599 34.5463 32.3628 32.5027C30.9914 30.9848 29.7711 29.1643 28.2017 27.7581C27.2066 26.7982 25.8476 26.1807 24.8699 25.2829C24.402 24.8464 24.1149 24.3181 23.85 23.7303C23.3228 22.5348 22.8327 20.9401 21.5504 20.2828C21.4291 15.3448 19.179 10.625 15.8299 7.08089C12.4461 3.47968 7.95331 0.865582 3.08676 0.00248259C7.84687 1.11112 12.1862 3.8145 15.3893 7.48267C18.6196 11.1806 20.736 16.012 20.5355 20.9599L20.8771 21.1013C21.4217 21.322 21.7732 21.761 22.048 22.2943C22.6198 23.4203 22.9663 24.8835 23.8649 25.8806C24.0827 28.7278 25.1694 31.5279 26.9616 33.7576C28.4517 35.5185 30.0706 37.1827 30.9295 39.3529C32.385 42.7383 32.6623 46.4858 32.8182 50.1466C32.8455 50.6996 32.8257 51.2825 33.197 51.8182C33.5584 52.339 34.1277 52.5449 34.6055 52.7731C38.6254 54.6109 41.3879 58.9338 41.4424 63.3163L41.4473 63.7478L41.8285 63.9462C47.8956 67.1233 51.3686 74.6159 49.8512 81.3074C54.1434 82.9766 56.9653 87.5451 56.6113 92.1458C60.312 91.4489 64.2404 93.1726 66.2083 96.4067C66.8222 97.3988 67.1836 98.562 67.6118 99.7302C68.0203 100.908 68.6193 102.066 69.3668 103.076C71.6021 106.094 74.9661 107.964 78.189 109.703C77.236 109.549 76.3152 109.239 75.6691 109.108C73.9314 108.609 72.2333 107.977 70.5971 107.205C66.6241 105.353 63.072 102.682 60.1585 99.4226C59.1932 98.3338 58.2649 97.1533 57.0767 96.1661C55.8836 95.1691 54.5246 94.5243 53.3612 93.7083C49.7571 91.2604 47.1332 87.6765 44.841 84.0158C44.044 82.7559 43.3583 81.4786 42.5216 80.2261C41.6998 78.9488 40.5042 77.798 39.2641 76.9423C33.9247 73.2146 28.7562 69.0008 25.0085 63.6164C24.308 62.6442 23.6025 61.4537 23.0233 60.4046C22.6396 59.658 22.194 58.7577 21.8722 57.9715C21.4316 56.9794 21.0826 55.851 20.538 54.8614C19.9018 53.6907 18.986 52.6987 18.2458 51.6446C16.2557 48.8618 14.7185 45.7592 13.7333 42.4754C13.3174 41.094 13.003 39.6827 12.7827 38.2566C12.3396 35.3722 12.352 32.2025 11.0599 29.4843C10.4485 28.0979 9.73309 26.8206 9.11426 25.5011C5.32449 17.5596 3.28975 8.79717 3.0843 0C2.83181 8.84925 4.62644 17.8051 8.23551 25.9079C8.81969 27.2521 9.51527 28.5666 10.0772 29.9059C11.2802 32.6192 11.149 35.5185 11.555 38.4377C11.7579 39.9258 12.0748 41.399 12.4882 42.845C13.6912 47.1704 15.9512 51.1932 18.7335 54.6828C19.7657 56.1337 20.2063 57.9517 20.9786 59.5737C21.4316 60.5583 22.0183 61.6298 22.5629 62.5722C23.3253 63.8173 24.2238 65.1318 25.1323 66.2751C25.3427 66.538 25.5556 66.7984 25.7709 67.0564C23.2015 70.7543 20.9192 74.6407 18.9241 78.6685C14.3571 88.0163 11.3965 98.1304 9.50289 108.339C7.13893 120.802 6.55721 133.555 5.99778 146.174C4.08433 188.404 1.63373 242 0 284.071C1.92087 241.943 4.72297 188.478 6.92356 146.218C7.52259 134.73 8.08699 123.264 10.0475 111.938C12.6862 96.3943 17.632 81.1661 26.7685 68.2047C28.1077 69.6978 29.5434 71.0916 31.0434 72.4111C28.4963 76.0569 26.2957 79.9384 24.4466 83.9811C16.8275 100.767 14.8199 119.383 13.6961 137.578C12.3124 162.59 10.0376 207.784 8.70334 233.27C7.92608 249.183 6.68594 272.323 6.08442 287.96C6.7998 272.221 8.19094 249.193 9.07464 233.292C10.5623 208.047 13.1738 162.469 14.716 137.645C16.2606 115.462 19.0974 92.0019 32.1746 73.3833C34.1896 75.0673 36.3011 76.6224 38.4423 78.0882C39.6304 78.9017 40.5983 79.7995 41.4028 80.9949C44.5366 85.99 47.6704 91.3224 52.7647 94.6011C54.0296 95.4444 55.3638 96.0546 56.4628 96.9226C57.5718 97.7907 58.5124 98.9092 59.5248 99.9955C63.5894 104.341 68.9015 107.458 74.6171 109.021C75.4092 109.232 76.2087 109.41 77.0107 109.562C78.6049 110.008 81.1099 110.39 81.7931 108.649C82.0951 108.21 82.2783 107.692 82.2758 107.138L82.2733 107.141ZM73.5304 75.6799C74.4735 77.483 75.0008 79.5192 74.9339 81.553C74.9413 82.6938 74.5156 83.6859 74.8126 84.8789C75.1666 86.0594 76.0552 86.7291 76.7211 87.6468C79.2856 90.9504 80.8277 95.0476 81.0679 99.2366C81.0827 99.4722 81.0951 99.7078 81.105 99.9459C80.303 96.2306 78.4613 92.7113 76.0379 89.8045C75.476 89.1299 74.8869 88.4826 74.2681 87.8601C73.4735 87.0044 72.3472 86.3571 72.5799 85.0376C73.1739 79.2043 70.8446 72.8823 66.1291 69.3356C69.3 70.3228 71.9883 72.7385 73.5329 75.6799H73.5304ZM30.2117 36.5379C29.3627 35.3771 28.3106 34.462 27.3824 33.398C25.5655 31.3171 24.3798 28.7253 23.9689 25.9897C24.0035 26.0244 24.0382 26.0616 24.0753 26.0964C24.6273 26.642 25.2437 27.0413 25.813 27.4282C28.0854 28.8493 29.5087 31.2154 31.39 33.3707C32.3281 34.457 33.4544 35.4243 34.645 36.2229C38.1279 38.5692 42.3335 39.7497 45.9054 41.7437C50.7175 44.3876 54.0419 48.9338 56.9752 53.4998C57.7872 54.787 58.6164 56.0792 59.411 57.3912C57.5842 55.5236 55.2326 54.1198 52.6013 53.8643C51.1359 53.7106 49.6408 53.8296 48.2793 53.3336C47.304 52.9889 46.4302 52.3688 45.7841 51.5553C45.4401 51.1138 44.9772 50.5012 44.3583 50.288C43.7643 50.0523 43.0563 50.1912 42.5068 50.2086C39.1353 50.3822 35.806 48.8445 33.6326 46.1882C33.1895 42.7482 32.3108 39.3454 30.2117 36.5403V36.5379ZM68.3396 99.4747C67.9584 98.3214 67.6341 97.0913 66.988 95.9504C66.3568 94.8169 65.483 93.8273 64.4706 93.0213C62.5967 91.558 60.2303 90.7346 57.8441 90.804C57.7599 86.5505 55.2103 82.4458 51.4453 80.4815C52.5419 73.5941 48.96 66.2255 42.8533 62.8699C42.6999 60.0499 41.576 57.3167 39.7591 55.1664C38.5041 53.656 36.9075 52.4234 35.1079 51.6322C34.1277 51.2279 34.0262 51.1858 33.9866 50.087C33.9099 48.8891 33.8109 47.6714 33.6623 46.4536C35.5535 49.3133 39.0586 51.1684 42.534 51.0741C43.2197 51.0865 43.8558 50.8956 44.3633 51.3643C44.8435 51.8281 45.299 52.5821 45.8634 53.031C46.4723 53.5667 47.1778 53.9859 47.9402 54.2662C49.4279 54.7969 51.0072 54.6778 52.5097 54.7994C55.4479 55.0151 58.0124 56.7017 60.0125 58.8048C60.213 59.0082 60.4036 59.2215 60.5942 59.4348C60.8071 59.8192 61.015 60.2037 61.2155 60.593C62.4334 62.979 63.374 65.5509 63.4285 68.2369L63.4409 68.8421L64.0349 68.9041C64.5795 68.9587 65.1117 69.0579 65.634 69.1943C69.4362 72.4954 71.5452 77.4285 71.6863 82.426C71.6962 83.0336 71.6937 83.7082 71.6442 84.3184C71.4858 85.7717 71.5229 86.615 72.6492 87.6493C76.8003 91.4538 80.001 96.3571 81.1718 101.893C81.2288 103.143 81.3352 104.398 81.6669 105.626C81.803 106.139 82.0407 106.608 82.0332 107.143C82.058 107.62 81.9342 108.073 81.709 108.47C81.6817 108.517 81.657 108.562 81.6273 108.607C81.6174 108.622 81.6075 108.634 81.5976 108.649C80.803 109.829 79.4663 109.909 78.1816 109.705C74.1492 107.183 69.7134 104.304 68.3272 99.4747H68.3396Z" fill="var(--fill-0, #F8FFCF)"/>
<path id="Vector_3" d="M71.5225 94.4871C70.2304 92.3517 69.27 90.0699 68.3318 87.7584C67.5149 85.809 66.6387 83.8373 65.3589 82.1359C66.0891 82.4062 66.8218 82.6716 67.5619 82.9196C68.8417 83.3363 70.1388 83.7653 71.478 83.9166C68.8813 83.2247 66.552 81.8432 64.1682 80.6304C64.1682 80.6304 64.1361 80.7023 64.1286 80.7172C62.4875 79.0852 60.4107 77.9816 58.5814 76.6299C53.0019 72.5946 49.2369 66.8109 45.712 60.9552C48.9275 62.0415 52.3608 62.6566 55.3411 64.2613C57.7546 65.4617 59.475 68.0758 62.3167 68.3635C62.8637 68.4181 63.4232 68.356 63.9356 68.1626C62.8885 68.4974 61.7573 68.2519 60.8018 67.7682C58.8561 66.7663 57.5293 64.8615 55.6233 63.7777C54.8807 63.3139 54.101 62.917 53.3014 62.5599C54.3856 62.0812 55.5342 61.6992 56.6952 61.3694C58.1779 60.9527 59.6903 60.6229 61.2201 60.3823C58.116 60.5683 55.0317 60.9651 52.0786 62.0539C48.279 60.5683 44.1649 59.7077 41.1054 56.9175L40.1103 58.0236C41.1871 58.9215 42.3678 59.5961 43.6055 60.1442C43.5956 60.1492 43.5263 60.1938 43.5263 60.1938C46.2071 64.425 48.9126 68.7082 52.3459 72.4012C53.5366 73.6983 54.8287 74.9086 56.205 76.0098C56.465 76.863 56.6258 77.746 56.715 78.6388C56.9551 81.3546 56.6729 84.3928 56.6061 87.1334C56.9501 83.7852 57.7422 80.2683 57.3363 76.8829C57.5714 77.0565 57.8091 77.2251 58.0492 77.3913C59.9824 78.7529 62.136 79.7995 63.8019 81.4588C63.7969 81.4712 63.7672 81.5382 63.7672 81.5382C63.8266 81.5605 63.8885 81.5828 63.9479 81.6076C63.9776 81.6398 64.0098 81.6696 64.042 81.7019C66.6114 84.4127 67.7501 88.0957 69.3739 91.3993C72.1315 97.0219 76.4089 101.9 81.6096 105.343C77.5228 102.486 74.0696 98.753 71.525 94.4896L71.5225 94.4871Z" fill="var(--fill-0, #F8FFCF)"/>
</g>
</svg>
