<svg preserveAspectRatio="none" width="100%" height="100%" overflow="visible" style="display: block;" viewBox="0 0 154.033 280.775" fill="none" xmlns="http://www.w3.org/2000/svg">
<g id="Group">
<path id="Vector" d="M146.331 73.6042C146.365 73.6613 146.625 73.9837 146.707 74.1201C145.425 74.3582 144.118 74.1746 142.897 73.7977C140.274 72.9767 137.915 71.3125 135.182 70.747C128.503 69.2391 121.27 71.9698 114.899 68.9216C115.498 68.6587 116.079 68.3611 116.641 68.0263C117.815 67.3393 118.948 66.3199 119.661 65.1022C123.345 65.4668 127.105 65.1716 130.667 64.1523C131.325 63.9638 131.979 63.748 132.622 63.5124C138.62 63.7257 143.019 69.0085 146.331 73.6067V73.6042ZM80.9764 66.5655C79.6942 64.2639 80.6546 61.377 80.4665 58.815C80.3824 57.4062 80.0952 55.9652 79.6224 54.6359C79.1843 53.3635 78.5704 52.1433 77.8129 51.0148C79.1942 50.9652 80.5754 50.7618 81.9517 50.7767C84.2687 50.9454 86.6673 51.2653 88.8406 52.0689C91.316 53.0064 93.4299 55.0798 93.3879 57.8601C93.42 59.2415 93.4572 61.2381 94.6008 62.3938C94.9399 62.7807 95.2518 63.1032 95.378 63.371C95.6231 63.8348 95.3409 64.306 95.1132 64.745C93.1527 68.2322 88.6649 69.001 84.9593 68.371C83.6969 68.1875 82.4468 67.88 81.1918 67.5501C81.3081 67.5352 81.4245 67.5203 81.5383 67.5055L80.9715 66.563L80.9764 66.5655ZM97.8559 54.7599C98.643 54.368 99.3881 53.867 100.094 53.3834C101.653 52.3268 103.024 51.0297 104.257 49.6086C104.272 49.8541 104.364 50.0798 104.606 50.2311C104.985 50.4022 105.465 50.2608 105.747 49.9657C106.275 49.3928 106.24 48.3214 105.839 47.6244C105.987 47.421 106.136 47.2177 106.282 47.0143L106.435 46.7985C106.331 46.109 106.049 45.427 105.643 44.8987C104.636 43.5793 103.168 42.7881 101.846 41.9101C101.5 41.6918 101.148 41.4786 100.787 41.2752C102.074 41.5902 103.376 41.8407 104.69 42.0341C104.95 42.0738 105.208 42.1085 105.468 42.1408C108.463 44.678 108.636 51.6497 107.418 54.998C106.938 56.3745 106.136 57.6418 104.898 58.4528C102.74 57.8576 100.45 57.4409 98.2247 57.5773C98.2247 57.5625 98.2247 57.5476 98.2247 57.5302C98.195 56.5778 98.1108 55.675 97.8509 54.7599H97.8559ZM97.8608 57.6071C96.841 57.6989 95.836 57.9147 94.8656 58.2892C94.8582 58.123 94.8483 57.9519 94.8359 57.7782C94.8037 57.0392 94.6825 56.2331 94.4127 55.499C94.8062 55.5064 95.2023 55.494 95.6008 55.4494C96.289 55.3874 96.9449 55.179 97.5712 54.8938C97.2148 55.7668 97.3534 56.8184 97.8584 57.6071H97.8608ZM104.579 49.2341C104.896 48.8571 105.2 48.4702 105.5 48.0808C105.5 48.1601 105.495 48.237 105.495 48.3164C105.44 48.8521 105.455 49.487 104.916 49.6532C104.859 49.6706 104.874 49.6532 104.846 49.6904C104.829 49.6978 104.779 49.6557 104.74 49.5887C104.673 49.4771 104.626 49.3581 104.581 49.2341H104.579ZM104.75 41.5034C103.289 41.3992 101.831 41.2355 100.371 41.047C99.2346 40.4319 98.0341 39.921 96.7791 39.6581C100.438 37.6219 103.821 35.107 106.475 31.9497C107.606 31.8233 108.723 31.5232 109.75 31.0395C109.98 30.9329 110.205 30.8163 110.426 30.6948C112.834 31.5356 115.198 32.669 117.052 34.4249C118.775 36.0519 120.035 38.2891 120.184 40.6651C115.092 41.491 109.898 41.9002 104.747 41.5034H104.75ZM101.339 42.6542C102.653 43.7479 104.628 44.8417 105.121 46.5282C103.658 48.5098 102.084 50.3972 100.252 52.0069C99.3089 52.808 98.2767 53.6785 97.242 54.3358C96.3929 54.8839 95.3904 55.1567 94.3532 55.3477C94.2666 55.1294 94.1651 54.9161 94.0488 54.7177C91.6007 50.4741 86.2564 50.0773 81.9344 50.2063C80.9492 50.2683 78.8848 50.7718 77.7981 50.995C76.8104 49.5292 75.5777 48.2197 74.1692 47.1656C77.6471 47.2623 81.026 46.1859 84.2489 44.9905C85.9346 44.3952 87.6178 43.7777 89.2862 43.1229C91.7541 42.173 94.2344 41.0644 96.6058 39.7573C98.3311 40.4766 99.851 41.5282 101.336 42.6566L101.339 42.6542ZM84.8207 69.0903C87.7168 69.8418 90.9521 69.7699 93.5908 68.195C95.1107 67.2699 96.7593 65.6429 96.9301 63.7554C96.9499 63.3685 96.8533 63.0312 96.6949 62.7212C99.2718 64.125 101.262 66.3026 103.136 68.5422C103.522 69.0357 104.289 69.879 104.591 70.3626C105.203 71.5333 104.071 73.0883 103.126 73.7927C101.262 75.1866 98.8807 75.1717 96.5959 74.8914C92.0908 74.3507 87.5039 72.6121 84.5657 69.0184C84.6498 69.0407 84.734 69.0655 84.8182 69.0878L84.8207 69.0903ZM103.854 67.9023C101.811 65.7197 99.4525 63.5471 96.5935 62.5426C96.2494 61.9722 95.7221 61.4911 95.3805 60.9553C94.9449 60.1666 94.9151 59.3259 94.8681 58.3586C98.6034 57.3268 102.477 58.3561 106.047 59.6061C109.344 60.7594 113.441 62.8998 116.592 60.246C116.914 59.9608 117.203 59.6235 117.426 59.244C118.072 59.4697 118.619 59.9831 118.966 60.6255C120.414 63.2669 118.483 65.9454 116.228 67.379C113.124 69.3929 109.337 70.2882 105.631 70.0303C105.277 69.3259 104.601 68.7282 103.854 67.8998V67.9023ZM114.879 68.9291C120.956 72.6543 128.434 70.06 135.031 71.4341C137.756 71.9475 140.1 73.5025 142.801 74.1498C144.083 74.4499 145.462 74.5343 146.719 74.1424C146.729 74.1622 146.737 74.1771 146.732 74.1796C146.403 74.8964 145.754 75.5387 145.16 76.0769C143.279 77.6841 140.907 78.7307 138.516 79.3508C131.045 81.2878 123.293 79.011 116.302 76.2853C114.04 75.3949 111.829 74.3631 109.695 73.1776C109.002 72.0268 108.151 70.9926 107.017 70.2436C109.686 70.4618 112.413 70.0055 114.876 68.9266L114.879 68.9291ZM144.843 53.7876C143.613 55.0575 142.469 56.3174 141.17 57.4707C140.902 57.6939 140.249 58.2544 139.989 58.4702C136.355 61.3869 132.053 63.4529 127.498 64.4201C124.941 64.9782 122.307 65.1493 119.679 65.0675C120.265 64.0531 120.557 62.8998 120.335 61.682C120.181 60.742 119.745 59.8517 119.094 59.1919C121.161 57.8105 123.315 56.5878 125.572 55.6006C127.909 54.5887 130.382 53.7604 132.877 53.2346C135.38 52.6889 137.937 52.3938 140.504 52.3789C142.598 52.3293 144.925 52.6319 146.937 51.8928C146.187 52.4781 145.499 53.1254 144.846 53.7852L144.843 53.7876ZM144.031 48.6884C145.355 49.4126 146.591 50.3055 147.648 51.3744C147.514 51.4662 147.38 51.558 147.249 51.6547C145.088 52.3417 142.766 51.8407 140.511 51.801C139.207 51.739 137.9 51.8085 136.595 51.9101C130.216 52.5079 123.961 55.0079 119.072 59.1671C118.495 58.5917 117.755 58.1949 116.886 58.1056C116.196 60.0575 113.958 60.7941 112.042 60.5213C110.131 60.3055 108.255 59.4276 106.294 58.8646C105.886 58.7356 105.47 58.6116 105.049 58.495C105.676 58.2544 106.25 57.8576 106.737 57.374C108.277 55.7321 108.997 53.4528 109.114 51.119C113.854 49.2886 118.792 48.046 123.775 47.1185C130.479 45.9379 137.86 45.3774 144.034 48.6884H144.031ZM137.429 31.0395C139.511 30.8039 141.328 29.3852 143.264 28.7726C143.494 28.6982 143.754 28.6883 143.841 28.7602C143.977 28.8694 143.952 29.0628 143.974 29.2712C144.093 30.9403 144.108 32.6194 143.994 34.2885C143.86 36.5182 143.504 38.728 142.972 40.8957C142.479 42.798 141.915 44.9657 140.264 46.1413C136.954 45.2484 133.375 45.1442 129.805 45.4791C134.528 42.24 136.36 36.5356 137.427 31.0395H137.429ZM136.862 28.7404C135.905 34.7846 134.61 41.3843 129.731 45.4865C125.862 45.8561 122.005 46.7415 118.518 47.6963C115.312 48.614 112.141 49.6805 109.114 51.0842C109.205 49.1547 108.886 47.1929 108.27 45.5262C107.777 44.2563 106.997 42.8997 105.802 42.1879C110.772 42.793 115.847 42.4359 120.763 41.548L121.166 41.481L121.161 41.0693C121.142 39.7846 120.81 38.5445 120.258 37.4061C122.639 37.6616 125.105 37.2672 127.367 36.4909C131.219 35.0946 134.749 32.3813 136.741 28.7627C136.781 28.7578 136.82 28.7503 136.86 28.7429L136.862 28.7404ZM125.05 27.4904C128.892 27.8575 132.726 29.3133 136.612 28.7776C134.659 31.2677 132.199 33.3114 129.412 34.7871C126.572 36.2702 123.424 37.1383 120.216 37.3119C119.565 36.0048 118.624 34.8367 117.52 33.8992C115.5 32.1978 113.003 31.2057 110.453 30.6774C111.441 30.1367 112.347 29.4646 113.168 28.7007C117.003 27.4904 121.067 27.0861 125.05 27.4904ZM113.5 1.69663C117.619 7.1654 118.983 14.6282 117.027 21.2056C115.676 25.6699 112.547 29.9854 107.997 31.5083C107.527 31.6819 107.03 31.796 106.527 31.8803C107.891 30.2483 109.059 28.4477 109.97 26.4537L110.379 25.5683L109.396 25.5955C107.24 25.66 105.163 24.9333 103.175 24.0975C99.8857 22.6541 97.195 21.3024 93.9919 21.0519C95.1231 19.0553 96.7568 17.4457 98.5416 16.0717C102.284 13.1947 106.72 11.2453 109.955 7.70856C111.339 6.21797 112.49 4.40001 112.958 2.40595C113.146 2.1753 113.329 1.9372 113.5 1.69166V1.69663ZM98.9178 10.7889C102.762 8.57909 107.208 7.28692 110.79 4.52649C111.483 3.98086 112.131 3.37073 112.715 2.69613C111.161 6.63712 107.468 9.31075 103.995 11.5528C100.153 14.0454 95.7939 16.6397 93.9597 21.0544C92.7269 20.9601 91.415 21.0296 89.9644 21.3197C88.8604 21.5504 87.7663 21.843 86.6846 22.1977C89.4941 17.2498 93.9943 13.5196 98.9153 10.7864L98.9178 10.7889ZM70.5601 38.3684C73.5429 29.8019 81.4517 24.0727 90.1649 22.4358C94.9473 21.4958 98.4351 23.3237 102.698 25.2359C104.515 26.0197 106.458 26.6819 108.463 26.7984C104.579 34.487 96.7123 39.1447 89.004 42.426C85.7192 43.7802 82.4319 45.2534 79.0407 46.3124C77.4491 46.7787 75.8004 47.054 74.1321 47.1309C72.887 46.2033 71.5057 45.4741 70.0304 45.0004C70.0304 45.0004 70.0304 45.0004 70.0329 45.0004C70.0007 44.8094 69.8274 43.7876 69.7086 43.3883C69.6665 41.6819 70.0032 39.9756 70.5601 38.3659V38.3684ZM65.9065 60.3303C65.3347 59.0134 64.9658 57.5972 64.7629 56.1562C64.5822 54.74 64.4386 53.2445 64.7282 51.8432C65.0252 50.4642 65.7802 49.1572 66.6318 47.9568C67.4783 46.7762 68.5155 45.6924 69.7953 44.983C69.8572 45.0574 69.9289 45.0748 70.0057 45.0202C74.1445 46.925 77.2931 50.6279 78.5902 54.9732C78.8922 55.9628 79.1001 57.0441 79.162 58.0783C79.4467 60.7817 78.3724 63.7108 79.2957 66.3423C73.486 67.0318 68.5724 66.5729 65.904 60.3328L65.9065 60.3303ZM82.125 70.685C81.115 71.6846 79.3105 73.443 78.261 74.4822C73.7335 79.0779 69.0279 84.2045 64.9138 89.1797C51.8167 104.877 40.8509 122.374 32.2565 140.923C28.2341 149.659 24.7092 158.639 21.766 167.799C16.6222 183.825 13.1567 200.398 11.6145 217.164C11.2606 218.756 9.75059 249.657 8.82233 268.278H0.982886C2.54483 250.45 5.39892 217.841 5.44596 216.269L5.6217 214.465L5.97815 210.859C6.15885 209.408 6.44846 206.98 6.64154 205.462C7.00294 202.923 7.58714 199.029 8.04508 196.512C8.34955 194.589 9.03769 191.293 9.39909 189.391C9.85703 187.345 10.4808 184.351 11.0007 182.325C11.5997 179.77 12.5873 176.087 13.2829 173.56C14.2013 170.371 15.4439 166.328 16.4811 163.176C17.3202 160.723 18.5901 157.072 19.5233 154.649C20.209 152.754 21.4219 149.795 22.1694 147.908C22.9814 146.025 24.1819 143.099 25.0433 141.261C26.0954 138.875 27.7538 135.405 28.89 133.071C30.3827 130.093 32.3283 126.377 33.9299 123.456C35.2121 121.181 37.0983 117.87 38.4746 115.633C39.5167 113.86 41.1901 111.266 42.304 109.495C45.5195 104.586 49.1434 99.3633 52.7277 94.7229C59.926 85.266 68.0749 76.2282 76.6743 68.0288C78.0035 67.9643 79.3328 67.7956 80.6348 67.627C81.3799 67.9445 82.1324 68.2421 82.9023 68.5074C82.7141 69.378 82.5854 70.2461 82.521 71.1042C82.3082 70.881 82.125 70.6875 82.125 70.6875V70.685ZM110.958 83.8101C109.186 89.0854 103.49 91.6797 98.2519 92.1484C98.0836 91.645 97.8682 91.1588 97.586 90.7223C96.5241 89.0333 94.8483 87.7635 93.2789 86.635C86.9965 82.4088 83.1399 78.9093 82.8131 72.0863C82.9245 71.9797 83.0359 71.8706 83.1473 71.7639C83.1473 71.7639 82.9864 71.5953 82.7909 71.3894C82.7785 70.4916 82.828 69.5367 82.9344 68.5199C83.427 68.691 83.9295 68.8472 84.437 68.9861C85.7984 71.3423 88.0559 73.1528 90.5115 74.2962C92.3779 75.189 94.4003 75.7446 96.44 76.0571C98.1034 76.2977 99.8337 76.3845 101.495 75.9356C103.203 75.4519 104.802 74.3284 105.539 72.6469C106.005 71.5035 105.97 70.7396 105.648 70.0724C106.096 70.1493 106.544 70.2064 106.997 70.2436C108.032 71.067 108.79 72.1608 109.366 73.3264C110.933 76.5407 112.121 80.2858 110.955 83.8052L110.958 83.8101ZM152.895 71.1488L151.97 72.3567C149.551 75.5561 146.754 78.6067 143.036 80.2486C135.041 83.9143 124.52 83.2843 116.545 79.8393C114.797 79.0854 113.119 78.1652 111.527 77.1062C111.5 77.0244 111.473 76.9425 111.443 76.8607C110.946 75.6479 110.416 74.3855 109.733 73.2347C113.913 75.9951 118.572 77.9817 123.347 79.4797C129.521 81.3895 136.521 81.8706 142.464 78.949C144.383 78.0015 146.281 76.7193 147.417 74.8319C147.509 74.6682 147.633 74.445 147.618 74.1226C147.608 73.9638 147.549 73.8101 147.487 73.7084C147.385 73.5199 147.13 73.2396 147.021 73.0809C146.237 72.0615 145.437 71.0472 144.591 70.0675C142.571 67.6617 139.939 65.3452 136.959 64.1746C141.442 64.0407 145.935 65.3576 149.62 67.9147C150.809 68.7208 152.004 69.6012 153.408 70.1469C153.348 70.4817 153.14 70.8165 152.895 71.1464V71.1488Z" fill="var(--fill-0, #054A31)" fill-opacity="0.8"/>
<g id="Group_2">
<path id="Vector_2" d="M105.821 55.1195C106.751 54.4053 106.791 52.9469 106.251 52.0268C106.266 52.9692 106.155 53.9266 105.435 54.5144C105.405 54.5293 105.405 54.5243 105.402 54.5218C105.415 54.5218 105.373 54.5169 105.316 54.44C105.177 54.2614 105.157 54.0283 105.15 53.7902C105.15 53.2693 105.212 52.6295 105.516 52.2029C105.685 51.9623 105.977 51.9375 106.254 52.0293C106.145 51.9127 105.999 51.816 105.816 51.7887C104.741 51.7316 104.323 53.4851 104.477 54.3234C104.561 54.9261 105.229 55.5412 105.826 55.122L105.821 55.1195Z" fill="var(--fill-0, #F8FFCF)"/>
<path id="Vector_3" d="M101.483 53.7901C101.258 53.8993 101.159 54.1448 101.112 54.3606C101.258 54.2192 101.496 53.9762 101.681 54.0977C101.743 54.1374 101.8 54.2068 101.808 54.2812C101.845 54.8442 101.746 55.5163 101.55 56.0471C101.474 56.2356 101.387 56.2728 101.328 56.2802C101.318 56.2802 101.32 56.2877 101.32 56.2902C101.318 56.2902 101.3 56.2827 101.283 56.253C101.073 55.6751 101.058 55.0277 101.115 54.3581C100.771 54.812 100.605 55.4047 100.612 56C100.615 56.243 100.637 56.5778 100.86 56.7911C101.137 57.0664 101.597 57.0292 101.88 56.8135C102.196 56.5679 102.293 56.2232 102.37 55.8859C102.511 55.2262 102.575 53.4752 101.486 53.7877L101.483 53.7901Z" fill="var(--fill-0, #F8FFCF)"/>
<path id="Vector_4" d="M154.026 69.7275C152.539 69.2811 151.237 68.3733 149.893 67.5028C146.1 64.9879 141.466 63.7825 136.934 64.167C135.659 63.6709 134.323 63.3857 132.941 63.3932C135.823 62.2994 138.533 60.7443 140.929 58.8073C141.407 58.4155 142.103 57.8475 142.536 57.4209C144.595 55.5757 146.298 53.3088 148.655 51.8827L149.157 51.5801C149.157 51.5801 148.764 51.1436 148.764 51.1411C146.368 48.5915 143.496 47.0315 140.387 46.1733C142.949 44.715 143.774 40.3474 144.328 37.7284C144.823 34.9233 144.932 32.0463 144.625 29.2115C144.61 28.2541 143.952 27.9044 143.09 28.2243C141.984 28.636 141.033 29.2561 140.06 29.8117C139.234 30.2928 138.38 30.7392 137.446 30.9724C137.625 30.0423 137.786 29.1197 137.932 28.2144L138.055 27.5076L137.347 27.6589C133.295 28.5096 129.221 26.9099 125.124 26.6668C121.102 26.4138 116.965 27.0115 113.262 28.6187C115.032 26.9446 116.399 24.8265 117.317 22.5795C120.181 15.3126 118.758 6.6047 113.854 0.543158L113.416 0C112.604 1.44842 111.527 2.73067 110.203 3.76738C107.888 5.56798 105.168 6.76839 102.517 8.03328C96.0388 11.0814 89.8157 15.6548 86.6201 22.2223C81.2238 24.0105 76.2582 27.3513 73.1368 32.1405C70.6961 35.8558 68.8396 40.4565 69.8595 44.9456C69.4807 42.7333 69.8347 40.4665 70.5624 38.3682C73.5452 29.8017 81.454 24.0725 90.1672 22.4356C94.9496 21.4956 98.4374 23.3235 102.7 25.2357C104.517 26.0195 106.46 26.6817 108.465 26.7982C104.581 34.4868 96.7146 39.1445 89.0063 42.4258C85.7215 43.78 82.4342 45.2532 79.043 46.3122C77.4514 46.7785 75.8028 47.0538 74.1344 47.1307C72.8398 46.1684 71.3991 45.4144 69.8595 44.9432C74.075 46.8256 77.2805 50.5707 78.595 54.968C78.8969 55.9576 79.1049 57.039 79.1668 58.0732C79.4514 60.7766 78.3771 63.7057 79.3004 66.3371C73.4908 67.0266 68.5772 66.5678 65.9088 60.3277C65.337 59.0107 64.9681 57.5945 64.7652 56.1535C64.5845 54.7374 64.4409 53.2418 64.7305 51.8405C65.0275 50.4616 65.7825 49.1545 66.6341 47.9541C67.4955 46.7537 68.5475 45.6525 69.8595 44.9456C67.7306 45.8013 66.1266 47.6044 64.9137 49.5117C64.0597 50.8088 63.6413 52.4283 63.6265 53.9735C63.4854 58.9462 65.3246 64.6829 70.1094 66.9646C71.5352 67.6417 73.0378 67.9368 74.5626 68.0261C73.2556 69.3059 71.7902 70.732 70.6713 71.9101C65.681 77.0043 60.6585 82.6616 56.2004 88.2271C47.8857 98.5372 40.3384 109.782 33.9148 121.372C24.5208 138.26 17.1493 156.457 12.1614 175.135C9.50536 184.974 7.49537 195.299 6.17106 205.403C5.76015 208.709 5.32201 212.92 5.0423 216.239C5.0423 217.997 0.227733 276.264 0 279.535C0.28219 276.187 5.38142 218.377 5.44578 216.271L5.62152 214.468L5.97797 210.862C6.15867 209.411 6.44829 206.983 6.64136 205.465C7.00277 202.925 7.58696 199.031 8.0449 196.514C8.34937 194.592 9.03751 191.296 9.39891 189.393C9.85685 187.347 10.4806 184.354 11.0005 182.327C11.5995 179.773 12.5872 176.09 13.2827 173.562C14.2011 170.373 15.4437 166.33 16.4809 163.178C17.32 160.725 18.5899 157.074 19.5231 154.651C20.2088 152.756 21.4217 149.797 22.1693 147.91C22.9812 146.027 24.1817 143.101 25.0432 141.263C26.0952 138.877 27.7537 135.407 28.8898 133.074C30.3825 130.095 32.3281 126.38 33.9297 123.458C35.2119 121.184 37.0981 117.873 38.4744 115.635C39.5166 113.862 41.1899 111.268 42.3038 109.497C45.5193 104.589 49.1432 99.3656 52.7275 94.7252C59.9258 85.2683 68.0747 76.2305 76.6741 68.0311C78.0033 67.9666 79.3326 67.7979 80.6346 67.6293C81.3797 67.9468 82.1322 68.2444 82.9021 68.5098C82.7139 69.3803 82.5852 70.2484 82.5209 71.1065C82.308 70.8833 82.1248 70.6898 82.1248 70.6898C81.1149 71.6893 79.3103 73.4478 78.2608 74.487C73.7334 79.0827 69.0277 84.2092 64.9137 89.1845C51.8166 104.881 40.8508 122.379 32.2563 140.928C28.2339 149.663 24.709 158.644 21.7658 167.803C16.622 183.83 13.1565 200.403 11.6144 217.169C11.1515 219.252 8.71077 271.452 8.18104 280.775C8.72562 271.574 11.6144 219.108 12.0302 217.208C13.6738 200.497 17.2408 183.982 22.4713 168.032C23.9688 163.498 25.6075 158.944 27.3848 154.515C39.6403 123.649 58.4827 95.3675 82.4689 72.416C82.4689 76.2008 83.7462 79.7648 86.6176 82.6715C88.4172 84.5788 90.5683 86.0545 92.5956 87.5674C93.9669 88.614 95.3185 89.6135 96.3036 90.9975C96.8557 91.7167 97.1304 92.5897 97.3383 93.4504L97.8408 93.4156C106.618 92.9097 114.755 86.548 111.535 77.1432C114.703 79.5068 118.366 81.1983 122.188 82.1929C129.924 84.1671 139.231 83.929 146.048 79.3828C148.65 77.6467 150.633 75.2211 152.484 72.7533L153.403 71.5232C153.784 71.0222 154.096 70.3972 154.021 69.7275H154.026ZM146.331 73.604C146.365 73.6611 146.625 73.9835 146.707 74.1199C145.425 74.358 144.118 74.1745 142.897 73.7975C140.273 72.9765 137.914 71.3124 135.182 70.7469C128.503 69.2389 121.27 71.9696 114.899 68.9215C115.498 68.6586 116.079 68.361 116.641 68.0261C117.814 67.3391 118.948 66.3198 119.661 65.102C123.344 65.4666 127.104 65.1714 130.666 64.1521C131.325 63.9636 131.978 63.7478 132.622 63.5122C138.62 63.7255 143.019 69.0083 146.331 73.6065V73.604ZM146.734 74.1819C146.405 74.8987 145.756 75.541 145.162 76.0792C143.281 77.6864 140.91 78.733 138.518 79.3531C131.048 81.2901 123.295 79.0133 116.305 76.2876C114.042 75.3972 111.832 74.3654 109.698 73.1799C109.005 72.0291 108.153 70.9949 107.019 70.2459C109.688 70.4641 112.416 70.0078 114.879 68.9289C120.956 72.6541 128.434 70.0599 135.031 71.4339C137.756 71.9473 140.1 73.5023 142.801 74.1497C144.083 74.4498 145.462 74.5341 146.719 74.1422C146.729 74.1621 146.737 74.177 146.732 74.1794L146.734 74.1819ZM103.853 67.9021C101.811 65.7196 99.4523 63.5469 96.5933 62.5425C96.2492 61.972 95.7219 61.4909 95.3803 60.9552C94.9447 60.1665 94.915 59.3257 94.8679 58.3584C98.6032 57.3267 102.477 58.3559 106.047 59.606C109.344 60.7592 113.441 62.8996 116.592 60.2458C116.913 59.9606 117.203 59.6233 117.426 59.2438C118.072 59.4695 118.619 59.9829 118.966 60.6253C120.414 63.2667 118.483 65.9453 116.228 67.3788C113.124 69.3927 109.336 70.288 105.631 70.0301C105.277 69.3257 104.601 68.728 103.853 67.8996V67.9021ZM96.6923 62.7235C99.2691 64.1273 101.259 66.3049 103.133 68.5445C103.519 69.038 104.287 69.8813 104.589 70.3649C105.2 71.5356 104.069 73.0906 103.123 73.795C101.259 75.1889 98.878 75.174 96.5933 74.8937C92.0881 74.353 87.5013 72.6144 84.563 69.0207C84.6472 69.043 84.7314 69.0678 84.8155 69.0901C87.7117 69.8416 90.947 69.7697 93.5857 68.1948C95.1056 67.2697 96.7542 65.6427 96.925 63.7553C96.9448 63.3684 96.8482 63.0311 96.6898 62.721L96.6923 62.7235ZM105.5 48.0781C105.5 48.1575 105.495 48.2344 105.495 48.3137C105.44 48.8494 105.455 49.4844 104.915 49.6505C104.858 49.6679 104.873 49.6505 104.846 49.6877C104.829 49.6952 104.779 49.653 104.74 49.5861C104.673 49.4744 104.626 49.3554 104.581 49.2314C104.898 48.8544 105.203 48.4675 105.502 48.0781H105.5ZM104.257 49.6109C104.272 49.8564 104.363 50.0821 104.606 50.2334C104.985 50.4045 105.465 50.2631 105.747 49.968C106.274 49.3951 106.24 48.3237 105.839 47.6267C105.987 47.4234 106.136 47.22 106.282 47.0166L106.435 46.8008C106.331 46.1113 106.049 45.4293 105.643 44.901C104.636 43.5816 103.168 42.7904 101.846 41.9124C101.499 41.6942 101.148 41.4809 100.787 41.2775C102.074 41.5925 103.376 41.843 104.69 42.0364C104.95 42.0761 105.208 42.1108 105.467 42.1431C108.463 44.6803 108.636 51.652 107.418 55.0003C106.938 56.3768 106.136 57.6441 104.898 58.4551C102.74 57.8599 100.45 57.4432 98.2245 57.5796C98.2245 57.5648 98.2245 57.5499 98.2245 57.5325C98.1948 56.5801 98.1107 55.6774 97.8507 54.7622C98.6379 54.3703 99.383 53.8693 100.088 53.3857C101.648 52.3291 103.019 51.032 104.252 49.6109H104.257ZM120.763 41.5478L121.166 41.4809L121.161 41.0692C121.141 39.7844 120.81 38.5443 120.258 37.4059C122.639 37.6614 125.104 37.267 127.367 36.4908C131.219 35.0944 134.748 32.3811 136.741 28.7625C136.781 28.7576 136.82 28.7501 136.86 28.7427C135.902 34.7869 134.607 41.3866 129.728 45.4888C125.859 45.8584 122.003 46.7438 118.515 47.6986C115.309 48.6163 112.138 49.6828 109.111 51.0866C109.203 49.157 108.883 47.1952 108.267 45.5285C107.774 44.2587 106.995 42.902 105.799 42.1902C110.77 42.7953 115.844 42.4382 120.76 41.5503L120.763 41.5478ZM97.8607 57.6069C96.8408 57.6987 95.8358 57.9145 94.8655 58.289C94.858 58.1228 94.8481 57.9517 94.8357 57.7781C94.8036 57.039 94.6823 56.2329 94.4125 55.4988C94.8061 55.5062 95.2021 55.4938 95.6007 55.4492C96.2888 55.3872 96.9448 55.1788 97.571 54.8936C97.2146 55.7666 97.3532 56.8182 97.8582 57.6069H97.8607ZM144.843 53.7875C143.613 55.0573 142.469 56.3172 141.169 57.4705C140.902 57.6937 140.249 58.2543 139.989 58.47C136.355 61.3867 132.053 63.4527 127.498 64.42C124.941 64.978 122.307 65.1491 119.678 65.0673C120.265 64.0529 120.557 62.8996 120.334 61.6819C120.181 60.7419 119.745 59.8515 119.094 59.1918C121.161 57.8103 123.315 56.5876 125.572 55.6005C127.909 54.5886 130.382 53.7602 132.877 53.2344C135.38 52.6888 137.937 52.3936 140.504 52.3787C142.598 52.3291 144.925 52.6317 146.937 51.8926C146.187 52.4779 145.499 53.1253 144.845 53.785L144.843 53.7875ZM147.647 51.3767C147.514 51.4685 147.38 51.5603 147.249 51.657C145.088 52.344 142.766 51.843 140.511 51.8033C139.206 51.7413 137.9 51.8108 136.595 51.9125C130.216 52.5102 123.961 55.0102 119.072 59.1694C118.495 58.594 117.755 58.1972 116.886 58.1079C116.196 60.0598 113.958 60.7964 112.042 60.5236C110.131 60.3078 108.255 59.4298 106.294 58.8668C105.886 58.7379 105.47 58.6139 105.049 58.4973C105.675 58.2567 106.25 57.8599 106.737 57.3763C108.277 55.7344 108.997 53.4551 109.114 51.1213C113.854 49.2909 118.792 48.0483 123.775 47.1208C130.478 45.9402 137.86 45.3797 144.033 48.6907C145.358 49.4149 146.593 50.3078 147.65 51.3767H147.647ZM143.264 28.7725C143.494 28.6981 143.754 28.6881 143.84 28.7601C143.977 28.8692 143.952 29.0626 143.974 29.271C144.093 30.9401 144.108 32.6192 143.994 34.2884C143.86 36.518 143.504 38.7279 142.972 40.8955C142.479 42.7978 141.915 44.9655 140.263 46.1411C136.954 45.2482 133.375 45.1441 129.805 45.4789C134.528 42.2398 136.36 36.5354 137.427 31.0393C139.508 30.8037 141.325 29.3851 143.261 28.7725H143.264ZM125.05 27.4902C128.892 27.8573 132.726 29.3131 136.612 28.7774C134.659 31.2675 132.199 33.3112 129.412 34.7869C126.572 36.27 123.424 37.1381 120.216 37.3117C119.565 36.0046 118.624 34.8365 117.52 33.899C115.5 32.1976 113.002 31.2055 110.453 30.6772C111.44 30.1366 112.346 29.4644 113.168 28.7005C117.003 27.4902 121.067 27.086 125.05 27.4902ZM89.9667 21.322C88.8627 21.5527 87.7686 21.8453 86.6869 22.2C89.4964 17.2521 93.9966 13.5219 98.9176 10.7887C102.762 8.57891 107.208 7.28674 110.789 4.52631C111.483 3.98067 112.131 3.37055 112.715 2.69594C111.161 6.63694 107.467 9.31057 103.995 11.5526C100.153 14.0452 95.7937 16.6395 93.9595 21.0542C92.7268 20.9599 91.4148 21.0294 89.9643 21.3196L89.9667 21.322ZM93.9942 21.0567C95.1254 19.0601 96.7591 17.4505 98.5439 16.0765C102.287 13.1995 106.722 11.25 109.958 7.71333C111.341 6.22274 112.492 4.40478 112.96 2.41072C113.148 2.18006 113.332 1.94198 113.502 1.69644C117.621 7.16522 118.985 14.628 117.03 21.2055C115.678 25.6698 112.549 29.9853 108 31.5081C107.529 31.6817 107.032 31.7958 106.529 31.8801C107.893 30.2482 109.062 28.4476 109.973 26.4535L110.381 25.5681L109.398 25.5954C107.242 25.6599 105.165 24.9332 103.178 24.0973C99.888 22.6539 97.1973 21.3022 93.9942 21.0517V21.0567ZM106.477 31.9471C107.609 31.8206 108.725 31.5205 109.752 31.0369C109.982 30.9302 110.208 30.8136 110.428 30.6921C112.837 31.5329 115.2 32.6663 117.055 34.4223C118.777 36.0493 120.037 38.2864 120.186 40.6624C115.094 41.4883 109.901 41.8975 104.75 41.5007C103.289 41.3965 101.831 41.2328 100.371 41.0443C99.2344 40.4293 98.0339 39.9184 96.7789 39.6555C100.437 37.6192 103.821 35.1043 106.475 31.9471H106.477ZM74.169 47.1629C77.6469 47.2596 81.0258 46.1833 84.2487 44.9878C85.9344 44.3926 87.6176 43.775 89.286 43.1202C91.754 42.1703 94.2342 41.0617 96.6056 39.7547C98.331 40.4739 99.8508 41.5255 101.336 42.654C102.65 43.7477 104.626 44.8415 105.118 46.528C103.655 48.5097 102.081 50.3971 100.249 52.0067C99.3062 52.8078 98.274 53.6783 97.2393 54.3356C96.3903 54.8837 95.3878 55.1565 94.3506 55.3475C94.264 55.1292 94.1625 54.9159 94.0461 54.7175C91.598 50.474 86.2537 50.0771 81.9317 50.2061C80.9465 50.2681 78.8821 50.7716 77.7954 50.9948C76.8078 49.529 75.575 48.2195 74.1665 47.1654L74.169 47.1629ZM80.9762 66.5653C79.694 64.2637 80.6545 61.3768 80.4663 58.8148C80.3822 57.406 80.095 55.9651 79.6222 54.6357C79.1841 53.3634 78.5702 52.1431 77.8128 51.0146C79.194 50.965 80.5753 50.7617 81.9515 50.7765C84.2685 50.9452 86.6671 51.2651 88.8404 52.0687C91.3158 53.0062 93.4298 55.0796 93.3877 57.8599C93.4199 59.2414 93.457 61.2379 94.6006 62.3937C94.9397 62.7806 95.2516 63.103 95.3779 63.3708C95.6229 63.8346 95.3407 64.3059 95.113 64.7449C93.1525 68.232 88.6647 69.0008 84.9591 68.3709C83.6967 68.1873 82.4466 67.8798 81.1916 67.5499C81.3079 67.535 81.4243 67.5202 81.5382 67.5053L80.9713 66.5628L80.9762 66.5653ZM110.958 83.8099C109.185 89.0853 103.49 91.6795 98.2517 92.1483C98.0834 91.6448 97.8681 91.1587 97.5859 90.7222C96.5239 89.0332 94.8481 87.7633 93.2788 86.6348C86.9963 82.4086 83.1397 78.9091 82.813 72.0862C82.9244 71.9795 83.0357 71.8704 83.1471 71.7637C83.1471 71.7637 82.9863 71.5951 82.7907 71.3892C82.7783 70.4914 82.8278 69.5366 82.9343 68.5197C83.4269 68.6908 83.9293 68.8471 84.4368 68.986C85.7982 71.3421 88.0558 73.1526 90.5113 74.296C92.3777 75.1889 94.4001 75.7444 96.4398 76.0569C98.1032 76.2975 99.8335 76.3843 101.494 75.9354C103.202 75.4518 104.802 74.3282 105.539 72.6467C106.005 71.5033 105.97 70.7394 105.648 70.0723C106.096 70.1492 106.544 70.2062 106.997 70.2434C108.032 71.0668 108.789 72.1606 109.366 73.3263C110.933 76.5406 112.121 80.2856 110.955 83.805L110.958 83.8099ZM152.895 71.1487L151.969 72.3565C149.551 75.5559 146.754 78.6065 143.036 80.2484C135.04 83.9141 124.52 83.2841 116.545 79.8392C114.797 79.0852 113.119 78.1651 111.527 77.106C111.5 77.0242 111.473 76.9423 111.443 76.8605C110.945 75.6477 110.416 74.3853 109.732 73.2345C113.913 75.9949 118.572 77.9815 123.347 79.4796C129.52 81.3893 136.521 81.8704 142.464 78.9488C144.382 78.0014 146.281 76.7191 147.417 74.8317C147.509 74.668 147.633 74.4448 147.618 74.1224C147.608 73.9637 147.548 73.8099 147.487 73.7082C147.385 73.5197 147.13 73.2394 147.021 73.0807C146.236 72.0614 145.437 71.047 144.59 70.0673C142.57 67.6615 139.939 65.3451 136.959 64.1744C141.442 64.0405 145.935 65.3575 149.62 67.9145C150.808 68.7206 152.004 69.601 153.408 70.1467C153.348 70.4815 153.14 70.8163 152.895 71.1462V71.1487Z" fill="var(--fill-0, #F8FFCF)"/>
</g>
<g id="Group_3">
<path id="Vector_5" d="M98.8426 27.4827C92.1963 27.6489 85.3148 29.2536 79.9977 33.4178C77.3417 35.4714 75.3193 38.1847 72.6732 40.2258C75.3564 38.2343 77.4407 35.5482 80.1116 33.5666C85.4534 29.5438 92.2755 28.0854 98.8525 28.0408C101.164 28.0184 103.526 28.192 105.838 27.9292C103.823 28.7203 101.714 29.3379 99.6496 30.0844C96.6841 31.1261 93.7731 32.3265 90.919 33.636C85.2158 36.2625 79.7576 39.4198 74.6237 43.0334C79.822 39.5264 85.3296 36.4833 91.07 33.9758C93.9414 32.7283 96.8598 31.5924 99.8303 30.6127C102.368 29.7496 104.999 29.0799 107.509 28.006C98.5629 35.9475 87.8075 41.8776 76.2649 45.1911C88.3595 41.9768 99.7114 35.8905 109.128 27.5447L108.87 27.2595C108.87 27.2595 108.848 27.195 108.841 27.1752C108.994 27.1553 109.15 27.133 109.303 27.1082L109.177 26.3741C107.571 26.6519 105.927 26.6469 104.303 26.4683C100.187 26.0045 96.085 24.7645 91.8943 25.1365C87.7258 25.4763 83.6439 26.9197 80.1834 29.2709C77.4159 31.1385 75.047 33.5815 73.292 36.4262C75.3119 33.269 78.1189 30.6573 81.3418 28.7699C85.2752 26.5179 89.8571 25.2952 94.3919 25.5631C98.1817 25.7491 101.915 27.0189 105.704 27.257C105.085 27.3364 104.457 27.386 103.828 27.4158C102.182 27.4951 100.516 27.4381 98.8401 27.4877L98.8426 27.4827Z" fill="var(--fill-0, #F8FFCF)"/>
<path id="Vector_6" d="M113.199 2.71336L112.6 2.27189C111.306 4.08985 109.63 5.62757 107.82 6.97678C102.432 11.0269 95.5477 13.6088 91.7926 19.5066C97.075 11.7437 107.568 10.1489 113.199 2.71336Z" fill="var(--fill-0, #F8FFCF)"/>
<path id="Vector_7" d="M119.875 41.3048L119.887 41.1957C119.887 41.1957 119.897 41.2006 119.899 41.2031L120.031 40.9625C120.083 41.0617 120.132 41.1585 120.182 41.2602L120.84 40.9154C119.684 38.8345 117.971 37.1108 115.981 35.8955C113.991 34.6778 111.704 33.956 109.397 33.8816C113.6 34.2487 117.479 36.7314 119.617 40.2334C115.191 38.0533 110.394 36.6793 105.53 36.1907C110.055 36.8678 114.446 38.3087 118.466 40.4194C112.429 39.8068 106.404 39.0503 100.399 38.15C106.859 39.3703 113.352 40.4243 119.875 41.3098V41.3048Z" fill="var(--fill-0, #F8FFCF)"/>
<path id="Vector_8" d="M131.437 29.5638C132.274 29.5762 133.167 29.6382 134.039 29.5861C133.375 29.8639 132.657 30.0425 131.964 30.2062C127.984 31.1387 123.934 31.7513 119.85 32.0415C123.947 31.9373 128.046 31.5058 132.078 30.7518C132.729 30.6303 133.395 30.4963 134.034 30.2855C130.182 33.1923 125.449 34.9805 120.575 35.2781C126.499 35.164 132.397 32.855 136.875 28.8297L136.796 28.7453C136.836 28.7181 136.878 28.6908 136.917 28.661L136.45 28.0831C135.103 29.1719 133.12 28.9611 131.449 29.0033C126.06 28.9934 120.464 28.408 115.278 30.226C120.523 28.5891 126.048 29.3679 131.439 29.5613L131.437 29.5638Z" fill="var(--fill-0, #F8FFCF)"/>
<path id="Vector_9" d="M148.076 52.0714L147.816 51.3744C147.026 51.6869 146.274 52.0614 145.551 52.4781C145.219 52.5798 144.888 52.6716 144.549 52.7534L144.499 52.6468C144.351 52.7187 144.202 52.7906 144.054 52.865C142.895 53.1155 141.707 53.2866 140.519 53.4602C138.345 53.7727 136.179 54.2068 134.068 54.8095C129.845 55.995 125.788 57.7807 122.055 60.0773C125.845 57.8923 129.924 56.2306 134.164 55.1691C136.278 54.6309 138.425 54.2613 140.593 54.0133C141.083 53.9563 141.578 53.8992 142.073 53.8347C136.088 56.7415 130.031 59.497 123.904 62.1036C130.38 59.5962 136.793 56.9201 143.135 54.0753C141.081 55.5858 139.175 57.3194 137.113 58.8025C133.63 61.3274 129.511 62.9816 125.223 63.5818C129.523 63.1056 133.721 61.563 137.323 59.1076C140.145 57.2003 142.717 54.8095 145.692 53.1676C146.165 53.0386 146.633 52.8948 147.096 52.7162C147.096 52.7162 147.046 52.5947 147.012 52.5054C147.361 52.3491 147.712 52.2003 148.076 52.0664V52.0714Z" fill="var(--fill-0, #F8FFCF)"/>
<path id="Vector_10" d="M117.851 58.8396C117.851 58.8396 117.596 59.0876 117.44 59.2389C117.222 59.2413 116.92 59.2463 116.92 59.2463C116.913 61.7265 114.271 63.3336 112.026 63.5965C109.494 63.9165 107.169 62.6813 104.813 61.8753C103.226 61.3371 101.486 60.9601 99.8325 61.3892C101.496 61.0221 103.194 61.4586 104.751 62.0489C107.08 62.9467 109.464 64.3009 112.076 64.0554C114.254 63.8743 116.677 62.5945 117.43 60.474C117.276 62.0836 116.313 63.6213 114.873 64.4051C113.058 65.4244 110.922 65.5385 108.873 65.7096C107.484 65.8113 106.09 65.8708 104.697 65.8857C106.09 65.9328 107.486 65.9353 108.882 65.8956C110.967 65.8163 113.177 65.7865 115.096 64.8118C116.7 64.0182 117.818 62.4234 118.101 60.6625C118.588 62.1828 118.051 64.0306 116.96 65.2012C115.44 66.8952 113.269 67.8451 111.123 68.5197C109.662 68.9537 108.142 69.2017 106.61 69.2513C108.142 69.2637 109.679 69.0777 111.172 68.7007C113.393 68.103 115.662 67.2101 117.304 65.5162C119.017 63.8123 119.596 60.7418 117.856 58.8346L117.851 58.8396Z" fill="var(--fill-0, #F8FFCF)"/>
<path id="Vector_11" d="M146.901 74.4895L146.621 73.8C145.483 74.2786 144.195 74.3357 142.928 74.1844C141.653 74.0381 140.388 73.7032 139.101 73.418C136.524 72.8178 133.851 72.7062 131.217 72.7657C126.002 72.8798 120.647 73.5966 115.6 71.9076C120.6 73.7181 126.019 73.1303 131.222 73.1378C133.831 73.1427 136.443 73.3114 138.975 73.9612C140.745 74.3977 142.643 74.9731 144.51 74.9384C144.037 75.0723 143.547 75.1789 143.059 75.2682C139.626 75.8411 136.096 75.7742 132.628 76.0247C127.974 76.0718 123.365 74.9557 118.83 73.9835C123.37 75.0822 127.925 76.3174 132.633 76.3967C134.977 76.3124 137.299 76.3025 139.646 76.2206C141.349 76.1388 143.079 76.0197 144.742 75.5931C140.512 78.5817 134.883 79.1571 129.821 78.361C123.87 77.4309 118.224 75.1269 112.506 73.2965C118.209 75.2534 123.791 77.669 129.762 78.7281C135.683 79.7921 142.458 78.9687 146.998 74.6755C146.998 74.6755 146.928 74.6035 146.839 74.5118C146.859 74.5043 146.881 74.4994 146.901 74.4895Z" fill="var(--fill-0, #F8FFCF)"/>
<path id="Vector_12" d="M81.4759 47.7359C88.8599 46.1288 96.5186 45.9006 103.945 47.039C98.6821 48.3188 93.2041 48.7776 87.7682 48.3808C93.1274 49.0008 98.5979 48.785 103.927 47.7409C100.798 50.4269 96.5731 51.5901 92.516 52.0415C96.9741 51.791 101.618 50.7245 105.081 47.6938C105.081 47.6938 104.994 47.5995 104.932 47.5326C105.091 47.4978 105.249 47.4656 105.408 47.4309L105.286 46.9398L105.306 46.8084C105.351 46.8431 105.395 46.8753 105.44 46.9125L105.89 46.3222C102.266 43.7057 97.6919 42.5549 93.3551 43.103C97.4568 42.8202 101.596 44.0529 104.833 46.4463C97.0335 45.3922 89.0628 45.8336 81.4734 47.7359H81.4759Z" fill="var(--fill-0, #F8FFCF)"/>
<path id="Vector_13" d="M76.3457 50.0698L76.514 49.5713C76.4521 49.5515 76.3878 49.5391 76.3259 49.5242L76.5437 49.363C75.9966 48.6785 75.2367 48.2345 74.4545 47.989C72.8876 47.5004 71.2613 47.7757 69.7167 48.1353C68.9543 48.3238 68.1968 48.6016 67.5681 49.0703C68.2339 48.6536 68.9939 48.4453 69.7538 48.3188C71.6994 47.9989 74.1649 47.9021 75.6031 49.4002C74.8481 49.3258 74.0931 49.42 73.3901 49.5986C71.4321 50.1293 69.6275 51.0371 67.9418 52.1358C67.1076 52.6864 66.3155 53.2965 65.5729 53.9587C67.724 52.2449 72.3331 49.6928 75.4001 50.0773C72.239 52.0267 69.531 54.6557 67.5136 57.7162C69.8033 54.6829 72.7713 52.2052 76.1056 50.5063C75.0659 53.4106 74.1723 56.6894 72.744 59.3829C72.2192 60.3452 71.5682 61.2455 70.7737 62.0143C72.4668 60.5634 73.5436 58.5322 74.4198 56.5133C75.0387 55.0624 75.8234 53.1155 76.4991 51.4612C77.1279 55.99 77.5685 60.7073 75.7838 65.0128C77.9943 60.3476 77.5115 54.9806 77.0388 49.9954C77.0388 49.9954 76.5041 50.0599 76.3457 50.0797V50.0698Z" fill="var(--fill-0, #F8FFCF)"/>
<path id="Vector_14" d="M96.0376 63.9165C96.0376 63.9165 96.0278 63.8768 96.0278 63.8718C96.05 63.8495 96.0748 63.8272 96.0971 63.8024C96.0971 63.8024 96.0525 63.7602 95.9881 63.7032C95.9758 63.6511 95.9733 63.6412 95.9609 63.5767C95.9807 63.4229 95.9931 63.3361 96.003 63.2667C96.0649 63.17 96.1391 63.0534 96.1391 63.0534C94.8792 62.287 93.7727 61.2503 92.9237 60.0251C92.0573 58.7875 91.5152 57.2795 90.4681 56.1411C88.4235 53.8098 85.2006 52.5796 82.1435 53.0335C85.1659 52.7086 88.2873 54.0305 90.1859 56.3817C91.1612 57.5276 91.6068 59.0057 92.4608 60.3351C93.0152 61.2081 93.696 61.9993 94.4683 62.6913C93.2826 62.1109 92.2479 61.1511 91.1389 60.4368C88.4185 58.6337 85.0595 57.8202 81.8242 58.1675C85.7253 57.9145 89.5052 59.4075 92.3816 62.0216C92.9831 62.5127 93.6168 62.9963 94.3148 63.3609C92.7232 63.3361 91.1142 62.793 89.5597 62.4482C87.4036 61.915 85.1684 62.0316 82.9777 62.1878C85.156 62.1556 87.3715 62.163 89.4681 62.8078C91.186 63.2964 92.9212 64.0058 94.7332 64.0281C91.8172 66.0469 85.505 65.9502 82.4455 65.4988C85.9456 66.2007 93.2257 66.6372 95.9708 63.9289C95.9931 63.9239 96.0154 63.9239 96.0376 63.919V63.9165Z" fill="var(--fill-0, #F8FFCF)"/>
<path id="Vector_15" d="M98.8135 66.4216C98.0139 66.1488 97.1549 65.9801 96.3208 66.1091C97.1624 66.0446 97.9867 66.2728 98.7491 66.5952C100.489 67.3814 102.125 68.4206 103.616 69.621C100.784 68.6637 97.754 68.371 94.838 68.7703C98.0436 68.557 101.267 69.1795 104.126 70.5188C99.8754 71.2827 95.442 71.1612 91.1968 70.1344C95.3257 71.3646 99.7269 71.7366 104.049 71.2158C102.893 72.56 100.799 72.8527 99.0684 72.8651C96.8356 72.9246 94.6004 72.6691 92.432 72.121C90.9839 71.754 89.568 71.253 88.2066 70.628C89.5433 71.3075 90.9418 71.8705 92.3825 72.2996C94.5459 72.942 96.8084 73.2991 99.0709 73.3289C101.215 73.4107 103.809 73.0412 105.036 71.0794C105.153 71.062 105.267 71.0471 105.383 71.0273L105.287 70.5139L105.385 70.313C105.368 70.3055 105.351 70.2981 105.334 70.2907C105.383 70.2311 105.42 70.1915 105.42 70.1915C103.423 68.6017 101.212 67.2946 98.8184 66.4191L98.8135 66.4216Z" fill="var(--fill-0, #F8FFCF)"/>
</g>
</g>
</svg>
